<svg width="2274" height="2273" xmlns="http://www.w3.org/2000/svg" xmlns:xlink="http://www.w3.org/1999/xlink" xml:space="preserve" overflow="hidden"><defs><clipPath id="clip0"><rect x="1064" y="101" width="2274" height="2273"/></clipPath><linearGradient x1="1064.5" y1="100.5" x2="3337.5" y2="2374.5" gradientUnits="userSpaceOnUse" spreadMethod="reflect" id="fill1"><stop offset="0" stop-color="#F7DC85"/><stop offset="0.97" stop-color="#CFB668"/><stop offset="1" stop-color="#CFB668"/></linearGradient></defs><g clip-path="url(#clip0)" transform="translate(-1064 -101)"><path d="M1111 1238C1111 636.562 1598.56 149 2200 149 2801.44 149 3289 636.562 3289 1238 3289 1839.44 2801.44 2327 2200 2327 1598.56 2327 1111 1839.44 1111 1238Z" fill="#195729" fill-rule="evenodd"/><path d="M2151.26 101.33C2096.72 104.481 2067.28 107.402 2025.74 113.781 1820.05 145.366 1625.02 234.382 1466.12 369.194 1420.2 408.159 1370.93 457.434 1331.97 503.366 1283.55 560.455 1238.91 625.433 1202.09 692.43 1191.5 711.695 1167.28 760.979 1158.57 780.96 1109.56 893.485 1079.26 1010.94 1068.12 1131.58 1064.54 1170.4 1064.04 1183.37 1064.04 1237.61 1064.04 1291.86 1064.54 1304.83 1068.12 1343.65 1089.47 1574.81 1181.94 1794.99 1331.97 1971.86 1370.93 2017.8 1420.2 2067.07 1466.12 2106.04 1523.2 2154.47 1588.17 2199.11 1655.16 2235.93 1674.42 2246.52 1723.7 2270.75 1743.68 2279.45 1856.19 2328.47 1973.63 2358.78 2094.25 2369.92 2133.06 2373.5 2146.03 2374 2200.27 2374 2254.51 2374 2267.48 2373.5 2306.29 2369.92 2537.42 2348.57 2757.57 2256.08 2934.42 2106.04 2980.34 2067.07 3029.61 2017.8 3068.57 1971.86 3117 1914.77 3161.63 1849.8 3198.45 1782.8 3209.04 1763.53 3233.26 1714.25 3241.97 1694.27 3290.16 1583.62 3320.11 1468.77 3331.96 1349.15 3333.75 1331.07 3335.98 1297.99 3335.99 1289.44 3336 1284.93 3336.45 1280.97 3337 1280.63 3337.64 1280.23 3338 1264.43 3338 1236.5 3338 1207.74 3337.66 1193.19 3337 1193.6 3336.36 1193.99 3336 1191.19 3335.99 1185.91 3335.98 1170.6 3332.72 1130.58 3328.93 1099.07 3302.64 880.597 3211.32 671.654 3068.57 503.366 3029.61 457.434 2980.34 408.159 2934.42 369.194 2877.34 320.764 2812.37 276.12 2745.38 239.296 2726.12 228.707 2676.84 204.479 2656.86 195.776 2536.32 143.258 2416.96 113.824 2281.29 103.157 2262.67 101.693 2167.99 100.362 2151.26 101.33M2160.26 196.391C1966.92 204.26 1781.88 264.177 1623.15 370.31 1580.92 398.548 1543.95 427.15 1505.63 461.23 1488.22 476.712 1439.47 525.467 1423.99 542.879 1283.86 700.494 1195.98 890.708 1168.15 1096.62 1161.12 1148.66 1159.19 1179.01 1159.19 1237.61 1159.19 1287.03 1160.02 1305.21 1164.11 1345.15 1181.27 1512.98 1239.5 1674.81 1333.08 1814.81 1373.67 1875.53 1410.9 1920.76 1464.06 1973.92 1492.33 2002.19 1508.15 2016.82 1532.22 2036.95 1691.8 2170.4 1886.85 2252.85 2092.75 2273.92 2132.68 2278 2150.86 2278.83 2200.27 2278.83 2258.87 2278.83 2289.22 2276.91 2341.25 2269.87 2547.13 2242.04 2737.32 2154.15 2894.91 2014 2912.32 1998.52 2961.07 1949.76 2976.55 1932.35 3055.33 1843.74 3116.84 1746.35 3161.66 1639.25 3200.62 1546.14 3226.14 1445.78 3236.43 1345.15 3240.52 1305.21 3241.35 1287.03 3241.35 1237.61 3241.35 1179.01 3239.42 1148.66 3232.39 1096.62 3204.56 890.708 3116.68 700.494 2976.55 542.879 2961.07 525.467 2912.32 476.712 2894.91 461.23 2737.31 321.075 2547.56 233.371 2341.3 205.344 2295.67 199.143 2260.7 196.743 2210.27 196.347 2187.72 196.17 2165.21 196.189 2160.26 196.391M2064.32 294.549C2062.16 298.81 2058.51 305.674 2056.21 309.8 2053.92 313.927 2049.43 322.254 2046.24 328.307 2043.05 334.359 2040.11 339.76 2039.71 340.311 2038.98 341.322 2035.18 348.287 2026.89 363.818 2022.51 372.024 2022.36 372.6 2022.53 380.324 2022.62 384.726 2023.17 391.028 2023.75 394.329 2024.33 397.63 2026.16 419.913 2027.82 443.846 2029.48 467.779 2031.69 499.289 2032.73 513.87 2033.77 528.449 2035.57 554.558 2036.73 571.889 2037.89 589.22 2039.27 604.788 2039.8 606.486 2040.32 608.182 2040.77 615.835 2040.79 623.492 2040.81 631.147 2041.23 638.762 2041.73 640.412 2042.22 642.063 2043.8 663.895 2045.23 688.929 2046.65 713.962 2048.95 753.126 2050.33 775.958 2053.81 833.312 2056.58 880.599 2057.18 892.498 2057.46 898 2057.91 906.103 2058.19 910.504 2058.47 914.905 2058.94 922.333 2059.24 927.009 2061.89 968.706 2063.68 1007.5 2062.98 1008.2 2062.52 1008.66 2057.34 1005.78 2051.48 1001.79 2040.46 994.287 2037.59 991.428 2018.14 968.523 2015.33 965.223 2009.76 956.669 2005.76 949.517 2001.75 942.365 1996.78 933.587 1994.71 930.011 1992.63 926.434 1989.82 921.482 1988.46 919.007 1980.88 905.238 1977.81 900.467 1976.35 900.178 1975.31 899.97 1974.72 900.532 1974.72 901.728 1974.72 902.758 1974.33 904.029 1973.85 904.552 1972.93 905.54 1971.25 910 1964.79 928.51 1962.68 934.562 1960.05 941.99 1958.94 945.016 1957.82 948.042 1954.59 957.045 1951.74 965.022 1945.98 981.213 1943.07 989.008 1941.07 993.683 1939.5 997.333 1939.32 1001.22 1940.64 1002.59 1941.14 1003.11 1944.46 1009.84 1948.01 1017.54 1957.23 1037.55 1961.16 1046.01 1967.31 1059.05 1970.85 1066.54 1974.52 1076.85 1977.83 1088.56 1984.51 1112.17 1984.78 1113.14 1985.37 1116.07 1985.65 1117.45 1986.26 1119.47 1986.72 1120.58 1987.18 1121.68 1987.84 1123.7 1988.19 1125.08 1988.54 1126.45 1989.95 1131.85 1991.33 1137.08 1992.86 1142.88 1993.75 1148.73 1993.61 1152.09 1993.49 1155.11 1993.67 1159.61 1994.01 1162.09 1994.35 1164.57 1994.88 1177.04 1995.17 1189.81 1995.78 1216.4 1996.44 1214.17 1985.73 1221.61 1982.7 1223.71 1980 1225.69 1979.73 1226.02 1979.45 1226.35 1977.43 1227.96 1975.22 1229.6 1973.02 1231.24 1970.55 1233.14 1969.72 1233.82 1968.9 1234.5 1962.97 1239.01 1956.55 1243.84 1946.42 1251.46 1942.48 1254.15 1932.27 1260.43 1931.21 1261.09 1927.46 1263.54 1923.96 1265.87 1920.45 1268.21 1917.22 1270.13 1916.76 1270.13 1915.94 1270.13 1915.03 1256.4 1914.22 1231.61 1913.41 1207.14 1912.32 1181.49 1910.69 1149.08 1909.4 1123.31 1909.08 1116.21 1908.28 1096.07 1907.7 1081.5 1906.51 1063.44 1904.71 1042.05 1904.18 1035.72 1903.47 1025.37 1903.14 1019.04 1902.31 1003.4 1902.01 997.96 1900.62 973.025 1899.97 961.196 1899.44 950.843 1899.46 950.017 1899.47 949.192 1898.89 942.215 1898.16 934.512 1897.43 926.809 1896.58 916.681 1896.28 912.004 1895.69 902.858 1894.88 892.517 1894.12 884.495 1893.64 879.38 1892.35 860.816 1890.68 834.978 1890.17 827.001 1889.28 813.721 1888.71 805.468 1888.14 797.215 1887.23 783.711 1886.69 775.458 1884.41 740.505 1882.51 712.659 1881.66 701.433 1881.16 694.831 1880.3 682.226 1879.75 673.424 1879.2 664.62 1878.28 650.216 1877.71 641.413 1876.13 617.179 1874.76 590.197 1874.73 582.643 1874.71 576.158 1876 573.73 1877.39 577.641 1878.36 580.346 1890.56 597.916 1894.6 602.421 1896.58 604.633 1899.11 607.71 1900.21 609.26 1903.13 613.368 1910.42 618.11 1914.06 618.268L1917.21 618.405 1917.07 606.901C1917 600.574 1916.22 591.796 1915.36 587.394 1911.62 568.403 1904.21 537.577 1900.21 524.373 1898.88 519.971 1895.55 508.268 1892.83 498.364 1883.21 463.439 1870.76 421.304 1867.7 413.335 1867.28 412.235 1866.35 409.309 1865.64 406.833 1864.47 402.734 1858.49 384.634 1852.16 366.012 1849.29 357.582 1845.28 349.288 1843.54 348.213 1841.65 347.046 1836.72 355.279 1820.74 386.326 1817.05 393.479 1813.53 400.231 1812.9 401.331 1812.27 402.431 1808.33 410.436 1804.15 419.118 1797.25 433.434 1796.53 435.495 1796.44 441.232 1796.37 446.209 1796.81 448.203 1798.5 450.586 1800.54 453.451 1800.71 455.306 1801.65 484.991 1802.19 502.251 1803.09 524.248 1803.65 533.876 1805.57 566.999 1806.76 588.438 1807.73 607.401 1808.27 617.855 1809.17 632.034 1809.72 638.912 1811.52 661.354 1813.43 691.052 1816.13 738.946 1818.41 779.339 1821.24 819.109 1822.12 823.133 1822.4 824.421 1822.88 830.427 1823.17 836.479 1823.9 851.332 1825.41 876.259 1826.68 894.498 1827.26 902.751 1828.17 916.256 1828.7 924.509 1829.24 932.761 1829.89 941.539 1830.16 944.015 1830.44 946.491 1830.91 952.568 1831.22 957.52 1831.53 962.472 1832.19 971.25 1832.69 977.027 1833.19 982.804 1833.85 992.707 1834.16 999.034 1834.47 1005.36 1834.93 1012.56 1835.19 1015.04 1835.44 1017.52 1835.9 1025.17 1836.2 1032.05 1836.51 1038.92 1836.95 1045.67 1837.19 1047.05 1837.43 1048.43 1837.88 1055.4 1838.18 1062.56 1838.49 1069.71 1838.96 1076.91 1839.22 1078.56 1839.49 1080.21 1839.89 1085.61 1840.12 1090.57 1841.8 1127.23 1842.85 1146.03 1843.71 1155.09 1844.26 1160.86 1844.95 1170.09 1845.24 1175.59 1846.99 1208.82 1847.84 1226.21 1849.18 1256.12 1850 1274.55 1850.9 1293.68 1851.18 1298.64 1851.46 1303.59 1851.35 1308.14 1850.94 1308.76 1850.53 1309.38 1841.42 1313.96 1830.7 1318.94 1819.97 1323.93 1806.69 1330.21 1801.19 1332.9 1789.71 1338.52 1788.39 1339.04 1776.18 1342.68 1771.23 1344.16 1764.71 1346.17 1761.68 1347.15 1758.66 1348.13 1750.78 1350.58 1744.18 1352.59 1737.58 1354.61 1727.45 1357.76 1721.67 1359.58 1715.9 1361.4 1709.15 1363.46 1706.67 1364.14 1704.2 1364.83 1701.04 1365.74 1699.67 1366.16 1698.29 1366.58 1695.37 1367.42 1693.17 1368.03 1690.97 1368.64 1686.92 1369.8 1684.17 1370.6 1636.87 1384.5 1639.24 1383.97 1614.15 1386.2 1591.1 1388.26 1575.16 1389.8 1547.14 1392.7 1538.89 1393.56 1530.56 1394.03 1528.63 1393.76 1526.71 1393.48 1520.18 1393 1514.13 1392.69 1508.08 1392.37 1501.71 1391.65 1499.97 1391.09 1498.24 1390.53 1495.09 1390.13 1492.97 1390.21 1488.98 1390.34 1472.55 1387.95 1447.67 1383.6 1433.93 1381.2 1422.94 1377.47 1407.11 1369.83 1404.19 1368.42 1400.56 1366.83 1392.86 1363.58 1390.79 1362.71 1387.76 1361.38 1386.11 1360.63 1384.46 1359.89 1373.61 1351.71 1362 1342.46 1342.1 1326.61 1340.59 1325.16 1335.49 1317.15 1332.53 1312.48 1329.61 1307.75 1329.01 1306.65 1328.41 1305.54 1325.46 1300.81 1322.45 1296.13 1310.61 1277.77 1311 1278.76 1300.07 1239.45 1297.52 1230.28 1295.93 1220.76 1293.61 1200.93L1290.53 1174.58 1293.07 1152.85C1294.63 1139.47 1296.52 1128.12 1297.99 1123.34 1299.3 1119.07 1300.6 1114.67 1300.89 1113.57 1301.18 1112.47 1303.5 1104.37 1306.06 1095.57 1308.61 1086.76 1311.78 1075.28 1313.1 1070.06 1314.41 1064.83 1316.2 1058.08 1317.08 1055.05 1317.95 1052.03 1319.74 1045.5 1321.07 1040.55 1325.9 1022.47 1326.46 1020.44 1328.14 1015.04 1329.08 1012.01 1331.17 1005.71 1332.79 1001.03 1339.41 981.899 1343.6 968.889 1343.6 967.497 1343.6 966.686 1343.11 966.023 1342.52 966.023 1340.52 966.023 1333.13 972.837 1329.3 978.208 1327.22 981.135 1321.68 988.931 1316.99 995.533 1312.31 1002.14 1306.22 1010.59 1303.46 1014.33 1299.88 1019.17 1296.86 1025.22 1292.93 1035.34 1289.9 1043.16 1286.59 1051.35 1285.58 1053.55 1284.57 1055.75 1282.31 1061.38 1280.57 1066.06 1278.83 1070.73 1276.82 1075.91 1276.11 1077.56 1275.4 1079.21 1274.05 1083.26 1273.12 1086.56 1272.2 1089.86 1270.1 1097.07 1268.46 1102.57 1266.82 1108.07 1264.55 1115.72 1263.41 1119.57 1262.27 1123.43 1260.98 1127.7 1260.53 1129.08 1256.67 1141.09 1255.51 1147.15 1254.58 1160.09 1253.07 1181.28 1252.14 1263.87 1253.37 1266.49 1253.93 1267.67 1254.93 1272 1255.6 1276.13 1256.28 1280.25 1257.43 1286.11 1258.17 1289.13 1258.9 1292.16 1259.72 1296.21 1259.98 1298.14 1261.02 1305.83 1262.64 1312.07 1265.94 1321.14 1272.51 1339.18 1274.6 1344.66 1275.59 1346.39 1276.14 1347.34 1276.58 1348.83 1276.58 1349.69 1276.58 1351.3 1278.09 1354.57 1283.29 1364.22 1286.22 1369.67 1287.2 1371.41 1296.42 1387.67 1302.61 1398.57 1303.16 1399.18 1325.46 1419.99 1338.09 1431.78 1347.2 1439.45 1350.99 1441.5 1354.23 1443.25 1357.61 1445.14 1358.5 1445.69 1360.59 1446.98 1381.91 1458.84 1387.11 1461.61 1391.56 1463.97 1393.01 1464.48 1410.11 1469.7 1416.71 1471.71 1425.17 1474.29 1428.9 1475.42 1432.63 1476.56 1435.88 1477.81 1436.11 1478.19 1436.35 1478.58 1431.9 1493.03 1426.22 1510.3 1420.54 1527.58 1414.23 1548.92 1412.19 1557.72 1406.52 1582.18 1404.7 1589.85 1401.96 1600.82 1399.71 1609.84 1399.5 1612.31 1399.94 1624.33 1400.21 1631.71 1400.45 1643.72 1400.46 1651.02 1400.48 1658.31 1400.96 1665.74 1401.53 1667.52 1402.42 1670.26 1406.15 1687.19 1409.63 1704.27 1412.12 1716.47 1414.14 1722.52 1422.87 1743.79 1433.72 1770.24 1434.67 1772.12 1442.4 1782.44 1445.54 1786.64 1451.04 1794.06 1454.62 1798.92 1461.88 1808.77 1465.25 1812.33 1481.13 1826.91 1496.68 1841.19 1499.35 1843.36 1506.83 1847.81 1510.03 1849.71 1522.11 1857.32 1531.64 1863.43 1547.5 1873.61 1548.74 1874.17 1561.18 1876.82 1567.76 1878.22 1575.84 1880.03 1579.14 1880.83 1582.45 1881.63 1590.55 1883.43 1597.15 1884.82 1603.75 1886.2 1612.48 1888.05 1616.55 1888.91 1625.17 1890.74 1623.59 1890.61 1670.16 1893.31L1706.17 1895.39 1720.17 1892.82C1727.87 1891.4 1735.53 1889.86 1737.18 1889.4 1738.83 1888.93 1743.55 1888 1747.68 1887.32 1751.8 1886.64 1763.96 1884.35 1774.68 1882.23 1785.41 1880.12 1804.09 1876.57 1816.19 1874.35 1838.48 1870.27 1842.5 1869 1865.2 1858.9 1867.95 1857.67 1873.35 1855.42 1877.21 1853.89 1881.06 1852.36 1885.33 1850.53 1886.71 1849.83 1888.08 1849.12 1893.26 1846.88 1898.21 1844.85 1903.16 1842.81 1908.79 1840.47 1910.71 1839.63 1912.64 1838.8 1915.11 1837.75 1916.21 1837.3 1917.31 1836.85 1920.77 1835.32 1923.9 1833.9 1927.03 1832.48 1930.21 1831.32 1930.95 1831.32 1931.7 1831.32 1932.74 1830.93 1933.27 1830.47 1933.79 1830 1936.02 1828.92 1938.22 1828.07 1940.42 1827.22 1944.92 1825.3 1948.22 1823.81 1951.52 1822.32 1955.8 1820.43 1957.72 1819.61 1959.65 1818.78 1962.8 1817.3 1964.72 1816.31 1973.86 1811.61 1982.32 1807.06 1983.23 1806.35 1983.78 1805.92 1988.05 1803.53 1992.73 1801.04 1997.4 1798.55 2005.28 1794.27 2010.23 1791.54 2015.18 1788.8 2023.37 1784.32 2028.43 1781.57 2038.75 1775.96 2040.03 1774.98 2054.74 1761.36 2060.52 1756.01 2069.5 1747.84 2074.71 1743.21 2079.91 1738.57 2085.42 1733.43 2086.95 1731.78 2089.25 1729.3 2107.88 1693.23 2110.84 1685.52 2111.95 1682.63 2113.59 1682.63 2114.16 1685.52 2114.41 1686.76 2115.33 1702.01 2116.21 1719.42 2117.89 1752.51 2118.3 1755.37 2127.84 1800.31 2128.82 1804.92 2131.08 1811.17 2136.73 1824.81 2137.18 1825.91 2140.39 1833.95 2143.85 1842.66 2148.74 1854.96 2151.62 1860.59 2156.71 1867.8 2177.47 1897.21 2176.72 1896.28 2182.11 1899 2184.95 1900.42 2190.19 1903.27 2193.77 1905.33 2216.85 1918.64 2218.51 1919.18 2244.28 1921.77 2245.93 1921.94 2250.52 1922.62 2254.49 1923.28 2261.57 1924.47 2261.9 1924.42 2273.49 1920.8 2279.98 1918.77 2286.19 1916.74 2287.29 1916.27 2288.39 1915.81 2291.23 1914.93 2293.61 1914.33 2295.99 1913.72 2310.53 1906.88 2325.92 1899.12L2353.9 1885.01 2362.1 1874.45C2403.32 1821.41 2399.29 1827.42 2401.79 1815.31 2402.98 1809.53 2406.23 1793.78 2409.01 1780.3 2411.8 1766.82 2414.43 1753.99 2414.85 1751.79 2415.28 1749.59 2416.77 1742.6 2418.17 1736.27 2419.8 1728.88 2421.45 1715.85 2422.77 1700 2429.27 1621.54 2429.19 1622.86 2428.16 1605.49L2427.66 1597.24 2456.08 1597.24C2471.71 1597.24 2484.83 1596.9 2485.24 1596.49 2485.65 1596.07 2491.91 1595.16 2499.16 1594.46 2506.4 1593.76 2514.36 1592.98 2516.83 1592.72 2524.1 1591.99 2539.21 1589.66 2540.84 1589.03 2541.66 1588.72 2545.72 1587.95 2549.84 1587.32 2553.97 1586.7 2558.58 1585.93 2560.09 1585.6L2562.84 1585 2562.84 1593.5C2562.84 1599.83 2563.23 1602.31 2564.34 1603.24 2565.52 1604.22 2565.84 1607 2565.84 1616.17 2565.84 1623.75 2566.25 1628.26 2567.02 1629.02 2567.79 1629.8 2568.11 1633.79 2567.96 1640.97 2567.79 1649.34 2568.08 1652.2 2569.26 1653.76 2570.29 1655.11 2570.79 1658.1 2570.81 1662.95 2570.83 1666.91 2571.3 1670.42 2571.85 1670.76 2572.4 1671.1 2572.85 1673.97 2572.85 1677.13 2572.85 1680.64 2573.42 1683.64 2574.31 1684.83 2575.28 1686.1 2575.79 1689.23 2575.81 1693.96 2575.83 1697.92 2576.3 1701.43 2576.85 1701.77 2577.4 1702.11 2577.86 1703.83 2577.88 1705.58 2577.9 1707.34 2578.57 1709.65 2579.38 1710.72 2580.19 1711.78 2580.85 1714.57 2580.85 1716.91 2580.85 1719.25 2581.3 1721.44 2581.85 1721.78 2582.4 1722.12 2582.85 1723.89 2582.85 1725.72 2582.85 1727.54 2583.52 1729.6 2584.35 1730.28 2585.17 1730.97 2585.85 1733.02 2585.85 1734.85 2585.85 1736.67 2586.3 1738.45 2586.85 1738.79 2587.4 1739.12 2587.85 1740.55 2587.85 1741.94 2587.85 1743.34 2588.47 1745.67 2589.23 1747.13 2589.99 1748.59 2591.06 1750.91 2591.62 1752.29 2593.14 1756.03 2597.89 1766.43 2599.47 1769.46 2600.23 1770.92 2600.62 1772.75 2600.32 1773.52 2600.02 1774.3 2601.14 1776.65 2602.81 1778.75 2604.49 1780.86 2605.85 1783.16 2605.85 1783.89 2605.85 1784.61 2606.98 1787.31 2608.35 1789.9 2609.73 1792.49 2610.85 1795.15 2610.85 1795.83 2610.85 1796.51 2611.53 1797.62 2612.37 1798.31 2613.2 1799.01 2614.79 1801.42 2615.9 1803.69 2619.73 1811.49 2621.36 1814.15 2624.36 1817.48 2626.01 1819.31 2632.23 1826.33 2638.18 1833.07 2644.14 1839.81 2649.61 1845.32 2650.36 1845.32 2651.1 1845.32 2653.82 1847.8 2656.41 1850.82 2658.99 1853.85 2661.67 1856.32 2662.36 1856.32 2663.05 1856.32 2664.18 1857 2664.86 1857.83 2665.55 1858.65 2666.78 1859.33 2667.59 1859.33 2668.41 1859.33 2669.94 1860.43 2671 1861.77 2672.06 1863.12 2675.05 1865.25 2677.65 1866.52 2680.24 1867.79 2682.52 1869.17 2682.7 1869.58 2682.88 1869.99 2684.29 1870.33 2685.83 1870.33 2687.37 1870.33 2689.18 1871.01 2689.87 1871.83 2690.55 1872.66 2692.1 1873.33 2693.3 1873.33 2694.5 1873.33 2696.36 1873.99 2697.43 1874.8 2698.5 1875.61 2700.56 1876.28 2702.01 1876.3 2703.47 1876.32 2704.92 1877.01 2705.23 1877.83 2705.63 1878.85 2707.23 1879.33 2710.26 1879.33 2712.88 1879.33 2714.88 1879.84 2715.12 1880.56 2715.4 1881.42 2717.72 1881.7 2722.79 1881.49 2728.61 1881.25 2730.45 1881.54 2732 1882.95 2733.61 1884.4 2735.55 1884.66 2743.2 1884.46 2751.22 1884.24 2752.8 1884.48 2755.04 1886.24 2757.61 1888.27 2757.64 1888.27 2759.41 1886.31 2761.03 1884.51 2762.54 1884.33 2775.98 1884.33 2784.76 1884.33 2791.02 1883.93 2791.39 1883.33 2791.73 1882.78 2793.22 1882.33 2794.7 1882.33 2796.18 1882.32 2798.68 1881.65 2800.26 1880.83 2801.83 1880 2804.14 1879.33 2805.38 1879.33 2806.63 1879.33 2808.21 1878.66 2808.89 1877.83 2809.64 1876.93 2811.83 1876.33 2814.39 1876.33 2816.96 1876.33 2819.15 1875.73 2819.9 1874.83 2820.6 1873.98 2822.78 1873.33 2824.9 1873.33 2827.02 1873.33 2829.2 1872.68 2829.9 1871.83 2830.58 1871.01 2832.39 1870.33 2833.91 1870.33 2835.54 1870.33 2836.94 1869.66 2837.3 1868.72 2837.73 1867.61 2838.64 1867.3 2840.29 1867.71 2841.8 1868.09 2843.13 1867.76 2843.91 1866.82 2844.59 1866 2846.35 1865.33 2847.82 1865.33 2849.3 1865.33 2851 1864.83 2851.62 1864.21 2852.85 1862.98 2856.22 1860.95 2859.56 1859.43 2860.74 1858.89 2862.01 1857.97 2862.37 1857.39 2862.73 1856.8 2864.17 1856.32 2865.58 1856.32 2866.99 1856.32 2869.78 1854.96 2871.77 1853.29 2877.61 1848.41 2877.75 1848.32 2879.4 1848.32 2880.26 1848.32 2881.23 1847.65 2881.55 1846.82 2881.86 1846 2882.91 1845.32 2883.86 1845.32 2884.82 1845.32 2887.44 1843.3 2889.7 1840.82 2891.95 1838.34 2894.22 1836.32 2894.73 1836.32 2895.61 1836.32 2898.14 1834.16 2907.66 1825.31 2913.31 1820.06 2923.92 1807.64 2923.92 1806.28 2923.92 1805.62 2925.72 1802.93 2927.92 1800.31 2930.12 1797.68 2931.92 1794.83 2931.92 1793.97 2931.92 1793.12 2932.37 1792.14 2932.92 1791.8 2933.47 1791.46 2933.92 1790.49 2933.92 1789.64 2933.92 1788.79 2935.04 1786.75 2936.42 1785.12 2937.79 1783.48 2938.92 1781.53 2938.92 1780.78 2938.92 1780.02 2940.04 1777.29 2941.42 1774.7 2942.8 1772.11 2943.92 1769.47 2943.92 1768.82 2943.92 1768.17 2945.05 1766.59 2946.42 1765.29 2948.08 1763.74 2948.92 1761.86 2948.92 1759.74 2948.92 1757.98 2949.6 1755.98 2950.42 1755.29 2951.25 1754.61 2951.92 1753.23 2951.92 1752.23 2951.92 1751.23 2952.37 1750.13 2952.92 1749.79 2953.47 1749.45 2953.92 1747.84 2953.92 1746.21 2953.92 1743.28 2954.14 1742.67 2957.28 1736.63 2958.18 1734.89 2958.92 1732.76 2958.92 1731.88 2958.92 1731 2959.37 1730.28 2959.92 1730.28 2960.47 1730.28 2960.92 1728.09 2960.92 1725.4 2960.92 1722.29 2961.47 1720.07 2962.42 1719.28 2963.25 1718.59 2963.92 1716.57 2963.92 1714.78 2963.92 1712.99 2964.65 1710.92 2965.53 1710.19 2966.68 1709.24 2966.99 1707.8 2966.63 1705.12 2966.32 1702.79 2966.64 1700.7 2967.5 1699.57 2968.4 1698.39 2968.87 1694.86 2968.89 1689.22 2968.91 1683.87 2969.38 1680.21 2970.14 1679.45 2970.93 1678.66 2971.26 1675.78 2971.08 1671.38 2970.87 1666.22 2971.19 1664.14 2972.37 1662.96 2974.66 1660.67 2974.63 1619.75 2972.33 1616.74 2971.16 1615.21 2970.88 1612.61 2971.11 1605.53 2971.31 1599.18 2971.02 1595.93 2970.17 1595.08 2969.42 1594.33 2968.91 1591.02 2968.89 1586.78 2968.87 1582.22 2968.35 1579.06 2967.42 1577.82 2966.62 1576.77 2966.21 1574.93 2966.51 1573.74 2966.84 1572.44 2966.43 1571.06 2965.49 1570.28 2964.63 1569.57 2963.92 1567.81 2963.92 1566.37 2963.92 1564.93 2962.74 1561.27 2961.29 1558.24 2958.75 1552.92 2957.53 1550.16 2954.91 1543.72 2954.24 1542.07 2953.29 1539.94 2952.81 1538.98 2952.32 1538.03 2951.92 1536.74 2951.92 1536.13 2951.92 1535.52 2950.12 1532.98 2947.92 1530.48 2945.72 1527.98 2943.92 1525.16 2943.92 1524.23 2943.92 1522.42 2940.94 1519.21 2939.27 1519.21 2938.72 1519.21 2937.22 1518.09 2935.94 1516.73 2930.97 1511.45 2927.2 1510.37 2913.55 1510.34 2903.87 1510.32 2900.61 1510.65 2899.5 1511.76 2898.7 1512.56 2897.33 1513.21 2896.45 1513.21 2895.57 1513.21 2894.59 1513.88 2894.27 1514.71 2893.96 1515.53 2892.87 1516.21 2891.86 1516.21 2890.85 1516.21 2889.4 1517.09 2888.65 1518.18 2887.89 1519.26 2886.15 1520.72 2884.79 1521.43 2881.28 1523.25 2863.9 1542.9 2863.9 1545.05 2863.9 1546.03 2862.33 1548.35 2860.4 1550.22 2858.48 1552.09 2856.9 1554.45 2856.9 1555.46 2856.9 1556.48 2855.78 1558.52 2854.4 1560.01 2853.03 1561.49 2851.9 1563.42 2851.9 1564.29 2851.9 1565.16 2850.78 1566.93 2849.4 1568.23 2848.03 1569.52 2846.9 1571.2 2846.9 1571.97 2846.9 1572.74 2845.78 1574.84 2844.4 1576.64 2843.03 1578.44 2841.9 1580.4 2841.9 1580.98 2841.9 1581.57 2840.72 1584.45 2839.28 1587.39 2837.84 1590.33 2836.3 1593.64 2835.86 1594.74 2835.42 1595.84 2833.22 1600.67 2830.98 1605.47 2828.73 1610.27 2826.9 1615.04 2826.9 1616.07 2826.9 1617.77 2825.24 1622.01 2822.83 1626.48 2822.32 1627.44 2821.9 1629.55 2821.9 1631.18 2821.9 1632.8 2821.45 1634.41 2820.9 1634.75 2820.35 1635.09 2819.88 1636.58 2819.86 1638.06 2819.85 1639.54 2819.17 1641.63 2818.36 1642.69 2817.56 1643.76 2816.9 1645.87 2816.9 1647.39 2816.9 1648.9 2816.44 1650.41 2815.9 1650.76 2815.34 1651.1 2814.88 1652.81 2814.86 1654.57 2814.85 1656.32 2814.17 1658.63 2813.36 1659.7 2812.56 1660.77 2811.89 1662.82 2811.89 1664.25 2811.89 1665.69 2811.35 1667.4 2810.69 1668.06 2810.03 1668.73 2809.59 1670.9 2809.73 1672.88 2809.86 1674.87 2809.28 1677.55 2808.43 1678.85 2807.59 1680.14 2806.89 1683.21 2806.89 1685.67 2806.89 1688.14 2806.44 1690.43 2805.89 1690.77 2805.34 1691.11 2804.89 1693.97 2804.89 1697.14 2804.89 1700.65 2804.32 1703.65 2803.42 1704.83 2802.62 1705.9 2801.94 1708.66 2801.92 1710.97 2801.91 1713.27 2801.44 1715.44 2800.89 1715.78 2800.34 1716.12 2799.88 1720.31 2799.86 1725.09 2799.84 1731.22 2799.39 1734.37 2798.33 1735.77 2797.29 1737.14 2796.88 1739.84 2797 1744.58 2797.1 1748.59 2796.7 1751.88 2796.03 1752.55 2795.33 1753.25 2794.89 1757.57 2794.89 1763.87 2794.89 1771.7 2794.54 1774.34 2793.39 1775.3 2792.57 1775.98 2791.89 1777.74 2791.89 1779.2 2791.89 1780.66 2791.19 1782.85 2790.33 1784.08 2788.86 1786.18 2788.07 1786.3 2775.95 1786.3 2765.77 1786.3 2762.87 1785.99 2761.88 1784.8 2761.02 1783.76 2758.72 1783.3 2754.38 1783.3 2750.04 1783.3 2747.75 1782.84 2746.88 1781.8 2746.2 1780.97 2744.68 1780.28 2743.51 1780.27 2742.34 1780.25 2740.51 1779.57 2739.44 1778.77 2738.37 1777.96 2736.48 1777.3 2735.25 1777.3 2734.01 1777.3 2732.72 1776.85 2732.38 1776.3 2732.04 1775.75 2730.53 1775.3 2729.02 1775.3 2727.51 1775.3 2725.77 1774.8 2725.16 1774.18 2723.93 1772.95 2720.56 1770.92 2717.22 1769.4 2716.04 1768.86 2714.77 1767.94 2714.41 1767.36 2714.05 1766.77 2712.88 1766.29 2711.81 1766.29 2710.75 1766.29 2709.87 1765.84 2709.87 1765.29 2709.87 1764.74 2709.37 1764.29 2708.74 1764.29 2708.12 1764.29 2705.88 1762.83 2703.77 1761.04 2696.01 1754.49 2693.07 1752.29 2692.1 1752.29 2690.77 1752.29 2672.87 1731.78 2672.87 1730.25 2672.87 1729.59 2670.62 1726.45 2667.86 1723.28 2665.11 1720.1 2662.86 1716.93 2662.86 1716.22 2662.86 1715.51 2662.23 1714.22 2661.45 1713.36 2659.54 1711.21 2654.86 1702.27 2654.86 1700.75 2654.86 1700.07 2654.16 1698.93 2653.3 1698.22 2651.36 1696.61 2647.86 1689.49 2647.86 1687.16 2647.86 1686.21 2647.35 1685.26 2646.74 1685.06 2646.12 1684.85 2645.61 1683.4 2645.61 1681.82 2645.61 1679.41 2642.46 1671.61 2638.82 1665.02 2638.29 1664.07 2637.86 1662.24 2637.86 1660.96 2637.86 1659.68 2637.2 1657.77 2636.39 1656.7 2635.58 1655.63 2634.91 1652.87 2634.89 1650.56 2634.87 1648.26 2634.41 1646.09 2633.86 1645.75 2633.31 1645.41 2632.84 1643.7 2632.83 1641.94 2632.81 1640.19 2632.14 1637.89 2631.34 1636.83 2630.38 1635.56 2630.08 1633.69 2630.47 1631.28 2630.89 1628.64 2630.61 1627.29 2629.45 1626.33 2628.31 1625.38 2627.86 1623.26 2627.86 1618.82 2627.86 1615.42 2627.33 1612.11 2626.68 1611.47 2626.02 1610.8 2625.61 1607.99 2625.73 1604.93 2625.88 1601.1 2625.5 1599.19 2624.4 1598.27 2623.25 1597.32 2622.86 1595.01 2622.86 1589.23 2622.86 1583.56 2622.45 1581.14 2621.36 1580.23 2618.56 1577.91 2620.23 1568.23 2623.42 1568.23 2625.43 1568.23 2665.03 1554.89 2668.13 1553.17 2669.1 1552.63 2672.02 1551.47 2674.63 1550.6 2677.23 1549.72 2681.62 1547.96 2684.37 1546.68 2687.12 1545.4 2692.52 1543.16 2696.37 1541.69 2705.43 1538.24 2714.11 1534.6 2720.39 1531.61 2723.15 1530.29 2725.75 1529.21 2726.18 1529.21 2726.6 1529.21 2734.25 1525.68 2743.17 1521.36 2752.09 1517.04 2761.18 1512.72 2763.38 1511.77 2765.58 1510.82 2774.77 1506.14 2783.8 1501.37 2792.83 1496.6 2804.75 1490.3 2810.3 1487.37 2815.85 1484.44 2821.97 1481.14 2823.9 1480.03 2825.82 1478.93 2828.75 1477.27 2830.4 1476.35 2832.05 1475.44 2835.56 1473.22 2838.2 1471.44 2840.84 1469.65 2843.15 1468.19 2843.32 1468.19 2843.95 1468.19 2861.52 1457.44 2868.8 1452.6 2872.86 1449.9 2878.49 1446.24 2881.3 1444.46 2884.11 1442.69 2887.31 1440.58 2888.41 1439.77 2889.51 1438.96 2893.56 1436.03 2897.41 1433.26 2904.06 1428.47 2913.38 1421.26 2921.41 1414.68 2924.39 1412.23 2940.52 1397.58 2948.19 1390.34 2952.59 1386.19 2962.11 1374.9 2968.16 1366.66 2968.56 1366.11 2969.98 1364.3 2971.3 1362.65 2977.12 1355.36 2984.22 1341.18 2989.41 1326.52 2990.8 1322.61 2991.93 1318.53 2991.93 1317.47 2991.93 1316.41 2992.3 1315.11 2992.76 1314.59 2993.87 1313.32 2995.93 1305.95 2995.93 1303.26 2995.93 1302.08 2996.36 1300.33 2996.89 1299.37 2997.9 1297.55 2999.77 1289.75 3000.44 1284.63 3000.65 1282.98 3001.57 1276.45 3002.47 1270.13 3003.38 1263.8 3004.33 1254.8 3004.61 1250.12 3004.87 1245.45 3005.52 1241.11 3006.05 1240.48 3006.62 1239.79 3006.96 1224.74 3006.89 1202.96L3006.78 1166.59 3011.11 1165.81C3017.34 1164.68 3026.95 1163.12 3030.44 1162.66 3037.07 1161.8 3047.37 1158.95 3052.75 1156.5 3074.95 1146.37 3084.38 1140.66 3091.82 1132.81 3103.68 1120.31 3106.79 1116.05 3112.15 1105.07 3119.72 1089.57 3123.73 1077.06 3125.09 1064.76 3125.65 1059.69 3126.52 1054.77 3127.03 1053.82 3128.32 1051.4 3128.25 1001.03 3126.96 1001.03 3126.41 1001.03 3125.96 999.267 3125.96 997.105 3125.96 990.396 3123.95 978.298 3121.83 972.278 3120.71 969.113 3119.15 964.098 3118.36 961.134 3116.59 954.553 3112.49 943.79 3109.89 938.878 3108.82 936.877 3107.95 934.815 3107.95 934.296 3107.95 932.121 3097.12 915.175 3093.23 911.254 3085.62 903.6 3083.98 905.292 3078.44 926.514 3077.14 931.468 3075.77 937.995 3075.38 941.019 3075 944.042 3074.34 946.966 3073.93 947.517 3073.52 948.067 3072.92 950.092 3072.6 952.018 3072.28 953.944 3071.06 960.696 3069.9 967.023 3066.24 986.805 3066.27 987.346 3071.38 996.533 3081.11 1014.04 3091.9 1036.52 3092.51 1040.57 3092.86 1042.93 3092.85 1045.8 3092.48 1046.95 3091.55 1049.9 3085.2 1055.67 3080.45 1057.9 3056.94 1068.94 3048.73 1071.88 3034.94 1074.22 3025.68 1075.79 2999.9 1076.43 2998.58 1075.11 2998.01 1074.53 2996.54 1074.06 2995.33 1074.06 2990.69 1074.06 2980.13 1068.5 2974.11 1062.89 2965.54 1054.89 2959.81 1046.45 2951.81 1030.04 2945.77 1017.65 2944.48 1015.35 2942.31 1013.08L2939.96 1010.62 2936.94 1013.52C2935.28 1015.11 2933.92 1017.14 2933.92 1018.03 2933.92 1018.91 2933.52 1020.07 2933.03 1020.59 2931.86 1021.83 2922.8 1048.46 2922.37 1051.9 2922.19 1053.36 2921.58 1056.35 2921.01 1058.55 2919.92 1062.78 2916.48 1078.12 2914.7 1086.63 2913.69 1091.5 2913.81 1092.04 2917.78 1100.41 2920.06 1105.19 2921.92 1109.37 2921.92 1109.69 2921.92 1110.01 2922.56 1111.69 2923.35 1113.42 2924.14 1115.16 2926.42 1120.63 2928.42 1125.58 2931.82 1134.01 2934.14 1139.42 2937.42 1146.58 2940.36 1153.01 2944.92 1163.96 2944.92 1164.59 2944.92 1165.18 2948.69 1175.28 2950.9 1180.6 2951.68 1182.5 2958.03 1202.33 2961.61 1214.11 2962.54 1217.13 2963.61 1220.06 2964.01 1220.61 2964.41 1221.16 2965.46 1225.21 2966.36 1229.61 2967.26 1234.01 2968.41 1239.42 2968.92 1241.62 2969.42 1243.82 2969.86 1247.5 2969.88 1249.81 2969.91 1252.12 2970.38 1254.28 2970.93 1254.62 2972.16 1255.38 2972.28 1280.79 2971.06 1281.55 2970.58 1281.85 2969.91 1283.44 2969.58 1285.1 2969.16 1287.22 2965.18 1291.91 2956.2 1300.88 2944.76 1312.31 2931.14 1324.14 2929.43 1324.14 2929.08 1324.14 2927.58 1325.3 2926.1 1326.71 2922.73 1329.93 2908.18 1340.15 2906.98 1340.15 2906.48 1340.15 2905.93 1340.49 2905.75 1340.9 2905.56 1341.31 2903.16 1343.33 2900.41 1345.38 2897.66 1347.43 2894.87 1349.57 2894.2 1350.13 2893.54 1350.69 2892.74 1351.15 2892.43 1351.15 2891.58 1351.15 2863.19 1368.82 2861.9 1370.15 2861.63 1370.43 2859.38 1371.66 2856.9 1372.89 2854.43 1374.11 2850.6 1376.2 2848.4 1377.52 2843.77 1380.3 2833.4 1386.29 2826.9 1389.94 2818.48 1394.67 2760.78 1423.18 2759.58 1423.2 2758.92 1423.21 2755.48 1424.79 2751.93 1426.7 2748.38 1428.61 2745 1430.18 2744.43 1430.18 2743.85 1430.18 2741.58 1431.03 2739.38 1432.07 2737.18 1433.11 2731.55 1435.65 2726.88 1437.71 2722.2 1439.77 2717.23 1442.04 2715.82 1442.76 2714.42 1443.48 2710.59 1445.03 2707.32 1446.2 2704.05 1447.37 2700.47 1448.71 2699.37 1449.17 2698.27 1449.63 2694.67 1451.01 2691.37 1452.23 2680.8 1456.13 2677.41 1457.41 2675.37 1458.28 2674.27 1458.75 2669.32 1460.46 2664.36 1462.08 2659.41 1463.7 2652.89 1466.01 2649.86 1467.22 2646.84 1468.44 2642.11 1470.01 2639.36 1470.73 2636.61 1471.44 2630.9 1472.92 2626.68 1474.01 2622.45 1475.1 2618.46 1476.32 2617.81 1476.72 2615.35 1478.24 2614.84 1474.09 2614.95 1453.85 2615.03 1439.76 2614.71 1432.64 2613.96 1431.89 2613.19 1431.11 2612.85 1418.8 2612.85 1391.03 2612.85 1365.6 2612.49 1351.05 2611.85 1350.65 2611.21 1350.25 2610.85 1329.7 2610.85 1292.27 2610.85 1243.02 2610.64 1234.21 2609.38 1232.55 2608.16 1230.93 2607.91 1224.8 2607.88 1195.55 2607.86 1173.16 2607.48 1160.12 2606.84 1159.47 2606.18 1158.82 2605.91 1149.15 2606.09 1132.58L2606.35 1106.7 2618.35 1102.45C2624.96 1100.11 2631.93 1097.66 2633.86 1097 2635.78 1096.34 2638.14 1095.41 2639.1 1094.93 2640.05 1094.46 2641.65 1094.07 2642.65 1094.07 2643.64 1094.07 2644.89 1093.71 2645.41 1093.27 2645.93 1092.83 2649.06 1091.63 2652.36 1090.59 2655.66 1089.56 2658.79 1088.34 2659.31 1087.89 2659.84 1087.43 2661.08 1087.06 2662.08 1087.06 2663.08 1087.06 2664.67 1086.67 2665.63 1086.19 2666.58 1085.71 2671.64 1083.85 2676.87 1082.07 2686.36 1078.83 2708.59 1071.02 2712.37 1069.6 2715.79 1068.32 2736.97 1057.77 2745.37 1053.17 2749.78 1050.75 2761.26 1044.73 2770.89 1039.79 2780.51 1034.84 2789.51 1030.04 2790.89 1029.11 2792.27 1028.18 2799.92 1024.11 2807.89 1020.06 2815.87 1016.02 2826 1010.68 2830.4 1008.21 2845.68 999.623 2860.07 991.514 2865.33 988.53 2868.24 986.88 2874.96 983.132 2880.28 980.203 2890.64 974.484 2894.01 971.058 2910.44 949.517 2914.21 944.565 2918.77 938.847 2920.56 936.811 2928.32 928.005 2930.05 923.478 2933.86 902.001 2934.31 899.525 2935.87 891.872 2937.34 884.995 2941.42 865.924 2941.74 863.14 2942.47 839.474L2943.16 817.46 2938.54 798.46C2933.69 778.537 2932.39 773.446 2930.85 768.385 2930.34 766.695 2929.92 764.522 2929.92 763.557 2929.92 762.591 2925.37 752.494 2919.8 741.12 2914.24 729.746 2907.67 716.163 2905.21 710.936 2902.74 705.709 2894.17 687.811 2886.16 671.162 2878.15 654.513 2871.87 640.619 2872.2 640.287 2872.53 639.955 2874.51 640.747 2876.6 642.047 2878.7 643.347 2881.58 645.086 2883.02 645.912 2885.54 647.361 2899.47 655.836 2904.41 658.919 2913.25 664.441 2923.63 670.478 2924.81 670.773 2927.64 671.487 2924.96 667.071 2909.39 645.414 2886.63 613.737 2885.48 612.123 2880.2 604.452 2877.56 600.63 2873.61 595.144 2871.41 592.261 2869.21 589.377 2864.03 582.229 2859.9 576.376 2855.78 570.523 2849.25 561.332 2845.4 555.951 2841.55 550.57 2834.17 540.25 2828.99 533.019 2823.82 525.788 2819.26 519.871 2818.87 519.871 2817.52 519.871 2816.27 522.327 2812.48 532.376 2807.77 544.843 2807.4 545.802 2806.12 548.881 2804.34 553.173 2795.76 575.262 2794.85 577.891 2791.96 586.217 2786.6 599.818 2785.25 602.235 2783.7 605.028 2783.84 605.415 2793.92 626.744 2799.56 638.663 2808.16 656.67 2813.03 666.76 2817.91 676.85 2821.9 685.324 2821.9 685.595 2821.9 685.864 2823.51 689.538 2825.48 693.758 2827.45 697.98 2829.86 703.234 2830.83 705.434 2834.07 712.759 2840.17 726.366 2842.93 732.444 2844.44 735.744 2847.35 742.272 2849.41 746.948 2851.46 751.625 2854.05 757.477 2855.16 759.953 2857.3 764.764 2870.42 792.602 2880 812.663 2883.2 819.371 2886.48 827.249 2887.3 830.169 2888.11 833.089 2889.5 837.954 2890.39 840.98 2893.37 851.118 2894.59 855.429 2897.21 865.032 2898.63 870.283 2900.3 875.875 2900.9 877.46 2902.29 881.116 2902.24 881.164 2888.41 889.547 2873.79 898.407 2858.29 906.749 2823.4 924.538 2776.39 948.499 2766.12 953.604 2751.88 960.071 2744.46 963.445 2735.68 967.458 2732.38 968.99 2729.08 970.522 2724.58 972.57 2722.38 973.54 2720.18 974.511 2715.22 976.795 2711.37 978.616 2676.53 995.089 2664.03 1000.16 2647.43 1004.56 2638.04 1007.04 2625.41 1010.44 2619.35 1012.1 2605.16 1015.99 2602.25 1016.5 2601.45 1015.2 2601.09 1014.61 2600.73 1009.79 2600.65 1004.48 2600.55 997.968 2600.07 994.393 2599.18 993.499 2598.14 992.466 2597.85 986.271 2597.85 965.285 2597.85 943.191 2597.59 938.049 2596.38 936.454 2595.16 934.838 2594.91 928.859 2594.88 900.81 2594.86 879.455 2594.48 866.881 2593.85 866.489 2593.23 866.107 2592.84 857.19 2592.82 843.172 2592.79 824.799 2592.51 820.103 2591.32 818.532 2590.13 816.96 2589.85 812.37 2589.85 794.465 2589.85 776.559 2589.57 771.969 2588.38 770.397 2587.22 768.869 2586.91 764.794 2586.88 751.259 2586.86 740.909 2586.45 733.816 2585.85 733.444 2585.25 733.071 2584.85 726.121 2584.85 715.95 2584.85 702.284 2584.56 698.79 2583.35 697.575 2582.17 696.394 2581.85 693.294 2581.85 683.057 2581.85 675.458 2581.43 669.783 2580.85 669.422 2580.27 669.062 2579.85 663.473 2579.85 656.05 2579.85 646.384 2579.49 642.825 2578.38 641.354 2577.27 639.892 2576.9 636.309 2576.88 626.858 2576.86 618.44 2576.45 613.906 2575.64 613.099 2574.86 612.317 2574.53 609.173 2574.7 604.146 2574.88 598.439 2574.55 595.87 2573.43 594.397 2572.31 592.918 2571.9 589.751 2571.88 582.265 2571.85 574.509 2571.49 571.842 2570.35 570.889 2569.22 569.954 2568.84 567.442 2568.84 560.822 2568.84 555.97 2568.4 551.722 2567.84 551.382 2567.29 551.042 2566.83 547.527 2566.81 543.57 2566.79 538.837 2566.28 535.713 2565.31 534.435 2564.42 533.251 2563.84 530.25 2563.84 526.742 2563.84 523.578 2563.39 520.712 2562.84 520.372 2562.29 520.032 2561.83 517.192 2561.81 514.06 2561.79 510.649 2561.19 507.589 2560.31 506.426 2559.42 505.248 2558.84 502.248 2558.84 498.795 2558.84 495.004 2558.35 492.699 2557.37 491.884 2556.4 491.078 2555.96 489.097 2556.09 486.084 2556.22 483.207 2555.84 481.356 2555.07 481.1 2554.39 480.875 2553.83 479.266 2553.81 477.524 2553.79 475.782 2553.12 473.482 2552.31 472.414 2551.5 471.346 2550.84 468.559 2550.84 466.221 2550.84 463.883 2550.39 461.692 2549.84 461.352 2549.29 461.012 2548.84 458.821 2548.84 456.482 2548.84 454.144 2548.18 451.357 2547.37 450.289 2546.56 449.222 2545.88 446.547 2545.84 444.346 2545.81 442.145 2545.18 439.556 2544.45 438.593 2543.72 437.629 2543.32 435.801 2543.56 434.53 2543.82 433.184 2543.34 431.673 2542.42 430.908 2541.38 430.049 2540.84 427.954 2540.84 424.839 2540.84 421.933 2540.28 419.62 2539.41 418.894 2538.62 418.241 2538.02 416.296 2538.07 414.573 2538.11 412.85 2537.63 411.266 2537 411.053 2536.36 410.841 2535.84 409.339 2535.84 407.714 2535.84 406.091 2535.13 403.674 2534.25 402.346 2533.38 401.016 2532.94 399.069 2533.28 398.02 2533.63 396.893 2533.26 395.594 2532.36 394.848 2531.52 394.153 2530.84 392.383 2530.84 390.917 2530.84 387.793 2527.98 381.86 2524.4 377.535 2521.93 374.552 2521.82 374.523 2519.85 376.307 2518.74 377.311 2517.83 378.697 2517.83 379.387 2517.83 380.076 2516.71 382.932 2515.33 385.734 2513.96 388.535 2511.71 393.121 2510.33 395.922 2508.96 398.723 2507.83 402.269 2507.83 403.802 2507.83 405.335 2507.16 407.148 2506.33 407.833 2505.51 408.518 2504.83 409.897 2504.83 410.898 2504.83 411.899 2504.38 412.995 2503.83 413.335 2503.28 413.675 2502.83 415.447 2502.83 417.274 2502.83 419.099 2502.16 421.153 2501.33 421.838 2500.51 422.523 2499.83 423.874 2499.83 424.839 2499.83 425.804 2499.16 427.155 2498.33 427.84 2497.51 428.526 2496.83 430.579 2496.83 432.405 2496.83 434.231 2496.38 436.003 2495.83 436.343 2495.28 436.683 2494.83 438.455 2494.83 440.281 2494.83 442.107 2494.15 444.161 2493.33 444.846 2492.5 445.531 2491.83 446.91 2491.83 447.91 2491.83 448.911 2491.38 450.008 2490.83 450.348 2490.28 450.688 2489.83 452.306 2489.83 453.943 2489.83 455.581 2489.04 458.117 2488.09 459.58 2485.46 463.597 2485.57 487.852 2488.25 492.862 2491.58 499.105 2491.83 499.796 2491.83 502.73 2491.83 504.32 2492.5 506.182 2493.33 506.867 2494.21 507.595 2494.84 509.825 2494.86 512.241 2494.88 514.513 2495.49 517.159 2496.22 518.122 2496.95 519.085 2497.35 520.914 2497.11 522.184 2496.85 523.531 2497.33 525.042 2498.25 525.806 2499.29 526.666 2499.83 528.76 2499.83 531.875 2499.83 534.884 2500.38 537.09 2501.33 537.878 2502.35 538.724 2502.83 540.99 2502.83 544.943 2502.83 548.145 2503.28 551.042 2503.83 551.382 2504.38 551.722 2504.83 554.844 2504.83 558.321 2504.83 562.719 2505.29 565.021 2506.33 565.887 2507.35 566.733 2507.83 568.999 2507.83 572.952 2507.83 576.155 2508.28 579.052 2508.83 579.392 2509.38 579.732 2509.85 583.247 2509.87 587.203 2509.89 591.937 2510.4 595.061 2511.37 596.338 2512.34 597.628 2512.83 600.697 2512.83 605.469 2512.83 610.789 2513.24 612.998 2514.41 613.964 2515.69 615.026 2515.92 617.113 2515.68 625.059 2515.46 631.841 2515.75 635.224 2516.6 636.079 2517.39 636.866 2517.83 640.447 2517.83 645.992 2517.83 652.602 2518.2 654.978 2519.38 655.956 2520.61 656.976 2520.89 659.28 2520.76 667.157 2520.65 673.389 2521 677.494 2521.71 678.2 2522.4 678.893 2522.85 683.569 2522.87 690.379 2522.89 698.643 2523.28 701.937 2524.41 703.43 2525.6 705.008 2525.89 708.32 2525.78 719.285 2525.69 728.209 2526.03 733.536 2526.74 734.244 2527.43 734.94 2527.84 740.548 2527.84 749.527 2527.84 760.913 2528.13 763.955 2529.34 764.955 2530.55 765.962 2530.84 769.185 2530.87 781.832 2530.89 794.278 2531.21 797.874 2532.43 799.466 2533.66 801.081 2533.91 804.16 2533.7 815.407 2533.52 825.509 2533.78 829.457 2534.65 829.745 2535.52 830.036 2535.85 835.604 2535.87 850.317 2535.9 866.898 2536.18 870.847 2537.44 872.491 2538.74 874.178 2538.93 877.912 2538.7 896.243 2538.5 912.205 2538.75 918.315 2539.63 919.201 2540.51 920.08 2540.84 927.377 2540.84 946.094 2540.84 966.434 2541.12 972.013 2542.19 972.9 2543.27 973.801 2543.5 979.74 2543.33 1003.27L2543.11 1032.52 2538.73 1033.81C2534.74 1034.98 2530.3 1035.92 2513.83 1039.1 2510.81 1039.69 2505.41 1040.79 2501.83 1041.55 2474.11 1047.46 2418.97 1058.08 2413.08 1058.63 2407.38 1059.17 2405.75 1059.02 2405.37 1057.93 2405.11 1057.17 2404.17 1040.35 2403.28 1020.54 2402.39 1000.73 2400.75 972.15 2399.63 957.02 2398.51 941.889 2397.42 923.883 2397.21 917.006 2397 910.129 2396.37 902.701 2395.82 900.501 2395.27 898.3 2394.57 890.872 2394.27 883.995 2393.97 877.118 2392.2 848.983 2390.35 821.474 2388.49 793.964 2386 756.602 2384.81 738.445 2383.62 720.289 2382.2 700.032 2381.66 693.43 2381.11 686.828 2380.49 676.024 2380.27 669.422 2380.05 662.82 2379.42 655.167 2378.86 652.416 2378.31 649.665 2376.93 632.56 2375.79 614.404 2374.65 596.247 2373.31 575.09 2372.81 567.388 2372.3 559.685 2371.41 545.505 2370.83 535.877 2370.24 526.249 2369.5 516.629 2369.18 514.501 2368.77 511.822 2368.94 510.747 2369.73 511.012 2370.36 511.222 2381.33 521.754 2394.1 534.418 2422.84 562.922 2428.66 568.374 2429.49 567.549 2429.85 567.191 2429.58 564.982 2428.9 562.641 2427.07 556.352 2423.76 545.204 2421.71 538.378 2420.72 535.077 2418.71 528.324 2417.25 523.372 2415.78 518.421 2413.78 511.669 2412.79 508.368 2411.81 505.066 2410.77 501.465 2410.49 500.365 2410.21 499.264 2408.33 492.737 2406.31 485.86 2404.29 478.982 2401.58 469.754 2400.29 465.353 2399 460.951 2395.86 450.373 2393.31 441.845 2388.41 425.458 2386.16 417.745 2382.96 406.333 2381.88 402.482 2380.33 397.305 2379.51 394.829 2378.1 390.552 2377.24 387.646 2372.58 371.321 2371.48 367.47 2369.79 361.618 2368.81 358.316 2366.5 350.49 2362.19 335.999 2359.75 327.806 2358.68 324.23 2356.88 318.153 2355.74 314.302 2352.56 303.549 2351.37 300.487 2350.22 300.104 2349.15 299.747 2348.49 300.713 2336.33 320.304 2332.57 326.356 2326.53 336.008 2322.9 341.753 2319.27 347.498 2316.11 352.651 2315.9 353.202 2315.68 353.754 2313.16 357.831 2310.3 362.263 2301.36 376.136 2296.52 384.289 2296.6 385.326 2296.81 387.923 2301.88 462.274 2302.84 476.857 2303.44 485.935 2304.34 498.764 2304.84 505.367 2305.34 511.969 2306 523.448 2306.3 530.875 2306.61 538.303 2307.28 545.73 2307.79 547.381 2308.3 549.031 2308.97 556.009 2309.28 562.886 2309.59 569.763 2311.4 598.573 2313.3 626.908 2315.2 655.242 2318.1 699.582 2319.75 725.441 2321.4 751.3 2323.04 775.383 2323.41 778.959 2323.78 782.536 2324.24 789.963 2324.43 795.465 2325 811.628 2325.49 821.422 2327.64 859.987 2328.76 880.069 2330.39 911.354 2331.27 929.51 2332.15 947.666 2333.99 985.443 2335.36 1013.46 2336.97 1046.18 2337.51 1064.74 2336.89 1065.36 2335.35 1066.9 2256 1064.55 2246.78 1062.69 2242.65 1061.85 2230.06 1059.55 2218.8 1057.56 2207.54 1055.58 2194.49 1052.9 2189.8 1051.61 2185.1 1050.32 2178.79 1048.69 2175.77 1048 2172.74 1047.3 2167.11 1045.91 2163.26 1044.9 2159.41 1043.9 2153.11 1042.34 2149.26 1041.44 2145.41 1040.54 2140.39 1039.14 2138.11 1038.33L2133.96 1036.85 2133.29 1019.19C2132.92 1009.48 2132.2 1000.18 2131.7 998.534 2131.2 996.883 2130.59 987.88 2130.34 978.527 2130.1 969.174 2129.15 951.168 2128.25 938.513 2126.73 917.198 2113.98 715.178 2113.16 699.432 2112.96 695.581 2112.78 689.729 2112.76 686.428 2112.74 683.127 2112.3 679.075 2111.78 677.425 2111.26 675.774 2110.58 669.472 2110.27 663.42 2109.96 657.368 2109.46 649.941 2109.16 646.915 2107.96 634.93 2096.73 488.673 2096.21 478.357 2095.9 472.305 2095.25 466.003 2094.75 464.352 2094.25 462.702 2093.6 456.625 2093.31 450.848 2092.13 427.046 2090.55 414.583 2080.65 351.314 2077.77 332.939 2077.8 333.151 2077.18 329.557 2076.88 327.769 2076.23 323.605 2075.74 320.304 2075.26 317.003 2074.35 311.151 2073.73 307.299 2073.11 303.448 2072.22 297.724 2071.75 294.581 2070.25 284.441 2069.44 284.438 2064.32 294.549M1675.84 489.611C1670.31 495.173 1666.61 502.314 1663.64 513.189 1660.41 524.992 1661.38 525.386 1670.42 515.952 1679.68 506.273 1681.5 505.855 1689.13 511.64 1704.1 522.978 1718.95 550.326 1724.82 577.391 1729.48 598.837 1730.81 614.664 1730.76 647.665 1730.72 666.74 1731.07 678.925 1731.65 678.925 1735.06 678.925 1738.15 670.082 1740.21 654.424 1741.24 646.662 1740.93 608.641 1739.74 596.397 1738.02 578.655 1736.68 567.668 1735.72 563.386 1735.22 561.185 1734.07 555.645 1733.15 551.073 1728.58 528.295 1720.34 510.048 1709.26 498.149 1700.85 489.123 1693.28 484.859 1685.65 484.859 1680.92 484.859 1680.24 485.188 1675.84 489.611M1657.67 552.069C1656.5 556.093 1655.13 560.69 1654.61 562.285 1653.15 566.739 1653.47 569.829 1655.66 572.616 1656.76 574.016 1657.66 575.979 1657.66 576.979 1657.66 577.979 1658.06 579.832 1658.56 581.095 1659.05 582.359 1660.04 585.419 1660.75 587.895 1662.57 594.211 1672.2 616.732 1680.43 633.91 1686.64 646.888 1688.89 651.778 1691.72 658.418 1693.5 662.572 1695.67 671.405 1695.67 674.451 1695.67 678.243 1693.58 680.342 1687.74 682.4 1671.3 688.203 1653.55 678.805 1644.34 659.419 1639.76 649.787 1637.65 641.596 1632.62 613.903 1628.2 589.533 1624.6 577.636 1615.92 558.646 1610.75 547.334 1609.91 547.945 1606.18 565.702 1604.11 575.585 1604.16 576.139 1608.09 590.15 1617.5 623.664 1619.13 632.265 1619.14 648.415 1619.15 660.698 1619 661.742 1616.3 667.229 1608.63 682.858 1588.76 693.787 1573.32 690.872 1563.12 688.947 1555.85 682.297 1552.04 671.423 1549.19 663.263 1548.99 641.65 1551.59 623.485 1554.16 605.616 1555.21 587.657 1553.96 582.975 1552.7 578.214 1550.37 576.929 1547.55 579.433 1539.91 586.218 1533.8 603.281 1527.68 634.91 1526.57 640.687 1525.21 647.44 1524.67 649.915 1524.14 652.391 1522.49 660.494 1521.02 667.922 1517.11 687.638 1512.98 695.672 1504.54 699.976 1497.77 703.434 1490.81 701.935 1484.98 695.759 1475.97 686.222 1471.45 666.913 1471.21 636.996 1471.15 629.17 1470.75 625.453 1469.94 625.181 1466.7 624.097 1463.58 640.296 1464.12 655.417 1465.1 682.991 1471.97 703.11 1484.35 714.632 1494.48 724.068 1508.04 724.338 1515.52 715.253 1522.23 707.12 1523.62 701.719 1531.66 652.917 1533.33 642.738 1535.64 631.259 1536.78 627.408 1539.42 618.527 1543.38 610.646 1544.94 611.183 1546.55 611.739 1546.06 617.992 1543.01 635.911 1538.51 662.295 1539.83 684.964 1546.7 699.432 1550.56 707.574 1554.42 711.954 1560.79 715.423 1568.24 719.487 1580.21 720.136 1589.54 716.983 1600.81 713.17 1611.13 704.75 1617.16 694.431 1621.26 687.423 1626.65 668.841 1626.65 661.729 1626.65 657.306 1628.48 657.551 1629.71 662.141 1637.13 689.841 1647.17 705.107 1662.06 711.328 1667.86 713.752 1679.67 713.485 1684.91 710.811 1694.63 705.853 1699.44 697.707 1704.64 677.425 1706.09 671.734 1705.85 655.406 1704.21 648.915 1701.48 638.098 1699.82 634.012 1687.94 608.902 1680.85 593.893 1674.66 579.468 1674.66 577.911 1674.66 577.063 1675.52 576.89 1677.4 577.36 1682.01 578.517 1683.67 578.318 1683.67 576.606 1683.67 574.965 1662.51 545.663 1660.95 545.143 1660.24 544.907 1658.95 547.631 1657.67 552.069M1576.01 574.666C1574.48 575.638 1571.64 582.59 1571.64 585.361 1571.64 586.584 1572.6 588.442 1573.76 589.49 1574.93 590.538 1577.9 594.221 1580.37 597.673 1587.27 607.33 1590.75 617.948 1590.83 629.659 1590.86 634.05 1591.25 635.911 1592.15 635.911 1594.32 635.911 1594.65 633.267 1594.06 620.604 1593.23 602.607 1590.28 591.907 1583.55 582.393 1578.56 575.337 1577.18 573.923 1576.01 574.666M1630.16 716.618C1607.44 721.707 1587.71 742.512 1583.61 765.679 1582.48 772.061 1582.55 773.801 1584.14 780.574 1587.18 793.47 1595.04 807.277 1604.78 816.814 1607.68 819.652 1610.41 821.974 1610.85 821.974 1612.86 821.974 1611.36 825.136 1608.9 826.096 1597.2 830.654 1582.87 831.312 1575.64 827.623 1567.03 823.224 1562.2 813.824 1564.37 805.681 1565.2 802.591 1565.13 801.706 1564.01 801.278 1561.85 800.449 1560.24 802.299 1552.12 814.935 1543.42 828.481 1540.08 831.367 1527.63 836.111 1525.56 836.9 1520.05 837.444 1514.13 837.444 1505.24 837.444 1503.5 837.138 1498.45 834.672 1491.82 831.436 1484.81 824.229 1476.15 811.746 1472.86 807.01 1468.88 802.371 1467.3 801.438 1456.28 794.924 1435.73 814.092 1421.96 843.733 1419.46 849.097 1416.73 855.06 1415.89 856.986 1408.59 873.586 1400.08 887.098 1394.35 891.182 1384.28 898.365 1370.94 888.318 1363.92 868.27 1362.01 862.804 1361.48 839.428 1362.96 825.225 1363.7 818.032 1363.61 816.972 1362.24 816.972 1359.44 816.972 1357.76 822.416 1355.15 839.906 1351.45 864.796 1354.62 880.412 1367.33 899.734 1375.29 911.834 1386.38 916.71 1395.44 912.088 1404.22 907.61 1408.75 900.357 1419.75 873.194 1430.63 846.316 1437.78 835.698 1449.35 829.226 1450.59 828.539 1453.81 827.976 1456.52 827.976L1461.45 827.976 1469.79 837.15C1488.57 857.814 1492.5 860.618 1505.85 862.891 1513.56 864.205 1518.69 863.321 1527.63 859.131 1534.06 856.121 1546.89 843.814 1551.11 836.62 1552.63 834.019 1554.34 832.045 1554.91 832.234 1555.48 832.422 1556.56 835.004 1557.32 837.972 1559.05 844.733 1562.38 849.161 1568.4 852.687 1572.38 855.023 1574.14 855.419 1580.12 855.329 1594.5 855.113 1626.3 844.009 1667.32 824.885 1675.43 821.1 1684.58 816.885 1692.17 813.431 1723.87 799.003 1721.81 800.543 1729.19 785.696 1735.32 773.356 1735.03 773.374 1706.67 787.16 1682.56 798.879 1664.45 806.112 1654.49 808.002 1639.35 810.874 1620.65 800.309 1607.96 781.716 1599.52 769.354 1594.96 756.692 1597.74 753.34 1600.36 750.18 1610.85 745.999 1629.66 740.617 1645.28 736.146 1649.88 735.443 1663.16 735.495 1674.68 735.542 1677.07 735.861 1684.07 738.295 1695.42 742.247 1697.05 739.524 1687.36 732.786 1671.03 721.431 1655.5 715.867 1640.66 716.06 1635.98 716.12 1631.26 716.372 1630.16 716.618M2703.51 725.92C2702.06 728.109 2700.87 730.142 2700.87 730.437 2700.87 731.302 2693.44 742.415 2692.62 742.78 2692.21 742.964 2691.87 743.494 2691.87 743.958 2691.87 744.422 2686.92 752.48 2680.87 761.865 2674.82 771.248 2669.87 779.176 2669.87 779.484 2669.87 779.792 2669.41 780.588 2668.85 781.252 2667.12 783.319 2658.86 796.09 2658.86 796.699 2658.86 797.017 2657.71 798.785 2656.31 800.628 2654.9 802.471 2654.03 804.426 2654.36 804.971 2655.17 806.269 2687.84 827.976 2688.99 827.976 2689.47 827.976 2689.87 828.355 2689.87 828.819 2689.87 829.282 2691.44 830.51 2693.37 831.547 2695.3 832.584 2696.87 833.78 2696.87 834.205 2696.87 834.63 2697.32 834.978 2697.87 834.978 2698.42 834.978 2703.03 837.792 2708.12 841.23 2713.21 844.67 2718.13 847.933 2719.04 848.483 2719.96 849.033 2725.47 852.747 2731.29 856.736 2737.11 860.724 2742.5 863.988 2743.26 863.988 2744.02 863.988 2744.91 863.2 2745.24 862.238 2745.96 860.085 2748.64 855.518 2751.63 851.326 2752.87 849.592 2753.88 847.681 2753.88 847.079 2753.88 846.475 2754.26 845.982 2754.71 845.982 2755.17 845.982 2756.18 844.746 2756.96 843.235 2757.74 841.725 2760.3 837.723 2762.63 834.343 2764.97 830.963 2766.88 827.958 2766.88 827.665 2766.88 827.088 2775.22 814.244 2776.88 812.263 2777.43 811.598 2777.89 810.36 2777.89 809.512 2777.89 808.663 2778.26 807.969 2778.72 807.969 2779.18 807.969 2780.19 806.733 2780.97 805.222 2781.75 803.712 2784.3 799.71 2786.64 796.33 2788.98 792.95 2790.89 789.879 2790.89 789.507 2790.89 789.134 2792.05 787.303 2793.48 785.438 2794.9 783.573 2795.78 781.59 2795.44 781.032 2794.6 779.682 2775.93 766.955 2774.78 766.955 2774.29 766.955 2773.89 766.556 2773.89 766.069 2773.89 765.582 2772.42 764.446 2770.64 763.547 2767.64 762.041 2749.96 750.294 2747.17 747.961 2746.51 747.403 2745.71 746.948 2745.4 746.948 2745.09 746.948 2739.03 742.897 2731.93 737.945 2724.84 732.994 2718.77 728.942 2718.46 728.942 2718.14 728.942 2715.69 727.367 2713.01 725.441 2710.33 723.516 2707.69 721.94 2707.14 721.94 2706.59 721.94 2704.95 723.731 2703.51 725.92M1412.84 724.666C1410.31 724.979 1408.47 726.398 1404.66 730.974 1399.54 737.133 1393.61 745.397 1393.61 746.378 1393.61 746.693 1397.32 746.952 1401.86 746.957 1410.38 746.966 1432.78 749.29 1435.87 750.486 1437.66 751.18 1438.34 753.951 1436.72 753.951 1436.22 753.951 1431.16 756.156 1425.47 758.851 1419.77 761.547 1411.68 765.33 1407.48 767.256 1394.37 773.275 1396.05 774.967 1412.7 772.532 1432 769.71 1440.2 765.899 1448.73 755.787 1457.21 745.735 1460.29 739.757 1459.22 735.477 1458.05 730.803 1452.08 728.54 1433 725.535 1423.15 723.984 1419.59 723.83 1412.84 724.666M1507.06 766.545C1502.7 771.298 1498.8 775.754 1498.4 776.449 1497.56 777.894 1514.52 793.964 1516.88 793.964 1518.44 793.964 1532.93 778.537 1533.46 776.317 1533.73 775.195 1517.9 759.048 1515.69 758.177 1515.3 758.027 1511.42 761.792 1507.06 766.545M1541.05 866.058C1534.55 877.532 1534.4 876.737 1544.14 882.01 1547.44 883.798 1550.59 885.602 1551.14 886.021 1551.69 886.44 1553.92 887.777 1556.1 888.992L1560.07 891.202 1562.1 888.645C1563.22 887.237 1565.03 884.378 1566.11 882.289 1567.19 880.202 1569.11 876.926 1570.36 875.01 1571.62 873.094 1572.64 871.069 1572.63 870.508 1572.63 869.435 1549.64 855.985 1547.81 855.985 1547.23 855.985 1544.18 860.518 1541.05 866.058M1627.33 862.524C1613 867.372 1599.98 877.73 1584.71 896.427 1579.12 903.267 1567.44 920.626 1564.18 926.932 1563.31 928.626 1561.99 930.011 1561.25 930.011 1558.4 930.011 1549.99 921.936 1546.14 915.504 1539.39 904.244 1537.09 901.999 1532.28 902.011 1520 902.04 1500.67 919.479 1489.9 940.246 1481.99 955.493 1479.42 972.707 1483.82 980.956 1488.49 989.707 1503.36 995.685 1524.8 997.439 1539.54 998.643 1553.9 1002.95 1555.3 1006.59 1556.55 1009.84 1551.15 1014.7 1538.06 1022.1 1532.47 1025.26 1506.93 1038.05 1506.21 1038.05 1505.88 1038.05 1503.7 1038.93 1501.37 1040 1482.98 1048.48 1461.69 1054.41 1442.08 1056.51 1418.28 1059.07 1402.35 1055.52 1388.39 1044.56 1372.93 1032.42 1365.87 1015.77 1366.82 993.732 1367.19 985.13 1367.92 981.575 1371.43 971.084 1373.73 964.239 1375.6 957.825 1375.6 956.83 1375.6 952.2 1369.29 957.576 1366.56 964.526 1359.7 982.02 1355.6 999.933 1355.6 1012.4 1355.6 1031.8 1362.05 1050.11 1373 1061.82 1383.72 1073.28 1393.97 1078.75 1410.04 1081.6 1426.7 1084.54 1451.41 1082.13 1471.12 1075.63 1487.31 1070.29 1504.2 1062.72 1517.63 1054.78 1529.43 1047.81 1552.91 1031.49 1555.89 1028.19 1563.54 1019.72 1567.6 1008.85 1567.63 996.751 1567.65 989.5 1565.95 985.388 1561.25 981.26 1554.87 975.651 1545.24 972.812 1526.63 971.05 1507.43 969.233 1493.26 964.378 1491.95 959.167 1491 955.379 1494.04 950.877 1504.04 941.253 1514.62 931.076 1521.82 926.738 1527.37 927.198 1530.81 927.485 1531.44 928.05 1535.12 934.176 1539.46 941.38 1544.51 947.302 1549.12 950.585L1552.03 952.651 1550.25 958.298C1547.04 968.519 1549.23 970.49 1554.58 962.191 1557.29 957.981 1558.45 956.961 1560.08 957.346 1561.21 957.615 1564.84 958.528 1568.14 959.376 1580.53 962.558 1590.35 963.15 1604.21 961.553 1625.85 959.059 1639.14 955.442 1655.14 947.692 1672.1 939.473 1679.36 930.934 1685.07 912.505 1687.93 903.285 1688.1 897.136 1685.66 890.668 1680.22 876.214 1655.25 860.391 1637.66 860.245 1635.73 860.229 1631.09 861.254 1627.33 862.524M1716.3 875.783C1715.6 876.913 1713.02 888.624 1712.21 894.337 1711.71 897.867 1711.9 899.627 1712.94 900.839 1713.71 901.753 1715.59 906.103 1717.11 910.504 1718.63 914.905 1725 928.559 1731.27 940.846 1737.55 953.132 1742.68 963.762 1742.68 964.467 1742.68 970.281 1704.91 994.392 1661.16 1016.5 1625.59 1034.48 1604.76 1043.31 1554.64 1061.62 1517.36 1075.24 1515.27 1076.16 1517.19 1077.96 1518.07 1078.78 1522.66 1078.21 1552.14 1073.57 1568.44 1071 1587.75 1067.99 1593.65 1067.09 1610.34 1064.55 1614.83 1063.28 1629.66 1056.95 1638.51 1053.16 1659.67 1042.51 1670.2 1036.55 1675.54 1033.52 1680.1 1031.04 1680.32 1031.04 1680.53 1031.04 1682.39 1029.99 1684.44 1028.71 1686.49 1027.42 1692.67 1023.72 1698.17 1020.48 1729.02 1002.33 1738.32 994.349 1745.33 980.012 1749.3 971.889 1752.68 959.008 1752.68 951.985 1752.68 946.693 1748.97 935.377 1744.26 926.321 1733.99 906.575 1732.3 903.047 1732.82 902.526 1733.12 902.225 1735.32 902.668 1737.7 903.51 1742.66 905.26 1744.7 904.298 1742.54 901.228 1741.79 900.158 1736.32 893.818 1730.39 887.138 1720.45 875.951 1717.61 873.661 1716.3 875.783M1621.55 886.388C1611.44 889.303 1601.64 896.422 1589.62 909.59 1580.71 919.349 1571.13 932.893 1572.3 934.067 1575.75 937.519 1612.62 937.834 1627.65 934.54 1643.44 931.082 1668.82 920.804 1673.01 916.179 1674.68 914.332 1674.7 913.965 1673.23 911.131 1672.36 909.451 1669.16 905.605 1666.12 902.587 1652.8 889.371 1634.4 882.683 1621.55 886.388M1422.11 953.659C1417.71 958.412 1413.98 962.851 1413.81 963.523 1413.65 964.195 1416.77 967.845 1420.74 971.636 1424.71 975.426 1428.77 979.309 1429.77 980.266 1431.51 981.93 1431.95 981.634 1439.86 973.412 1444.4 968.686 1448.43 964.268 1448.82 963.594 1449.48 962.437 1432.64 945.016 1430.86 945.016 1430.44 945.016 1426.5 948.905 1422.11 953.659M1429.97 996.583C1425.65 1001.29 1421.96 1005.59 1421.76 1006.14 1421.35 1007.32 1438.02 1024.04 1439.61 1024.04 1440.2 1024.04 1443.08 1021.45 1446 1018.29 1456.32 1007.14 1458.02 1004.9 1456.81 1004.15 1456.18 1003.76 1452.1 999.971 1447.76 995.734 1443.42 991.497 1439.41 988.03 1438.85 988.03 1438.29 988.03 1434.29 991.88 1429.97 996.583M2038.2 1106.12C2037.83 1106.72 2037.82 1128.22 2038.18 1153.91 2038.8 1198.25 2038.72 1201.26 2036.74 1213.61 2035.58 1220.76 2034.27 1229.31 2033.82 1232.61 2033.16 1237.42 2024.06 1263.28 2019.74 1272.63 2019.23 1273.73 2017.17 1279.13 2015.15 1284.63 2010.46 1297.44 2008.4 1301.46 2005.54 1303.37 2004.27 1304.22 2001.88 1306.12 2000.23 1307.59 1981.27 1324.54 1940.89 1357.86 1936.66 1360.04 1926.83 1365.12 1919.95 1369.17 1919 1370.43 1918.44 1371.17 1918.36 1379.8 1918.8 1392.17 1919.77 1419.48 1919.71 1457.64 1918.65 1473.7 1918.18 1480.85 1917.35 1494.58 1916.8 1504.21 1916.25 1513.83 1915.3 1525.99 1914.68 1531.21 1914.07 1536.44 1913.19 1544.77 1912.73 1549.72 1911.94 1558.18 1909.37 1574.6 1904.67 1601.24 1902.11 1615.71 1898.13 1633.09 1895.73 1640.25 1894.71 1643.28 1891.98 1651.83 1889.66 1659.26 1885.02 1674.13 1878.37 1690.41 1873.06 1699.94 1867.27 1710.33 1859.76 1715.5 1854.92 1712.43 1852.95 1711.18 1852.36 1694.22 1853.57 1673.76 1854.16 1663.86 1855.36 1643.6 1856.24 1628.75 1857.56 1606.37 1857.74 1587.83 1857.3 1520.71 1856.79 1444.76 1856.14 1406.28 1855.35 1405.49 1855.02 1405.16 1846.32 1409.57 1830.58 1418.06 1826.38 1420.31 1799.38 1431.19 1770.56 1442.23 1741.75 1453.27 1714.8 1463.63 1710.67 1465.25 1704.06 1467.85 1694.37 1470.05 1675.66 1473.23 1672.64 1473.75 1663.64 1475.5 1655.66 1477.12 1647.68 1478.74 1635.76 1481.04 1629.15 1482.22 1622.55 1483.41 1615.85 1484.79 1614.25 1485.29 1612.66 1485.79 1610.16 1486.2 1608.71 1486.2 1607.26 1486.2 1603.6 1486.84 1600.58 1487.63 1596.87 1488.6 1584.02 1489.42 1561.11 1490.18 1531.73 1491.14 1525.11 1491.07 1512.13 1489.71 1503.88 1488.84 1495.1 1487.94 1492.63 1487.72 1490.15 1487.5 1483.4 1486.82 1477.62 1486.22 1462.13 1484.6 1462.6 1484.42 1460.53 1492.7 1459.57 1496.55 1458.08 1502.18 1457.22 1505.21 1455.53 1511.13 1452.04 1523.53 1450.47 1529.21 1448.54 1536.19 1446.82 1546.96 1445.75 1558.72 1445.16 1565.33 1443.96 1577.93 1443.09 1586.73L1441.51 1602.74 1444.47 1614.74C1451.23 1642.15 1455.69 1658.87 1456.72 1660.65 1457.32 1661.68 1458.61 1663.93 1459.6 1665.65 1460.58 1667.36 1464.42 1673.71 1468.14 1679.77 1471.85 1685.82 1475.61 1691.98 1476.5 1693.45 1490.26 1716.24 1488.56 1714.23 1508.15 1730.94 1527.54 1747.49 1532.11 1750.83 1548.79 1760.7 1567.93 1772.03 1568.02 1772.07 1600.15 1780.3 1611.15 1783.12 1623.3 1786.26 1627.15 1787.27 1633.4 1788.91 1640.47 1789.18 1692.67 1789.79 1731.13 1790.24 1753.24 1790.13 1757.18 1789.45 1760.48 1788.89 1769.93 1787.05 1778.19 1785.36 1786.44 1783.67 1795.66 1781.84 1798.69 1781.29 1801.72 1780.74 1808.92 1779.34 1814.69 1778.19 1820.47 1777.03 1826.32 1775.88 1827.7 1775.64 1829.07 1775.39 1832 1774.78 1834.2 1774.29 1836.4 1773.79 1843.37 1772.41 1849.7 1771.21 1856.03 1770.02 1864.13 1767.94 1867.7 1766.58 1871.28 1765.23 1875.78 1763.53 1877.71 1762.8 1879.63 1762.07 1885.03 1760.04 1889.71 1758.29 1897.33 1755.44 1902.1 1753.63 1908.21 1751.28 1910.12 1750.54 1929.63 1743.18 1940.22 1739.19 1957.32 1732.76 1960.48 1731.2 1976.73 1721.16 1979.2 1719.63 1984.83 1716.32 1989.23 1713.79 1993.63 1711.26 1998.58 1708.37 2000.23 1707.36 2002.78 1705.79 2010.8 1701.11 2018.23 1696.84 2019.33 1696.21 2022.86 1694.14 2026.08 1692.23 2029.29 1690.33 2033.74 1687.71 2035.97 1686.41 2038.2 1685.11 2046.15 1679.68 2053.64 1674.34 2061.12 1669.01 2070.7 1662.24 2074.93 1659.31 2083.42 1653.42 2084.29 1651.98 2085.18 1642.25 2085.8 1635.56 2083.94 1539.74 2080.8 1416.68 2079.82 1378.16 2078.71 1329.32 2078.33 1308.14 2077.95 1286.96 2077.23 1268.28 2076.71 1266.62 2076.2 1264.97 2075.59 1253.05 2075.36 1240.12 2074.95 1217.64 2070.22 1126.79 2069.33 1124.46 2069.1 1123.84 2065.83 1121.63 2062.07 1119.54 2058.32 1117.44 2052.08 1113.65 2048.22 1111.11 2044.37 1108.56 2040.68 1106.16 2040.04 1105.76 2039.4 1105.36 2038.57 1105.53 2038.2 1106.12M2537.34 1124.77C2532.39 1126.15 2520.69 1129.24 2511.33 1131.63 2501.98 1134.02 2488.03 1137.59 2480.33 1139.56 2467.85 1142.75 2449.26 1145.65 2425.32 1148.14 2415.2 1149.19 2409.89 1150.13 2409.46 1150.95 2409.27 1151.3 2410.2 1172.97 2411.53 1199.1 2412.86 1225.24 2414.12 1255.4 2414.33 1266.12 2414.54 1276.85 2415.17 1287.88 2415.73 1290.63 2416.28 1293.38 2417.43 1315.67 2418.28 1340.15 2422.74 1468.13 2423.95 1494.68 2425.36 1496.14 2426.5 1497.31 2432.81 1497.64 2460.04 1497.96 2478.88 1498.18 2497.89 1497.9 2503.83 1497.31 2509.61 1496.74 2521.31 1495.59 2529.84 1494.76 2538.36 1493.93 2546.24 1492.82 2547.34 1492.3 2548.44 1491.78 2551.27 1491.13 2553.63 1490.87 2561.44 1489.98 2560.85 1496.2 2560.81 1415.8 2560.78 1353.95 2560.57 1343.37 2559.31 1341.71 2558.07 1340.07 2557.84 1333.12 2557.84 1297.5 2557.84 1270.41 2557.48 1255.02 2556.84 1254.62 2556.21 1254.23 2555.84 1243.31 2555.84 1225.17 2555.84 1200.42 2555.62 1196.16 2554.3 1195.07 2552.98 1193.97 2552.78 1190.15 2552.89 1168.33 2552.99 1151.06 2552.68 1142.52 2551.94 1141.78 2551.3 1141.14 2550.84 1136.78 2550.84 1131.38 2550.84 1120.42 2551.6 1120.79 2537.34 1124.77M2140.09 1154.34C2140.44 1161.08 2142.07 1193.6 2143.7 1226.61 2145.34 1259.62 2146.96 1290.68 2147.31 1295.63 2148.15 1307.53 2148.97 1329.06 2149.3 1347.83 2149.45 1356.18 2149.82 1364.28 2150.13 1365.84 2150.43 1367.39 2150.97 1381.26 2151.33 1396.67 2151.68 1412.07 2152.16 1428.73 2152.38 1433.68 2153.59 1460.19 2156.77 1574.43 2157.34 1611.24 2157.89 1647.78 2158.33 1656.5 2160.44 1673.26 2161.79 1683.99 2163.11 1696.1 2163.38 1700.18 2163.64 1704.26 2164.26 1708.34 2164.76 1709.26 2165.25 1710.18 2165.75 1713.52 2165.88 1716.69 2166.01 1719.86 2167.86 1728.83 2169.99 1736.62 2172.12 1744.41 2174.54 1753.26 2175.37 1756.29 2179.59 1771.8 2181.42 1776.31 2184.72 1779.3 2185.03 1779.57 2188.48 1784.08 2192.39 1789.3 2196.3 1794.53 2201.38 1800.16 2203.67 1801.81 2205.97 1803.46 2209.75 1806.25 2212.09 1808.02 2216.15 1811.1 2217.09 1811.32 2234.8 1813.42 2255.37 1815.85 2259.16 1815.93 2282.7 1814.36 2294.99 1813.54 2301.27 1812.62 2307.7 1810.7 2312.43 1809.29 2317.19 1807.91 2318.29 1807.64 2319.39 1807.37 2321.19 1806.77 2322.3 1806.31 2325.48 1804.99 2334.56 1802.31 2335.83 1802.31 2337.66 1802.31 2368.58 1781.32 2369.23 1779.64 2369.55 1778.81 2369.12 1755.77 2368.28 1728.44 2363.95 1587.99 2364.04 1590.03 2362.65 1588.79 2361.91 1588.13 2357.48 1586.58 2352.8 1585.34 2348.13 1584.1 2343.52 1582.67 2342.56 1582.16 2341.61 1581.65 2340.14 1581.23 2339.3 1581.23 2338.46 1581.23 2336.99 1580.82 2336.03 1580.33 2334.57 1579.56 2327.56 1576.61 2319.29 1573.28 2315.29 1571.67 2312.19 1570.13 2307.29 1567.31 2304.54 1565.72 2300.72 1563.62 2298.79 1562.63 2295.23 1560.81 2287.7 1556.16 2286.79 1555.23 2286.51 1554.95 2282.69 1552.05 2278.29 1548.77 2273.89 1545.5 2267.07 1539.76 2263.14 1536.02 2259.21 1532.28 2255.5 1529.21 2254.89 1529.21 2254.28 1529.21 2253.78 1528.7 2253.78 1528.07 2253.78 1527.44 2251.64 1524.46 2249.03 1521.45 2246.42 1518.44 2241.92 1512.76 2239.04 1508.84 2236.16 1504.91 2233.35 1501.16 2232.79 1500.5 2232.23 1499.83 2231.78 1498.97 2231.78 1498.57 2231.78 1498.18 2231.16 1497.15 2230.41 1496.28 2228.46 1494.04 2215.37 1468.35 2213.49 1463.09 2212.63 1460.67 2210.97 1456.21 2209.81 1453.19 2208.65 1450.16 2207.02 1444.76 2206.18 1441.18 2205.35 1437.61 2203.98 1431.76 2203.14 1428.18 2202.3 1424.6 2201.45 1420.1 2201.24 1418.18 2201.03 1416.25 2200.41 1411.3 2199.86 1407.17 2199.31 1403.05 2198.84 1396.66 2198.81 1392.98 2198.79 1389.3 2198.32 1386.01 2197.77 1385.67 2197.15 1385.28 2196.77 1376.51 2196.77 1362.66 2196.77 1348.81 2197.15 1340.03 2197.77 1339.65 2198.32 1339.31 2198.81 1335.57 2198.86 1331.34 2199.03 1316.08 2202.95 1283.69 2204.87 1281.68 2205.36 1281.16 2205.77 1279.25 2205.77 1277.44 2205.77 1275.63 2206.93 1269.76 2208.34 1264.39 2209.75 1259.02 2212.25 1249.49 2213.89 1243.21 2215.54 1236.94 2217.47 1230.64 2218.19 1229.21 2218.91 1227.78 2222.01 1219.18 2225.07 1210.11 2232.28 1188.74 2232.8 1187.45 2240.69 1171 2243.49 1165.17 2245.78 1160.17 2245.78 1159.88 2245.78 1158.7 2232.95 1157.06 2212.14 1155.59 2196.29 1154.47 2187.34 1153.35 2180.63 1151.64 2175.48 1150.33 2165.05 1147.64 2157.46 1145.67 2149.86 1143.7 2142.71 1142.08 2141.55 1142.08 2139.5 1142.08 2139.47 1142.35 2140.09 1154.34M2336.31 1158.91C2336.04 1159.17 2328.73 1160.21 2320.06 1161.21 2306.29 1162.79 2302.18 1162.88 2287.58 1161.9 2268.99 1160.65 2268.3 1160.81 2267.22 1166.58 2266.69 1169.42 2264.08 1177.3 2257.46 1196.1 2256.58 1198.58 2254.91 1203.98 2253.73 1208.1 2252.55 1212.23 2251.18 1216.73 2250.67 1218.11 2249.72 1220.74 2247.4 1230.52 2245.35 1240.62 2244.68 1243.92 2243.86 1247.29 2243.53 1248.12 2243.19 1248.94 2242.41 1254.35 2241.79 1260.12 2241.16 1265.9 2240.42 1271.75 2240.13 1273.13 2237.33 1286.68 2237.05 1331.49 2239.73 1337.65 2240.2 1338.75 2241.08 1343.93 2241.67 1349.15 2242.26 1354.38 2243.37 1360.46 2244.14 1362.66 2244.92 1364.86 2246.55 1369.81 2247.77 1373.66 2249.69 1379.71 2260.16 1401.74 2261.81 1403.17 2262.12 1403.45 2263.66 1405.92 2265.23 1408.67 2271.07 1418.93 2291.08 1440.74 2303.04 1449.88 2313.72 1458.04 2316.15 1459.84 2318.61 1461.4 2324 1464.82 2341.37 1474 2343.8 1474.71 2345.17 1475.11 2346.75 1475.76 2347.3 1476.15 2347.85 1476.53 2350.49 1477.66 2353.16 1478.65 2357.24 1480.16 2358.18 1480.23 2358.93 1479.07 2359.42 1478.32 2359.54 1476.8 2359.19 1475.7 2358.42 1473.29 2358.05 1466.47 2352.83 1358.16 2350.58 1311.67 2348.08 1261.47 2347.27 1246.62 2346.45 1231.76 2345.76 1218.93 2345.74 1218.11 2345.38 1204.09 2343.58 1163.04 2343.25 1161.45 2342.95 1159.98 2341.88 1159.18 2339.8 1158.88 2338.14 1158.63 2336.57 1158.65 2336.31 1158.91M2739.88 1177.36C2737.95 1180.24 2736.2 1183.01 2735.99 1183.52 2735.77 1184.03 2732.28 1189.55 2728.24 1195.79 2724.19 1202.02 2720.88 1207.53 2720.88 1208.03 2720.88 1208.53 2720.54 1209.09 2720.13 1209.27 2719.04 1209.75 2711.87 1220.89 2711.87 1222.09 2711.87 1222.65 2711.42 1223.11 2710.87 1223.11 2710.32 1223.11 2709.87 1223.61 2709.87 1224.23 2709.87 1224.84 2708.3 1227.49 2706.37 1230.11 2704.45 1232.74 2702.87 1235.14 2702.87 1235.46 2702.87 1235.78 2700.47 1239.77 2697.53 1244.33 2690.85 1254.69 2690.42 1255.84 2692.92 1256.64 2693.99 1256.98 2694.87 1257.65 2694.87 1258.12 2694.87 1258.6 2695.72 1259.26 2696.75 1259.58 2697.79 1259.91 2699.56 1260.96 2700.69 1261.9 2702.42 1263.35 2723.44 1277.41 2728.72 1280.65 2730.89 1281.98 2751.07 1295.41 2752.38 1296.39 2756.76 1299.69 2767 1306.14 2767.84 1306.14 2768.42 1306.14 2768.89 1306.49 2768.89 1306.92 2768.89 1307.35 2770.35 1308.57 2772.14 1309.62 2773.92 1310.67 2775.98 1312.12 2776.71 1312.83 2778.48 1314.58 2779.58 1314.48 2781.46 1312.39 2783.6 1310 2799.89 1284.24 2799.89 1283.24 2799.89 1282.8 2800.79 1281.62 2801.89 1280.63 2802.99 1279.63 2803.89 1278.41 2803.89 1277.91 2803.89 1277.41 2805.02 1275.52 2806.39 1273.72 2807.77 1271.91 2808.89 1269.99 2808.89 1269.44 2808.89 1268.89 2809.79 1267.62 2810.89 1266.62 2811.99 1265.63 2812.89 1264.45 2812.89 1264.01 2812.89 1263.22 2816.95 1256.72 2818.88 1254.41 2819.44 1253.75 2819.9 1252.97 2819.9 1252.69 2819.9 1252.4 2822.85 1247.6 2826.46 1242.02 2832.5 1232.69 2833.71 1229.11 2830.86 1229.11 2830.25 1229.11 2825.56 1226.19 2820.43 1222.61 2815.3 1219.03 2810.61 1216.11 2810 1216.11 2809.39 1216.11 2808.89 1215.76 2808.89 1215.33 2808.89 1214.91 2807.32 1213.71 2805.39 1212.68 2803.47 1211.64 2801.89 1210.41 2801.89 1209.95 2801.89 1209.48 2801.49 1209.1 2800.99 1209.1 2800.5 1209.1 2794.63 1205.39 2787.96 1200.85 2781.29 1196.31 2775.05 1192.15 2774.1 1191.6 2773.15 1191.05 2767.75 1187.45 2762.09 1183.6 2751.8 1176.59 2744.82 1172.2 2743.88 1172.15 2743.61 1172.14 2741.81 1174.48 2739.88 1177.36M1623.55 1177.94C1614.06 1183.97 1607.86 1195.44 1599.69 1222.11 1594.22 1239.96 1592.98 1244.35 1591.1 1252.43 1587.79 1266.66 1585.32 1266.66 1580.73 1252.45 1577.32 1241.86 1575.8 1238.49 1568.22 1224.62 1558.82 1207.44 1549.03 1196.12 1538.42 1190.19 1533.77 1187.59 1531.58 1186.99 1526.62 1186.96 1519.98 1186.93 1518.73 1187.59 1515.51 1192.79 1512.74 1197.27 1511.62 1212.32 1513.75 1216.31 1515.59 1219.74 1522.33 1225.24 1531.01 1230.4 1537.2 1234.08 1538.85 1234.62 1544.12 1234.64 1547.43 1234.65 1550.67 1235 1551.31 1235.4 1553.77 1236.95 1561.89 1248.75 1565.16 1255.54 1568.92 1263.34 1573.63 1277.18 1573.66 1280.51 1573.68 1281.67 1575.02 1286.42 1576.66 1291.06 1579.61 1299.44 1582.74 1304.14 1585.37 1304.14 1587.89 1304.14 1591.35 1299.21 1592.92 1293.39 1595.58 1283.54 1601.4 1260.96 1603.17 1253.62 1606.82 1238.41 1607.64 1235.38 1609.74 1229.11 1614.7 1214.31 1620.14 1205.85 1626.15 1203.55 1630.23 1201.99 1630.66 1202.01 1634.94 1203.9 1638.02 1205.27 1640.69 1207.59 1643.4 1211.25 1645.57 1214.2 1648.11 1217.24 1649.04 1218.01 1651.87 1220.36 1655.24 1216.08 1658.21 1206.37L1660.77 1197.96 1658.63 1193.54C1655.92 1187.93 1648.86 1181.64 1641.16 1177.96 1633.5 1174.3 1629.3 1174.3 1623.55 1177.94M1064 1237.61C1064 1261.82 1064.13 1271.58 1064.29 1259.3 1064.45 1247.03 1064.45 1227.22 1064.29 1215.29 1064.13 1203.36 1064 1213.41 1064 1237.61M3059.07 1352.79C3036.48 1357.69 3024.89 1374.4 3024.96 1401.98 3025 1415.95 3027.23 1425.34 3032.52 1433.77 3040.22 1446.05 3053.93 1452.25 3073.95 1452.5 3097.02 1452.79 3113.34 1444.51 3120.5 1428.86 3123.41 1422.52 3125.96 1409.85 3125.96 1401.77 3125.96 1393.96 3123.26 1380.93 3120.31 1374.45 3117.21 1367.65 3109.32 1359.84 3102.3 1356.63 3090.99 1351.45 3072.72 1349.83 3059.07 1352.79M1648.16 1527.82C1624.83 1539.75 1590.49 1582.33 1584.13 1607.23 1582.99 1611.66 1582.58 1616.62 1582.81 1622.9 1583.22 1634.08 1584.6 1636.03 1594.54 1639.47 1600.38 1641.49 1603.06 1641.75 1617.65 1641.75 1633.91 1641.75 1635.47 1641.57 1665.66 1636.28 1668.69 1635.74 1675.21 1634.81 1680.17 1634.19 1685.12 1633.58 1694.79 1632.01 1701.67 1630.71 1723.14 1626.65 1729.14 1626.1 1738.6 1627.34 1743.32 1627.95 1749.31 1629.36 1751.91 1630.47 1758.69 1633.35 1768.58 1644.69 1766.3 1646.97 1765.91 1647.36 1762.13 1648.2 1757.89 1648.85 1753.65 1649.49 1745.23 1650.77 1739.18 1651.69 1733.13 1652.6 1724.57 1654.02 1720.17 1654.83 1708.27 1657.04 1703.29 1657.88 1679.17 1661.79 1667.06 1663.75 1653.11 1666.04 1648.16 1666.87 1595.35 1675.76 1579.28 1675.34 1548.64 1664.26 1534.44 1659.13 1530.82 1658.03 1529.51 1658.47 1527.96 1658.98 1538.83 1672.22 1548.29 1681.34 1556.48 1689.24 1562.93 1693.05 1570.6 1694.52 1579.09 1696.16 1590.12 1696.52 1598.15 1695.43 1602.55 1694.83 1610.88 1693.84 1616.65 1693.22 1632.28 1691.56 1653.69 1688.47 1679.33 1684.19 1696.39 1681.34 1708.05 1679.19 1716.67 1677.32 1728.89 1674.66 1744.57 1671.09 1747.8 1670.23 1749.78 1669.7 1752.35 1669.26 1753.51 1669.26 1757.17 1669.26 1766.72 1665.16 1770.23 1662.09 1775.43 1657.52 1779 1649.1 1778.47 1642.66 1777.14 1626.66 1758.93 1608.15 1741.65 1605.24 1732.28 1603.65 1717.23 1605.66 1659.16 1616.24 1652.62 1617.43 1640.19 1618.9 1624.54 1620.32 1605.25 1622.08 1591.65 1619.61 1591.65 1614.35 1591.65 1607.95 1603.01 1589.94 1618.27 1572.13 1628.38 1560.34 1633.85 1555.45 1641.36 1551.5 1650.1 1546.9 1650.99 1546.78 1654.56 1549.79 1656.28 1551.24 1658.26 1552.21 1658.95 1551.94 1660.65 1551.29 1664.09 1539.65 1663.99 1534.9 1663.94 1532.15 1663.13 1530.27 1661.1 1528.15 1657.63 1524.52 1654.75 1524.45 1648.16 1527.82M2885.83 1616.32C2882.17 1618.3 2863.9 1638.26 2863.9 1640.27 2863.9 1640.88 2862.78 1642.86 2861.4 1644.66 2860.03 1646.47 2858.9 1648.47 2858.9 1649.11 2858.9 1649.76 2858.49 1651.06 2857.99 1652.02 2857.48 1652.97 2856.29 1655.56 2855.34 1657.76 2854.39 1659.96 2852.55 1663.03 2851.26 1664.59 2849.96 1666.14 2848.9 1667.97 2848.9 1668.65 2848.9 1669.8 2845.1 1678.54 2842.88 1682.5 2842.34 1683.46 2841.9 1685.3 2841.9 1686.6 2841.9 1687.91 2840.77 1691.09 2839.4 1693.67 2838.02 1696.26 2836.9 1699.68 2836.9 1701.27 2836.9 1702.85 2836.45 1704.43 2835.9 1704.77 2835.35 1705.11 2834.9 1706.63 2834.9 1708.14 2834.9 1709.66 2834.24 1711.77 2833.43 1712.83 2832.62 1713.9 2831.95 1716.18 2831.93 1717.91 2831.91 1719.63 2831.2 1721.62 2830.34 1722.33 2829.2 1723.27 2828.95 1724.61 2829.4 1727.28 2829.85 1729.95 2829.59 1731.29 2828.46 1732.23 2827.6 1732.95 2826.9 1734.84 2826.9 1736.44 2826.9 1738.04 2826.18 1740.45 2825.31 1741.78 2824.29 1743.33 2823.94 1745.22 2824.34 1747.02 2824.73 1748.81 2824.41 1750.55 2823.46 1751.81 2822.46 1753.12 2821.95 1756.17 2821.93 1760.84 2821.91 1764.72 2821.42 1768.38 2820.83 1768.96 2820.24 1769.55 2819.9 1771.76 2820.08 1773.88 2820.38 1777.58 2820.54 1777.73 2824.16 1777.85 2826.23 1777.92 2828.42 1777.37 2829.03 1776.64 2829.64 1775.9 2831.38 1775.3 2832.9 1775.3 2834.41 1775.3 2836.21 1774.62 2836.9 1773.8 2837.58 1772.97 2839.39 1772.3 2840.92 1772.3 2842.46 1772.3 2843.94 1771.63 2844.26 1770.8 2844.59 1769.94 2846.08 1769.3 2847.75 1769.3 2849.35 1769.3 2851.22 1768.62 2851.9 1767.79 2852.59 1766.97 2854.23 1766.29 2855.56 1766.29 2856.89 1766.29 2859.06 1765.58 2860.39 1764.71 2861.73 1763.83 2863.26 1763.39 2863.79 1763.72 2864.33 1764.05 2865.03 1763.9 2865.36 1763.37 2865.68 1762.85 2868.3 1761.25 2871.18 1759.82 2874.05 1758.39 2877.76 1756.34 2879.41 1755.27 2881.06 1754.2 2883.31 1752.91 2884.41 1752.4 2885.51 1751.9 2888.12 1750.32 2890.2 1748.89 2892.29 1747.46 2894.65 1746.29 2895.46 1746.29 2896.26 1746.29 2896.91 1745.84 2896.91 1745.29 2896.91 1744.74 2897.83 1744.29 2898.94 1744.29 2900.06 1744.29 2901.23 1743.61 2901.55 1742.79 2901.87 1741.96 2902.92 1741.29 2903.9 1741.29 2904.87 1741.29 2906.23 1740.61 2906.91 1739.79 2907.6 1738.96 2908.69 1738.28 2909.35 1738.28 2910 1738.28 2911.83 1736.93 2913.41 1735.28 2915 1733.63 2916.81 1732.28 2917.44 1732.28 2918.07 1732.28 2920.03 1730.48 2921.8 1728.28 2923.56 1726.08 2925.63 1724.28 2926.38 1724.28 2927.13 1724.28 2930.26 1721.5 2933.33 1718.11L2938.92 1711.93 2938.92 1700.16C2938.92 1693.39 2938.49 1688.12 2937.92 1687.77 2937.37 1687.43 2936.92 1685.24 2936.92 1682.9 2936.92 1680.56 2936.26 1677.77 2935.45 1676.7 2934.64 1675.64 2933.97 1673.52 2933.95 1672 2933.92 1669.49 2933.25 1667.66 2930.76 1663.26 2930.29 1662.43 2929.64 1661.08 2929.32 1660.26 2928.78 1658.85 2927.18 1655.33 2921.97 1644.07 2920.78 1641.49 2918.14 1637.49 2916.11 1635.17 2914.08 1632.86 2911.63 1630.06 2910.66 1628.95 2909.7 1627.85 2908.91 1626.35 2908.91 1625.62 2908.91 1624.89 2907.58 1623.61 2905.94 1622.76 2904.31 1621.92 2902.49 1620.33 2901.91 1619.23 2901.32 1618.14 2900.15 1617.24 2899.3 1617.24 2898.46 1617.24 2897.09 1616.57 2896.27 1615.74 2894.26 1613.73 2890.19 1613.96 2885.83 1616.32M2509.33 1889.23C2501.71 1893.62 2494.68 1902.52 2491.31 1912.05 2489.82 1916.26 2489.69 1917.74 2490.63 1919.8 2492.42 1923.74 2495.01 1922.95 2497.83 1917.61 2502.03 1909.68 2510.34 1906.11 2516.44 1909.63 2520.61 1912.04 2525.11 1916.47 2524.23 1917.3 2523.74 1917.76 2519.74 1919.04 2515.33 1920.13 2503.2 1923.17 2496.34 1926.74 2489.3 1933.7 2480.75 1942.15 2478.5 1948.09 2478.45 1962.36 2478.43 1968.67 2479.09 1975.92 2480.11 1980.52 2483.71 1996.79 2494.68 2039.81 2497.22 2047.58 2497.99 2049.95 2499.16 2054.37 2499.82 2057.39 2500.47 2060.42 2501.37 2064.47 2501.82 2066.4 2502.26 2068.32 2503.19 2074.85 2503.87 2080.9 2504.94 2090.4 2504.88 2093.62 2503.43 2104.41 2501.02 2122.32 2501.03 2121.91 2503.22 2121.91 2505.87 2121.91 2508.64 2117.82 2510.35 2111.38 2512.08 2104.9 2512.41 2071.68 2510.85 2062.01 2506.51 2035.2 2505.63 2031.38 2495.31 1994.75 2493.43 1988.08 2490.92 1977.62 2489.72 1971.5L2487.55 1960.38 2489.99 1955.62C2492.89 1949.95 2499.22 1945.73 2509.53 1942.6 2519.34 1939.61 2528.72 1938.4 2549.55 1937.41 2551.06 1937.34 2555.1 1930.24 2556.85 1924.59 2557.96 1921 2557.95 1919.91 2556.76 1917.66 2555.15 1914.62 2536.27 1897.24 2527.48 1890.7 2520.29 1885.35 2516.59 1885.05 2509.33 1889.23M2123.75 1912.34C2122.93 1912.88 2121.24 1913.32 2119.99 1913.33 2118.75 1913.34 2116.94 1913.74 2115.99 1914.23 2111.41 1916.56 2095.71 1922.35 2093.96 1922.35 2093.28 1922.35 2091.94 1922.76 2090.98 1923.27 2090.03 1923.77 2086.77 1925.09 2083.75 1926.19 2080.72 1927.29 2073.29 1930.06 2067.24 1932.34 2061.19 1934.62 2053.77 1937.41 2050.74 1938.54 2047.71 1939.67 2044.46 1940.99 2043.5 1941.47 2042.55 1941.96 2040.88 1942.35 2039.8 1942.35 2038.73 1942.35 2035.73 1943.48 2033.14 1944.85 2030.55 1946.23 2027.58 1947.36 2026.53 1947.36 2025.49 1947.36 2022.97 1948.22 2020.93 1949.29 2018.9 1950.35 2014.91 1951.9 2012.07 1952.72 2007.32 1954.11 1998.94 1957.29 1986.23 1962.53 1983.48 1963.66 1979.43 1965.22 1977.23 1966 1975.02 1966.78 1972.32 1967.81 1971.22 1968.29 1967.54 1969.89 1962.27 1972.05 1956.45 1974.34 1953.28 1975.59 1950.44 1977.01 1950.14 1977.49 1949.85 1977.97 1948.72 1978.37 1947.65 1978.37 1946.57 1978.37 1944.91 1978.76 1943.95 1979.25 1941.39 1980.56 1938.08 1981.94 1929.72 1985.21 1925.59 1986.82 1919.74 1989.17 1916.71 1990.41 1913.69 1991.66 1909.64 1993.3 1907.71 1994.05 1905.79 1994.81 1902.55 1996.31 1900.51 1997.4 1898.48 1998.48 1896.3 1999.37 1895.66 1999.37 1895.03 1999.37 1891.3 2000.89 1887.36 2002.75 1883.43 2004.6 1879.08 2006.47 1877.71 2006.89 1876.33 2007.32 1871.15 2009.55 1866.2 2011.86 1853.21 2017.92 1840.87 2023.38 1840.18 2023.38 1839.85 2023.38 1833.97 2026.08 1827.11 2029.38 1820.25 2032.68 1814.17 2035.39 1813.59 2035.39 1808.96 2035.39 1795.53 2047.8 1791.4 2055.89 1787.75 2063.07 1787.35 2065.76 1789.56 2068.49L1791.43 2070.79 1802.81 2065.17C1822.55 2055.43 1830.97 2051.59 1838.7 2048.84 1842.82 2047.36 1846.67 2045.78 1847.25 2045.32 1847.83 2044.85 1852.49 2042.88 1857.62 2040.92 1862.74 2038.96 1868.12 2036.77 1869.57 2036.04 1871.02 2035.31 1874.45 2033.7 1877.21 2032.46 1879.96 2031.23 1884.3 2029.13 1886.85 2027.8 1889.41 2026.47 1892.65 2025.38 1894.05 2025.38 1895.45 2025.38 1896.84 2024.99 1897.13 2024.5 1897.6 2023.75 1901.14 2022.21 1910.21 2018.82 1911.31 2018.41 1914.24 2017.31 1916.71 2016.38 1919.19 2015.44 1926.37 2012.79 1932.66 2010.49 1938.96 2008.18 1944.59 2005.91 1945.17 2005.44 1945.74 2004.98 1951.17 2002.69 1957.22 2000.37 1963.27 1998.05 1970.47 1995.08 1973.22 1993.79 1978.06 1991.51 1987.16 1988.04 2000.73 1983.32 2004.31 1982.07 2009.08 1980.23 2011.34 1979.21 2013.6 1978.2 2015.98 1977.37 2016.63 1977.37 2017.28 1977.37 2019.58 1976.47 2021.73 1975.37 2023.89 1974.26 2026.56 1973.36 2027.67 1973.36 2028.78 1973.36 2031.16 1972.47 2032.96 1971.37 2034.76 1970.27 2036.91 1969.37 2037.74 1969.36 2038.56 1969.36 2043.4 1967.56 2048.49 1965.36 2053.59 1963.17 2060.79 1960.28 2064.5 1958.95 2068.21 1957.61 2076.65 1954.43 2083.25 1951.87 2089.85 1949.31 2097.27 1946.56 2099.75 1945.76 2102.23 1944.95 2105.03 1943.86 2105.99 1943.32 2106.94 1942.79 2108.42 1942.35 2109.28 1942.35 2111.94 1942.35 2118.12 1938.68 2121.31 1935.19 2125.14 1931.01 2129.38 1922.97 2130.25 1918.25 2131.23 1913 2127.7 1909.79 2123.75 1912.34M2384.81 2000.37C2383.98 2000.91 2382.36 2001.35 2381.19 2001.36 2379.38 2001.37 2374.5 2003.03 2366.3 2006.42 2365.2 2006.87 2362.5 2007.8 2360.3 2008.48 2358.1 2009.16 2350.9 2011.74 2344.3 2014.22 2337.7 2016.69 2328.92 2019.92 2324.8 2021.4 2316.86 2024.25 2312.57 2025.88 2309.29 2027.28 2303.57 2029.73 2301.5 2030.39 2299.49 2030.41 2298.28 2030.42 2296.17 2031.31 2294.79 2032.38 2293.41 2033.46 2291.25 2034.35 2289.99 2034.36 2288.72 2034.38 2286.47 2035.01 2284.99 2035.78 2283.5 2036.54 2277.34 2038.87 2271.28 2040.95 2265.23 2043.03 2255.79 2046.68 2250.29 2049.06 2244.8 2051.44 2239.68 2053.39 2238.93 2053.39 2238.17 2053.39 2235.69 2054.35 2233.41 2055.52 2226.2 2059.22 2225.82 2059.39 2224.75 2059.39 2224.17 2059.39 2220 2061.02 2215.48 2063.01 2204.48 2067.85 2204.69 2067.77 2193.27 2071.94 2187.77 2073.95 2182.82 2075.96 2182.27 2076.41 2181.72 2076.86 2179.24 2077.98 2176.77 2078.9 2170.03 2081.42 2168.88 2081.89 2161.18 2085.28 2157.29 2087 2153.77 2088.4 2153.37 2088.4 2152.97 2088.4 2149.85 2089.71 2146.45 2091.31 2135.18 2096.6 2106.05 2109.41 2105.3 2109.41 2104.89 2109.41 2100.21 2111.47 2094.9 2114 2089.59 2116.52 2083.22 2119.48 2080.75 2120.59 2070.01 2125.36 2066.97 2127.15 2062.43 2131.35 2057.6 2135.82 2051.53 2145.53 2050.33 2150.7 2048.94 2156.7 2053.7 2159.37 2058.74 2155.43 2060.12 2154.35 2061.79 2153.46 2062.45 2153.45 2063.11 2153.44 2065.95 2152.07 2068.74 2150.42 2071.54 2148.77 2074.27 2147.42 2074.79 2147.42 2075.32 2147.42 2079.92 2145.44 2085 2143.01 2093.86 2138.78 2098.18 2136.97 2119.98 2128.32 2125.34 2126.19 2130.51 2124.04 2131.49 2123.53 2132.46 2123.01 2135.96 2121.37 2139.26 2119.88 2142.56 2118.38 2146.9 2116.32 2148.9 2115.29 2150.9 2114.26 2153.31 2113.41 2154.26 2113.41 2155.21 2113.41 2157.63 2112.53 2159.63 2111.45 2161.63 2110.37 2168.89 2107.41 2175.77 2104.88 2194.2 2098.08 2203.55 2094.42 2210.27 2091.36 2213.57 2089.86 2218.44 2087.9 2221.08 2087.01 2223.73 2086.11 2228.68 2084.1 2232.09 2082.52 2235.49 2080.94 2241.16 2078.64 2244.68 2077.41 2248.2 2076.17 2254.22 2073.87 2258.07 2072.28 2261.91 2070.69 2265.96 2069.4 2267.05 2069.4 2268.15 2069.4 2270.59 2068.44 2272.48 2067.28 2274.36 2066.11 2277.34 2064.79 2279.1 2064.34 2280.85 2063.89 2285.21 2062.41 2288.79 2061.05 2292.36 2059.7 2296.87 2058.04 2298.79 2057.37 2300.72 2056.69 2304.09 2055.35 2306.29 2054.38 2312.33 2051.7 2314.27 2050.93 2327.3 2046.05 2333.9 2043.57 2346.5 2038.85 2355.3 2035.55 2364.1 2032.25 2372.57 2029.27 2374.11 2028.93 2382.15 2027.17 2394.52 2008.35 2392.28 2001.29 2391.62 1999.2 2387.43 1998.68 2384.81 2000.37" fill="url(#fill1)" fill-rule="evenodd"/></g></svg>