<svg width="2274" height="2273" xmlns="http://www.w3.org/2000/svg" xmlns:xlink="http://www.w3.org/1999/xlink" xml:space="preserve" overflow="hidden"><defs><clipPath id="clip0"><rect x="1064" y="101" width="2274" height="2273"/></clipPath><linearGradient x1="1064.5" y1="100.5" x2="3337.5" y2="2374.5" gradientUnits="userSpaceOnUse" spreadMethod="reflect" id="fill1"><stop offset="0" stop-color="#F7DC85"/><stop offset="0.97" stop-color="#CFB668"/><stop offset="1" stop-color="#CFB668"/></linearGradient></defs><g clip-path="url(#clip0)" transform="translate(-1064 -101)"><path d="M1111 1238C1111 636.562 1598.56 149 2200 149 2801.44 149 3289 636.562 3289 1238 3289 1839.44 2801.44 2327 2200 2327 1598.56 2327 1111 1839.44 1111 1238Z" fill="#195729" fill-rule="evenodd"/><path d="M2151.26 101.158C2009.26 109.365 1895.48 133.923 1775.81 182.192 1368.67 346.415 1098.45 720.223 1065.34 1165L1064.04 1182.51 1064.04 1237.53 1064.04 1292.55 1065.34 1310.06C1108.47 1889.46 1548.48 2329.56 2127.76 2372.7L2145.26 2374 2200.27 2374 2255.28 2374 2272.79 2372.7C2670 2343.12 3009.37 2126.83 3198.45 1782.76 3279.19 1635.84 3335.86 1432.54 3335.99 1289.36 3336 1284.85 3336.45 1280.89 3337 1280.55L3338 1279.93 3338 1236.41 3338 1192.89 3337 1193.51 3336 1194.13 3335.99 1185.82C3335.94 1129.44 3319.52 1020.86 3299.89 947.126 3174.3 475.34 2771.5 141.53 2281.29 102.986L2261.28 101.412 2209.27 101.112C2180.67 100.946 2154.56 100.967 2151.26 101.158M2160.26 196.227C1626.29 217.962 1202.81 629.119 1160.91 1166.5L1159.19 1188.51 1159.19 1237.53 1159.19 1286.55 1160.91 1308.56C1201.97 1835.11 1602.81 2236.04 2129.26 2277.11L2151.26 2278.83 2200.27 2278.83 2249.28 2278.83 2271.28 2277.11C2797.72 2236.04 3198.57 1835.1 3239.63 1308.56L3241.35 1286.55 3241.35 1237.53 3241.35 1188.51 3239.63 1166.5C3198.61 640.422 2795.9 237.459 2271.79 198.046L2251.28 196.505 2210.27 196.183C2187.72 196.005 2165.21 196.026 2160.26 196.227M2050.85 295.54 2047.74 298.442 2047.74 304.739 2047.74 311.036 2050.43 313.841 2053.11 316.648 2058.87 316.648 2064.63 316.648 2067.44 314.233 2070.24 311.818 2070.24 305.12 2070.24 298.421 2066.78 295.529 2063.32 292.637 2058.64 292.637 2053.95 292.637 2050.85 295.54M2007.64 317.492C1998.56 323.253 1992.18 333.253 1989.83 345.409L1988.63 351.662 1989.79 357.572 1990.95 363.483 1993.85 366.999 1996.75 370.515 2001.83 372.201 2006.9 373.889 2014.36 372.78C2030.68 370.352 2042.78 371.496 2047.49 375.913L2049.74 378.022 2049.74 380.78 2049.74 383.539 2046.99 385.455C2033.25 395.026 2012.94 401.882 1993.24 403.591L1982.94 404.487 1978.08 403.546C1964.55 400.926 1953.32 396.359 1946.71 390.782L1943.22 387.841 1944.22 386.833C1945.3 385.743 1957.51 380.764 1967.2 377.46 1975.03 374.792 1974.78 375.036 1978.63 365.961 1980.44 361.673 1982.4 357.167 1982.98 355.948L1984.03 353.731 1982.86 352.326C1980.41 349.37 1963.09 344.668 1943.72 341.697L1931.22 339.779 1914.21 340.152 1897.21 340.524 1889.21 342.174C1884.81 343.081 1878.97 345.024 1876.23 346.492L1871.25 349.161 1868.98 353.163C1865.72 358.929 1862.52 367.763 1863.13 369.353L1863.66 370.716 1867.43 369.109C1877.68 364.746 1891.41 368.835 1902.46 379.542 1906.98 383.919 1907.25 383.651 1891.96 389.722 1884.39 392.724 1872.62 397.993 1865.79 401.433 1858.96 404.871 1853.27 407.685 1853.15 407.685 1853.03 407.685 1852.62 405.547 1852.25 402.933 1849.26 382.005 1840.73 346.822 1835.8 335.155 1828.98 318.985 1828.75 319.024 1823.85 337.251L1821.68 345.35 1824.65 352.546C1830.88 367.669 1838.21 401.992 1843.67 441.699 1844.77 449.678 1846.12 459.469 1846.68 463.458 1847.8 471.426 1849.38 483.207 1850.07 488.805 1850.32 490.778 1850.22 492.872 1849.86 493.461 1848.87 495.07 1831.55 500.323 1818.69 502.915L1812.19 504.225 1795.69 504.163 1779.19 504.102 1772.35 501.872C1768.59 500.646 1763.76 498.536 1761.62 497.182 1759.47 495.829 1757.33 494.721 1756.85 494.721 1754.81 494.721 1743.95 482.525 1741.33 477.297 1733.51 461.719 1733.67 440.958 1741.78 416.669L1745.11 406.715 1743.82 405.449 1742.53 404.184 1740.1 407.185C1737.34 410.583 1730.63 427.171 1728.36 436.197 1725.27 448.46 1724.67 453.146 1724.69 465.035L1724.71 477.214 1726.62 484.8C1729.53 496.359 1737.48 509.267 1745.49 515.417 1751.1 519.732 1757.61 523.733 1759.02 523.733 1759.71 523.733 1760.71 524.116 1761.23 524.585 1761.75 525.054 1765.11 526.241 1768.68 527.224L1775.18 529.011 1785.19 529.264C1795.45 529.523 1807.5 528.488 1813.69 526.815 1815.62 526.295 1821.02 524.868 1825.69 523.643 1830.37 522.418 1838.15 519.856 1842.99 517.95 1853.91 513.648 1852.18 510.149 1855.71 543.742 1860.57 590.137 1875.3 613.279 1902.77 617.703L1908.94 618.698 1916.08 617.21C1927.72 614.783 1946.72 602.129 1946.72 596.797 1946.72 593.441 1948.64 596.692 1949.75 601.927L1951.06 608.089 1955.14 612.333 1959.22 616.576 1963.71 617.778C1969.47 619.318 1976.71 618.628 1983.93 615.856L1989.63 613.663 1994.63 609.168C1997.38 606.695 2001.29 602.407 2003.32 599.639L2007.02 594.606 2007.86 595.935C2008.32 596.666 2008.71 598.122 2008.72 599.171 2008.78 607.503 2020.58 613.403 2031.4 610.519L2036.09 609.269 2041.03 604.378C2043.75 601.688 2047.08 597.074 2048.43 594.124 2051.42 587.6 2052.26 587.482 2054.73 593.244 2057.55 599.82 2060.55 603.434 2066.18 607.049L2071.2 610.269 2080.72 610.265 2090.25 610.261 2095.55 607.326C2118 594.903 2123.27 560.683 2112.73 495.722 2107.76 465.078 2094.02 385.222 2091.3 371.17 2090.45 366.768 2089.75 363.054 2089.75 362.917 2089.75 361.721 2092.44 363.294 2095.31 366.164 2104.95 375.801 2106.93 374.143 2101.28 361.166 2100.56 359.515 2097.65 352.607 2094.82 345.815 2091.98 339.024 2087.63 329.204 2085.15 323.995L2080.63 314.522 2079.08 314.835 2077.53 315.147 2074.56 323.15C2072.93 327.552 2070.99 332.789 2070.25 334.787L2068.92 338.421 2071.26 341.79 2073.61 345.159 2074.7 354.163C2075.31 359.115 2076.21 366.093 2076.71 369.669 2077.2 373.246 2078.08 379.548 2078.66 383.675 2081.6 404.773 2085.81 431.501 2088.75 447.702 2094.36 478.62 2102.8 535.961 2105.84 563.861L2106.99 574.475 2105.62 577.367 2104.24 580.257 2096.74 584.007 2089.25 587.759 2085.01 587.759C2071.73 587.761 2060.74 578.322 2060.74 566.909 2060.74 557.602 2058.83 558.845 2051.12 573.167L2045.24 584.084 2042.24 585.918 2039.24 587.753 2032.2 587.756 2025.16 587.76 2021.73 584.894 2018.29 582.027 2018.33 577.641C2018.35 575.228 2018.73 571.116 2019.19 568.502L2020.01 563.75 2018.8 563.75C2017.3 563.75 2015.53 565.487 2012.54 569.885 2000.25 587.938 1990.36 594.766 1976.5 594.761L1971.22 594.76 1967.74 593.01C1965.83 592.049 1963.22 589.694 1961.94 587.777L1959.61 584.292 1959.73 576.772C1959.81 572.637 1959.83 568.69 1959.79 568.002 1959.61 564.763 1955.41 567.671 1945.15 578.133L1933.99 589.515 1928.1 591.745 1922.21 593.976 1914.52 594.001 1906.84 594.025 1900.26 591.704 1893.69 589.384 1888.7 584.32C1877.22 572.668 1872.12 559.782 1868.77 533.988 1868.19 529.448 1867.19 522.103 1866.57 517.664L1865.44 509.593 1866.32 508.79C1866.81 508.349 1870.8 506.054 1875.2 503.692 1904.75 487.831 1917.59 476.43 1923.67 460.673 1933.13 436.119 1925.56 427.28 1887.96 419.02 1876.35 416.471 1874.77 417.814 1906.17 403.564 1921.75 396.497 1919.36 396.539 1926.83 403.211 1939.49 414.507 1951.8 421.286 1966.13 424.852L1974.05 426.824 1983.17 426.874C2005.15 426.994 2032.34 418.142 2045.03 406.734L2050.1 402.183 2053.32 395.18 2056.55 388.177 2057.55 379.836 2058.55 371.493 2057.57 364.417C2055.05 346.187 2040.73 324.017 2027.09 317.214L2021.94 314.647 2017.03 314.647 2012.12 314.647 2007.64 317.492M2121.95 320.849C2121.29 321.51 2120.75 322.599 2120.75 323.271 2120.75 323.942 2119.18 328.228 2117.25 332.794 2113.2 342.409 2113.13 342.963 2115.61 346.506L2117.46 349.161 2119.16 361.166C2123.65 392.926 2124.17 396.423 2126.85 412.187 2127.97 418.79 2129.54 428.244 2130.34 433.196 2131.14 438.148 2132.23 444.676 2132.77 447.702 2134.84 459.343 2141.83 502.581 2142.8 509.728 2143.87 517.547 2144.54 522.208 2147.13 539.74 2147.98 545.517 2149.16 553.846 2149.76 558.247 2151.22 569.054 2153.71 597.129 2153.74 603.047L2153.76 607.831 2155.3 608.423C2158.14 609.512 2160.77 600.688 2163.35 581.396L2165.07 568.529 2163.85 555.385C2161.34 528.226 2157.14 497.382 2152.72 473.712 2152.16 470.686 2150.83 462.583 2149.77 455.705 2148.72 448.827 2146.91 437.798 2145.75 431.195 2144.6 424.592 2143.27 416.714 2142.79 413.688 2141.14 403.073 2137.66 383.099 2136.11 375.359 2134.11 365.332 2134.58 365.066 2141.78 372.188L2147.74 378.092 2148.8 377.031 2149.86 375.969 2148.22 371.569C2146.27 366.345 2146.57 367.061 2138.3 348.377 2126.3 321.274 2124.52 318.284 2121.95 320.849M2502.07 328.129C2485.88 342.689 2468.42 372.181 2466.23 388.661L2465.6 393.406 2467.28 399.177 2468.96 404.947 2474.14 410.106C2479.68 415.617 2486.3 419.262 2492.61 420.27L2496.49 420.893 2502.89 419.254C2521.95 414.37 2542.77 387.883 2542.83 368.454L2542.84 364.737 2539.78 361.255C2535.49 356.365 2523.88 349.259 2516.26 346.857L2513.19 345.889 2510.07 347.201C2506.43 348.733 2501.66 354.932 2499.24 361.271L2497.54 365.727 2498.6 368.067C2499.19 369.354 2501.73 371.704 2504.24 373.29 2506.76 374.875 2510.96 377.529 2513.58 379.188L2518.33 382.203 2518.33 385.582 2518.33 388.962 2515.53 391.053 2512.73 393.145 2505.53 393.474 2498.33 393.803 2493.85 391.491 2489.38 389.178 2487.5 385.904 2485.62 382.631 2485.58 376.9 2485.54 371.17 2489.32 364.167C2491.41 360.316 2494.34 355.589 2495.84 353.663 2497.35 351.737 2502.03 345.225 2506.25 339.192L2513.92 328.222 2513.62 326.187 2513.33 324.151 2510.25 323.85 2507.16 323.548 2502.07 328.129M2008.73 339.366C2005.9 340.408 2003.73 342.971 2003.73 345.28L2003.73 347.59 2005.67 348.626C2009.19 350.513 2026.74 348.963 2026.74 346.764 2026.74 342.502 2014.2 337.353 2008.73 339.366M2341.03 359.419C2337.63 364.846 2308.55 413.628 2307.79 415.171 2307.52 415.731 2304.68 420.571 2301.49 425.929L2295.69 435.669 2297.19 441.935C2298.02 445.382 2299.64 452.704 2300.79 458.206 2301.94 463.708 2304.21 474.513 2305.83 482.216 2310.04 502.153 2311.18 507.857 2315.22 529.235 2317.2 539.69 2319.24 550.269 2319.75 552.745 2320.27 555.221 2321.2 559.948 2321.82 563.25 2323.68 573.124 2329.68 598.767 2335.99 623.775 2342.72 650.432 2342.63 650.096 2346.32 662.291 2347.82 667.243 2349.93 674.446 2351.02 678.297 2352.1 682.149 2353.37 686.651 2353.85 688.302 2358.79 705.333 2370.37 753.551 2371.82 763.128L2372.86 769.927 2370.96 774.217 2369.06 778.506 2364.68 779.648C2362.27 780.276 2357.15 781.561 2353.3 782.504L2346.3 784.218 2322.8 784.28 2299.29 784.341 2285.75 781.698 2272.2 779.055 2260.64 771.545 2249.07 764.034 2238.44 749.007C2226.68 732.386 2226.4 731.872 2224.34 723.316 2223.54 720.015 2221.76 712.812 2220.38 707.309 2219 701.807 2217.14 693.254 2216.24 688.302 2213.5 673.17 2211.79 669.59 2206.73 668.318L2204.19 667.682 2198.57 671.99 2192.95 676.296 2188.03 683.8C2182 692.988 2179.04 698.353 2175.32 706.809 2169.23 720.644 2166.17 726.611 2161.06 734.605 2158.15 739.164 2155.76 743.128 2155.76 743.414 2155.76 744.77 2146.66 757.176 2140.33 764.456L2133.26 772.583 2122.75 778.962C2110.78 786.239 2110.85 786.212 2096.82 788.295L2086.4 789.843 2071.77 789.843C2063.72 789.843 2056.71 789.471 2056.19 789.017 2055.67 788.562 2050.97 786.457 2045.74 784.338 2040.51 782.219 2033.17 778.453 2029.42 775.968L2022.59 771.449 2018.66 764.831 2014.73 758.214 2014.72 748.768C2014.71 740.306 2017.94 712.485 2020.82 696.155L2021.91 690.002 2020.2 687.389C2017.98 684.006 2014.89 683.291 2010.46 685.139L2006.91 686.624 1998.07 697.281 1989.23 707.938 1980.5 724.907 1971.77 741.876 1961.65 754.879 1951.52 767.882 1939.37 777.427 1927.22 786.973 1914.21 792.6 1901.21 798.226 1874.7 798.625 1848.2 799.023 1840.2 796.883C1835.8 795.705 1829.27 793.865 1825.69 792.796L1819.19 790.85 1815.69 787.744C1813.77 786.035 1809.32 782.321 1805.81 779.487L1799.42 774.337 1792.18 759.331C1784.96 744.365 1777.49 727.817 1769.82 709.81L1765.77 700.307 1764.08 700.307 1762.39 700.307 1760.98 705.308C1759.26 711.417 1751.49 736.219 1747.66 747.826 1746.11 752.503 1742.3 764.433 1739.18 774.337 1736.07 784.241 1733.06 793.545 1732.51 795.012L1731.5 797.679 1743.66 834.528C1750.34 854.795 1757.15 877.455 1758.78 884.883 1760.41 892.311 1762.16 899.964 1762.66 901.89 1763.17 903.816 1764.55 909.893 1765.73 915.396 1768.85 929.944 1770.63 937.937 1771.65 941.906 1772.49 945.213 1774.15 962.949 1775.07 978.422 1775.87 991.932 1776.71 1002.47 1777.28 1006.2L1777.87 1009.96 1770.52 1017.63C1766.49 1021.85 1761.3 1027.23 1758.99 1029.59 1753.37 1035.34 1720.35 1058.21 1709.7 1063.72 1696.74 1070.44 1677.1 1080.72 1668.16 1085.47 1650.85 1094.68 1641.85 1099.44 1634.8 1103.14 1630.75 1105.26 1614.09 1111.97 1597.79 1118.05 1581.48 1124.13 1567.24 1129.49 1566.14 1129.96 1563.56 1131.08 1541.79 1139.22 1534.64 1141.76 1531.61 1142.83 1523.73 1144.92 1517.13 1146.41 1510.53 1147.89 1501.53 1149.97 1497.13 1151.02 1492.73 1152.07 1483.95 1154.09 1477.62 1155.52 1471.3 1156.94 1462.52 1158.96 1458.12 1160 1434.83 1165.52 1428.21 1167.02 1418.61 1168.91 1412.84 1170.05 1406.08 1171.4 1403.61 1171.91 1401.13 1172.42 1396.41 1173.32 1393.11 1173.92 1389.81 1174.51 1383.73 1175.65 1379.6 1176.44 1375.48 1177.24 1364.45 1179.28 1355.1 1180.97 1323.62 1186.69 1306.1 1190.23 1305.19 1191.07L1304.3 1191.9 1309.7 1194.34C1312.66 1195.68 1317.69 1197.95 1320.87 1199.4 1324.05 1200.84 1326.85 1202.01 1327.1 1202.01 1328.66 1202.01 1340.6 1208.18 1340.6 1208.99 1340.6 1209.53 1338.8 1212.35 1336.6 1215.25 1334.4 1218.15 1332.6 1220.98 1332.6 1221.54 1332.6 1222.1 1330.79 1224.74 1328.59 1227.4 1326.39 1230.07 1324.59 1232.71 1324.59 1233.28 1324.59 1233.85 1322.79 1237.16 1320.59 1240.65 1318.39 1244.13 1316.59 1247.49 1316.59 1248.1 1316.59 1248.72 1315.76 1250.42 1314.73 1251.88 1313.14 1254.16 1304.91 1271.52 1302.57 1277.55 1300.87 1281.91 1298.24 1287.83 1295.48 1293.46 1293.89 1296.71 1292.59 1300.18 1292.59 1301.16 1292.59 1302.14 1292.14 1303.22 1291.59 1303.56 1291.04 1303.9 1290.59 1305.09 1290.59 1306.21 1290.59 1307.33 1289.94 1309.44 1289.14 1310.91 1287.2 1314.46 1283.59 1325.25 1283.59 1327.48 1283.59 1328.46 1282.97 1330.45 1282.22 1331.91 1280.18 1335.9 1278.39 1341.18 1277.85 1344.83 1277.58 1346.63 1276.96 1348.34 1276.47 1348.64 1275.98 1348.95 1275.58 1350.24 1275.58 1351.52 1275.58 1352.8 1274.91 1355.14 1274.09 1356.71 1273.27 1358.29 1272.58 1361.61 1272.56 1364.08 1272.54 1366.56 1271.86 1369.46 1271.05 1370.53 1270.24 1371.59 1269.58 1374.31 1269.58 1376.56 1269.58 1378.8 1268.97 1381.53 1268.23 1382.62 1267.48 1383.7 1266.54 1387.97 1266.13 1392.09 1265.72 1396.22 1265.04 1403.09 1264.63 1407.36L1263.88 1415.12 1262.06 1417.12 1260.25 1419.12 1261.58 1421.6 1262.91 1424.08 1261.73 1433.85 1260.56 1443.61 1261.04 1462.12 1261.53 1480.63 1263.52 1493.13C1265.9 1508.09 1268.82 1521.98 1270.88 1528.15 1271.7 1530.63 1273.14 1535.13 1274.06 1538.15 1276.06 1544.7 1287.85 1569.4 1291.01 1573.67 1292.24 1575.32 1293.52 1577.44 1293.86 1578.38 1294.67 1580.56 1316.61 1609.18 1317.48 1609.18 1317.84 1609.18 1321.34 1612.22 1325.26 1615.94 1334.86 1625.02 1338.57 1627.92 1349.37 1634.83 1369.1 1647.43 1373.74 1650.2 1375.11 1650.2 1376.34 1650.2 1388.91 1655.61 1393.84 1658.27 1394.8 1658.78 1396.62 1659.2 1397.89 1659.2 1399.17 1659.2 1400.64 1659.63 1401.16 1660.14 1401.68 1660.66 1403.23 1661.32 1404.61 1661.6 1407.15 1662.13 1416.47 1665.07 1424.61 1667.91 1429.05 1669.45 1435.37 1670.29 1455.12 1671.95 1460.62 1672.41 1465.69 1673.13 1466.39 1673.56 1467.61 1674.32 1477.46 1675.41 1498.23 1677.09 1503.78 1677.54 1508.84 1678.22 1509.46 1678.61 1510.69 1679.37 1538.35 1679.47 1551.14 1678.76 1555.54 1678.51 1563.42 1678.07 1568.64 1677.79 1583.71 1676.96 1631.59 1669.61 1637.66 1667.2 1639.03 1666.65 1641.51 1666.13 1643.16 1666.05 1644.81 1665.96 1649.31 1665.09 1653.16 1664.11 1657.01 1663.13 1663.99 1661.61 1668.66 1660.72 1673.34 1659.83 1678.07 1658.69 1679.17 1658.18 1680.27 1657.67 1684.54 1656.39 1688.67 1655.33 1692.79 1654.28 1697.29 1652.94 1698.67 1652.36 1700.04 1651.79 1704.19 1650.6 1707.87 1649.72 1711.56 1648.85 1715.84 1647.47 1717.38 1646.67 1718.91 1645.87 1720.99 1645.21 1721.99 1645.2 1722.99 1645.2 1725.91 1644.36 1728.49 1643.34 1731.07 1642.32 1736.55 1640.46 1740.68 1639.2 1749.17 1636.6 1757.75 1633.59 1762.18 1631.65 1763.83 1630.93 1767.88 1629.37 1771.18 1628.18 1774.48 1626.99 1778.54 1625.44 1780.19 1624.73 1781.84 1624.02 1786.34 1622.42 1790.19 1621.18 1794.04 1619.93 1799.96 1617.62 1803.35 1616.05 1806.75 1614.47 1809.84 1613.18 1810.23 1613.18 1810.62 1613.18 1813.48 1611.9 1816.57 1610.33 1819.66 1608.76 1823.32 1607.12 1824.69 1606.69 1827.39 1605.85 1837.11 1601.59 1845.2 1597.7 1853.01 1593.95 1863.65 1589.17 1864.23 1589.17 1864.51 1589.17 1866.42 1588.12 1868.47 1586.83 1870.52 1585.55 1879.76 1580.61 1889 1575.86 1898.24 1571.12 1906.97 1566.32 1908.39 1565.2 1909.82 1564.08 1911.41 1563.16 1911.93 1563.16 1912.45 1563.16 1915.25 1561.59 1918.15 1559.66 1921.05 1557.74 1923.88 1556.16 1924.45 1556.16 1925.01 1556.16 1926.07 1555.44 1926.8 1554.56 1927.53 1553.67 1929.05 1552.53 1930.17 1552.02 1935.64 1549.52 1965.34 1528.08 1968.72 1524.19 1969 1523.87 1972.15 1521.2 1975.73 1518.24 1979.3 1515.29 1984.43 1510.35 1987.12 1507.26 1989.81 1504.17 1992.41 1501.38 1992.88 1501.07 1993.79 1500.48 1995.63 1497.85 2004.79 1484.02 2009.51 1476.9 2015.65 1465.24 2018.68 1457.62 2019.12 1456.52 2020.42 1453.59 2021.56 1451.12 2025.22 1443.2 2026.74 1438.93 2026.74 1436.55 2026.74 1435.27 2027.19 1433.95 2027.74 1433.61 2028.29 1433.27 2028.75 1432.01 2028.77 1430.8 2028.78 1429.59 2029.46 1427.73 2030.27 1426.67 2031.08 1425.6 2031.74 1423.33 2031.74 1421.61 2031.74 1419.9 2032.2 1418.04 2032.76 1417.48 2033.33 1416.91 2034.07 1414.01 2034.4 1411.02 2034.74 1408.04 2035.41 1405.09 2035.91 1404.46 2036.4 1403.83 2037.22 1399.62 2037.74 1395.09 2038.25 1390.57 2039.11 1386.34 2039.65 1385.7 2040.18 1385.06 2041.12 1379.82 2041.74 1374.05 2042.35 1368.29 2043.29 1359.53 2043.83 1354.58 2046.32 1331.49 2046.9 1325.96 2047.71 1317.61L2048.57 1308.66 2050.15 1307.5C2051.02 1306.87 2054.94 1306.05 2058.87 1305.68 2069.57 1304.69 2082.17 1301.35 2089.25 1297.64 2090.9 1296.77 2092.62 1296.06 2093.07 1296.06 2094.59 1296.05 2109.63 1285.8 2110.16 1284.42 2110.45 1283.67 2111.35 1283.05 2112.16 1283.05 2114.07 1283.05 2126.86 1270.22 2130.95 1264.2 2132.7 1261.64 2134.38 1259.31 2134.69 1259.04 2136.3 1257.62 2153.11 1232.18 2159.41 1221.63 2162 1217.28 2166.72 1210.31 2169.89 1206.12L2175.65 1198.51 2180.29 1196.08 2184.93 1193.65 2187.6 1195.21C2191.32 1197.38 2194.41 1204.21 2195.2 1211.96 2195.99 1219.84 2197.61 1225.65 2199.43 1227.16L2200.77 1228.27 2203.67 1227.07C2208.97 1224.87 2217.77 1210.81 2217.77 1204.55 2217.77 1203.22 2218.17 1201.89 2218.66 1201.59 2219.15 1201.29 2219.85 1198.99 2220.23 1196.49 2220.6 1193.98 2221.55 1190.39 2222.34 1188.5 2223.13 1186.62 2223.79 1182.47 2223.81 1179.29 2223.83 1176.11 2224.5 1170.8 2225.3 1167.5 2226.09 1164.2 2226.75 1159.59 2226.76 1157.26 2226.77 1154.94 2227.21 1149.98 2227.74 1146.26 2228.27 1142.54 2229.13 1134.88 2229.65 1129.25L2230.59 1119.01 2228.93 1114.74C2225.14 1105.03 2218.34 1100.65 2212.01 1103.85 2211.05 1104.34 2208.47 1105.51 2206.27 1106.45 2201.59 1108.47 2190.21 1117.47 2188.47 1120.52 2187.81 1121.68 2183.67 1127.96 2179.27 1134.49 2170.1 1148.06 2164.33 1156.91 2156.75 1169 2150.51 1178.94 2144.24 1186.91 2139.6 1190.76 2137.79 1192.28 2135.01 1194.97 2133.43 1196.76 2131.84 1198.55 2129.99 1200.01 2129.31 1200.01 2128.62 1200.01 2127.27 1200.89 2126.3 1201.96 2122.59 1206.07 2101.21 1214.56 2092.42 1215.42 2089.88 1215.67 2087.3 1216.18 2086.7 1216.55 2083.57 1218.48 2051.86 1216.23 2049.29 1213.89 2048.77 1213.41 2047.55 1213.02 2046.58 1213.02 2040.78 1213.02 2027.42 1199.32 2021.92 1187.72 2014.65 1172.42 2012.64 1167.65 2011.6 1163.22 2009.93 1156.13 2006.43 1147.83 2004.62 1146.69L2003.02 1145.68 2000.47 1147.59C1998.16 1149.31 1993.47 1158.01 1989.18 1168.5 1988.28 1170.7 1986.28 1175.2 1984.72 1178.5 1982.06 1184.16 1981.41 1186.23 1980.04 1193.51 1979.73 1195.16 1979.04 1197.06 1978.5 1197.73 1977.97 1198.41 1977.16 1200.43 1976.71 1202.24 1976.26 1204.04 1974.94 1208.22 1973.78 1211.52 1972.62 1214.82 1971.21 1218.96 1970.65 1220.73L1969.63 1223.93 1971.03 1226.73C1972.68 1230 1976.29 1241.89 1977.27 1247.29 1977.64 1249.36 1978.35 1251.3 1978.84 1251.61 1979.33 1251.91 1979.73 1253.11 1979.73 1254.27 1979.73 1255.44 1980.14 1257.78 1980.63 1259.47 1981.13 1261.16 1982.31 1265.24 1983.25 1268.54 1984.2 1271.84 1985.54 1276.57 1986.25 1279.05 1988.89 1288.26 1991.41 1297.64 1993.24 1305.06 1995.19 1312.98 2000.84 1340.11 2001.15 1343.07 2001.35 1345 2002.42 1352.88 2003.52 1360.58 2004.61 1368.28 2005.58 1378.59 2005.65 1383.49 2005.73 1388.38 2006.03 1392.77 2006.32 1393.24 2008.56 1396.86 2003.63 1418.43 1999.48 1423.18 1998.24 1424.6 1994.79 1428.55 1991.81 1431.96L1986.39 1438.15 1977.81 1443.8C1973.09 1446.9 1967.62 1450.5 1965.67 1451.78 1963.71 1453.07 1961.86 1454.12 1961.54 1454.12 1961.23 1454.12 1956.59 1457.03 1951.23 1460.59 1945.86 1464.15 1937.37 1469.15 1932.35 1471.7 1927.32 1474.24 1922.64 1476.8 1921.93 1477.38 1919.46 1479.4 1894.37 1492.17 1878.71 1499.37 1876.23 1500.5 1873.42 1501.82 1872.45 1502.29 1871.49 1502.76 1869.92 1503.52 1868.95 1503.98 1867.99 1504.45 1866.2 1505.35 1864.97 1505.98 1863.74 1506.62 1862.1 1507.14 1861.34 1507.14 1860.57 1507.14 1859.39 1507.82 1858.7 1508.64 1858.02 1509.47 1856.85 1510.14 1856.11 1510.14 1855.37 1510.14 1852.38 1511.2 1849.48 1512.49 1846.57 1513.78 1841.27 1515.9 1837.7 1517.19 1834.12 1518.48 1829.85 1520.34 1828.2 1521.34 1826.54 1522.33 1824.48 1523.14 1823.62 1523.14 1822.75 1523.15 1818.02 1524.75 1813.11 1526.72 1799.75 1532.06 1786.31 1536.94 1775.68 1540.31 1770.46 1541.97 1763.98 1544.19 1761.3 1545.24 1758.61 1546.3 1755.57 1547.16 1754.53 1547.16 1753.5 1547.16 1751.87 1547.59 1750.92 1548.11 1747.54 1549.96 1724.61 1557.16 1715.67 1559.18 1712.65 1559.87 1709.72 1560.75 1709.17 1561.15 1708.62 1561.55 1705.25 1562.42 1701.67 1563.09 1698.09 1563.75 1690.67 1565.38 1685.17 1566.69 1679.67 1568.01 1674.04 1569.31 1672.66 1569.59 1671.29 1569.86 1667.38 1570.77 1663.98 1571.6 1655.59 1573.65 1613.06 1579.98 1603.15 1580.65 1598.75 1580.95 1591.1 1581.46 1586.15 1581.78 1567.83 1582.98 1521.34 1582.56 1508.13 1581.08 1489.17 1578.95 1466.12 1575.01 1462.86 1573.33 1461.9 1572.84 1458.87 1572.14 1456.12 1571.79 1451.01 1571.12 1444.2 1569.08 1442.97 1567.85 1442.59 1567.47 1441.09 1567.17 1439.64 1567.17 1438.19 1567.17 1436.12 1566.5 1435.06 1565.7 1433.99 1564.89 1432.31 1564.21 1431.33 1564.2 1430.35 1564.18 1427.33 1563.04 1424.61 1561.66 1421.9 1560.29 1419.18 1559.16 1418.57 1559.16 1415.09 1559.16 1391.39 1545.87 1380.6 1537.86 1366.9 1527.69 1364.16 1525.41 1356.25 1517.65 1343.03 1504.66 1321.61 1473.81 1321.59 1467.73 1321.59 1467.12 1320.79 1465.27 1319.82 1463.62 1318.18 1460.83 1317.39 1458.55 1312.53 1442.61 1308.39 1429.02 1306.55 1415.72 1306.31 1397.6 1306.17 1387.21 1307.11 1368.29 1307.88 1366.08 1308.91 1363.11 1310.59 1350.08 1310.59 1345.04 1310.59 1342.2 1311.24 1338.68 1312.04 1337.22 1312.85 1335.76 1314 1332.32 1314.6 1329.57 1315.21 1326.82 1316.05 1322.99 1316.47 1321.06 1316.9 1319.14 1317.77 1316.58 1318.42 1315.38 1319.06 1314.17 1319.59 1312.06 1319.59 1310.68 1319.59 1309.3 1320.04 1307.9 1320.59 1307.56 1321.14 1307.22 1321.59 1305.65 1321.59 1304.08 1321.59 1302.51 1322.34 1299.72 1323.26 1297.89 1326.31 1291.81 1326.59 1291.09 1326.59 1289.55 1326.59 1288.71 1326.99 1287.24 1327.48 1286.29 1327.96 1285.33 1328.81 1283.42 1329.35 1282.05 1329.89 1280.67 1331.52 1276.99 1332.97 1273.86 1334.41 1270.73 1335.6 1267.53 1335.6 1266.76 1335.6 1265.98 1337.4 1261.66 1339.6 1257.16 1341.8 1252.66 1343.6 1248.73 1343.6 1248.45 1343.6 1248.16 1344.54 1245.81 1345.7 1243.23 1346.85 1240.64 1348.59 1236.73 1349.57 1234.53 1350.55 1232.33 1352.34 1227.83 1353.55 1224.52 1357.26 1214.36 1357.99 1213.87 1366.25 1215.93 1374.21 1217.92 1388.51 1221.03 1430.93 1229.99L1440.74 1232.06 1462.43 1233.53C1474.36 1234.35 1490.98 1235.49 1499.37 1236.09 1507.75 1236.68 1515.03 1236.9 1515.54 1236.58 1516.06 1236.26 1523.83 1234.47 1532.81 1232.59 1567.81 1225.27 1577.25 1223.1 1580.15 1221.69 1581.8 1220.88 1586.52 1218.78 1590.65 1217.02 1600.16 1212.96 1612.35 1207.59 1620.47 1203.89 1623.95 1202.31 1627 1201.01 1627.25 1201.01 1628.31 1201.01 1646.75 1191.45 1684.11 1171.51 1690.13 1168.3 1711.18 1154.43 1727.17 1143.13 1737.42 1135.9 1773.01 1102.12 1775.79 1096.98 1776.84 1095.05 1780.22 1089.42 1783.3 1084.47 1786.39 1079.51 1791.12 1071.8 1793.83 1067.33L1798.75 1059.21 1805.71 1037.82 1812.67 1016.44 1813.74 1005.93C1814.33 1000.16 1815.19 994.078 1815.66 992.427 1816.13 990.777 1816.83 986.05 1817.21 981.923 1817.6 977.796 1818.11 973.52 1818.36 972.419 1818.93 969.888 1820.54 925.24 1820.63 909.677L1820.69 897.957 1831.95 898.499C1838.14 898.797 1848.63 899.245 1855.26 899.495L1867.32 899.949 1885.27 895.37C1895.14 892.852 1904.74 890.304 1906.62 889.709 1909.85 888.681 1933.12 874.409 1938.96 869.864 1942.81 866.874 1958.3 845.945 1963.71 836.431 1969.41 826.419 1969.66 826.379 1972.99 834.978 1976.86 844.966 1985.14 856.207 1996.14 866.426L2005.55 875.16 2017.89 880.109C2024.68 882.83 2031.71 885.718 2033.5 886.526L2036.77 887.994 2058.01 887.673 2079.25 887.352 2094.46 882.016C2102.83 879.081 2110.56 875.936 2111.65 875.029 2112.73 874.12 2118.36 870.048 2124.16 865.977L2134.69 858.575 2137.47 854.472C2139 852.216 2142.99 846.526 2146.35 841.83 2149.71 837.134 2153.81 830.831 2155.46 827.824 2157.96 823.247 2174.26 792.573 2176.67 787.903 2178.21 784.903 2179.35 786.029 2180.95 792.14 2181.86 795.61 2183.99 801.475 2185.69 805.176 2187.38 808.875 2188.77 812.096 2188.77 812.331 2188.77 814.355 2202.25 832.869 2210.27 841.866L2220.27 853.082 2225.28 856.032C2228.03 857.655 2234.55 861.657 2239.78 864.927 2245 868.198 2249.75 870.875 2250.33 870.876 2250.91 870.876 2256.09 872.386 2261.84 874.23 2267.58 876.074 2275.44 878.535 2279.29 879.7L2286.29 881.815 2307.79 881.268 2329.3 880.719 2335.3 878.403C2366.31 866.432 2362.34 868.641 2371.31 858.372 2375.16 853.97 2378.54 850.143 2378.83 849.868 2382.38 846.464 2389.37 836.981 2392.1 831.85 2395.92 824.655 2399.6 817.947 2403.91 810.266 2405.49 807.467 2407.65 801.164 2408.73 796.26 2414.8 768.583 2416.53 758.977 2420.88 728.568L2422.14 719.815 2420.89 711.061C2420.21 706.247 2419.27 700.281 2418.81 697.805 2418.34 695.329 2417.43 689.702 2416.78 685.3 2415.43 676.144 2411.32 651.711 2409.88 644.283 2409.34 641.532 2408.44 636.58 2407.86 633.279 2406.92 627.813 2403.3 607.501 2400.83 593.762 2395.42 563.754 2395.68 564.897 2382.36 510.554 2375.59 482.928 2375.45 487.037 2383.71 471.336L2390.61 458.206 2386.66 449.202C2384.49 444.25 2381.61 437.823 2380.26 434.92 2378.91 432.015 2377.81 429.44 2377.81 429.196 2377.81 428.953 2376.73 426.376 2375.42 423.472 2374.11 420.566 2371.57 414.813 2369.78 410.686 2368 406.56 2365.24 400.358 2363.67 396.906 2362.09 393.453 2360.8 390.446 2360.8 390.223 2360.8 390 2359.51 386.973 2357.93 383.495 2356.34 380.018 2352.9 372.32 2350.28 366.39 2344.53 353.368 2344.73 353.517 2341.03 359.419M1919.96 362.317C1917.07 363.512 1926.09 373.671 1930.05 373.671 1932.47 373.671 1946.9 366.444 1946.03 365.667 1944.52 364.319 1922.09 361.438 1919.96 362.317M2666.1 405.935C2664.06 408.481 2660.91 416.573 2660.32 420.816 2659.98 423.223 2659.32 426.093 2658.85 427.193 2658.03 429.081 2656.7 435.933 2653.32 455.705 2651.89 464.057 2651.31 467.993 2650.41 475.463 2650.16 477.527 2649.65 481.12 2649.28 483.447L2648.6 487.68 2649.91 490.951C2650.63 492.749 2652.71 495.911 2654.54 497.976 2656.37 500.04 2657.86 502.602 2657.86 503.669 2657.86 504.735 2658.31 505.886 2658.86 506.226 2659.41 506.566 2659.86 507.772 2659.86 508.905 2659.86 511.527 2663.45 522.862 2667.88 534.238 2668.31 535.338 2669.2 537.814 2669.87 539.74 2671.27 543.817 2671.74 545.028 2675.31 553.746 2676.77 557.322 2678.4 561.03 2678.92 561.985 2679.44 562.941 2679.87 564.39 2679.87 565.207 2679.87 566.023 2680.77 568.294 2681.87 570.253 2682.97 572.212 2683.87 574.215 2683.87 574.703 2683.87 575.192 2688.88 585.871 2695 598.433 2718.03 645.7 2725.88 662.039 2725.88 662.741 2725.88 663.139 2729.84 671.53 2734.69 681.386 2745.23 702.792 2748.28 710.199 2748.27 714.269L2748.26 717.314 2743.96 723.606C2741.59 727.067 2738.53 730.669 2737.17 731.609 2735.8 732.551 2732.57 735.346 2729.98 737.822 2727.4 740.298 2724.39 742.999 2723.3 743.824 2722.21 744.65 2719.17 747.066 2716.53 749.194L2711.75 753.063 2706.06 751.29C2699.99 749.396 2691.74 745.452 2674.87 736.382 2669.09 733.276 2662.11 729.63 2659.36 728.277 2656.61 726.926 2653.49 725.257 2652.43 724.568 2651.36 723.879 2647.23 721.29 2643.25 718.814 2624.33 707.055 2621.04 704.969 2613.95 700.215 2607.32 695.774 2595.43 687.177 2590.83 683.511 2589.99 682.844 2587.13 680.723 2584.46 678.798 2581.79 676.872 2577.75 673.602 2575.48 671.532L2571.35 667.769 2573.29 666.28 2575.23 664.792 2580.79 664.791 2586.35 664.791 2591.85 662.707C2597.2 660.679 2600.85 658.255 2600.85 656.725 2600.85 655.769 2589.7 645.018 2586.49 642.884 2575.75 635.73 2572.3 633.592 2564.84 629.448 2555.65 624.344 2552.62 622.554 2551.84 621.774 2550.42 620.347 2533.1 611.052 2523.84 606.743 2519.16 604.568 2514.21 602.084 2512.83 601.224 2504.38 595.936 2488.9 590.752 2485.48 592.064L2483.97 592.646 2483.34 596.956C2482.99 599.326 2483.62 618.148 2484.73 638.781L2486.76 676.296 2487.97 680.075 2489.18 683.852 2498.26 692.847C2507.48 701.992 2512.94 707.818 2518.33 714.27 2521.74 718.348 2523.51 720.151 2538.65 734.962 2544.64 740.816 2551.29 746.738 2553.44 748.119 2555.59 749.501 2560.25 753.602 2563.81 757.232 2567.37 760.862 2570.69 763.833 2571.18 763.833 2571.68 763.833 2573.56 765.07 2575.36 766.584 2578.5 769.22 2584.54 773.653 2589.32 776.838 2590.56 777.663 2594 780.172 2596.96 782.413 2599.93 784.653 2608.74 790.43 2616.55 795.251 2624.36 800.071 2631.23 804.6 2631.83 805.314L2632.91 806.612 2627.63 809.908C2615.57 817.445 2610.29 820.797 2609.3 821.555 2608.72 821.996 2607.15 823.001 2605.8 823.789 2604.45 824.577 2595.25 830.152 2585.35 836.179 2560.54 851.281 2555.47 854.266 2546.84 858.878 2542.71 861.083 2538.66 863.333 2537.84 863.878 2537.01 864.424 2533.41 866.501 2529.84 868.496 2519.32 874.363 2516.39 876.047 2515.33 876.849 2514.78 877.265 2510.06 879.772 2504.83 882.42 2499.61 885.068 2494.21 887.993 2492.83 888.921 2491.45 889.847 2482.23 894.79 2472.33 899.904 2462.42 905.018 2453.2 909.979 2451.82 910.927 2450.45 911.875 2440.32 917.026 2429.32 922.374 2418.31 927.721 2401.21 936.055 2391.31 940.892 2381.41 945.729 2370.6 950.902 2367.3 952.387 2364 953.872 2358.15 956.569 2354.3 958.379 2350.45 960.19 2344.15 963.112 2340.3 964.871 2336.45 966.631 2331.05 969.113 2328.3 970.386 2325.55 971.661 2316.09 975.73 2307.29 979.428 2298.49 983.128 2289.49 986.948 2287.29 987.92 2275.93 992.933 2268.12 996.259 2256.78 1000.92 2249.91 1003.74 2243.15 1006.54 2241.78 1007.13 2237.62 1008.91 2235.66 1009.71 2226.28 1013.45 2215.81 1017.62 2214.15 1018.3 2210.77 1019.74 2209.4 1020.34 2204 1022.46 2198.77 1024.47 2193.54 1026.48 2188.26 1028.53 2187.02 1029.03 2184.4 1030.09 2182.72 1030.75 2173.27 1034.44 2166.08 1037.25 2162.87 1038.57 2156.76 1041.24 2154.84 1042.09 2151.46 1043.32 2149.26 1043.98 2147.06 1044.64 2143.68 1045.85 2141.76 1046.67 2134.95 1049.56 2134.23 1049.83 2131.76 1050.5 2130.38 1050.87 2127.91 1051.74 2126.26 1052.44 2124.61 1053.13 2118.98 1055.37 2113.75 1057.41 2104.66 1060.96 2102.55 1061.8 2097.5 1063.88 2096.26 1064.39 2090.3 1066.68 2084.25 1068.96 2078.2 1071.24 2071.89 1073.7 2070.24 1074.42 2068.59 1075.14 2063.19 1077.39 2058.24 1079.43 2032.53 1090 2019.73 1097.06 2019.73 1100.67L2019.73 1103.12 2028.49 1102.62C2038.36 1102.05 2057.47 1099.69 2059.74 1098.75 2060.57 1098.41 2065.74 1097.61 2071.24 1096.98 2076.75 1096.34 2082.15 1095.44 2083.25 1094.99 2084.35 1094.53 2088.85 1093.65 2093.25 1093.03 2097.65 1092.42 2102.38 1091.71 2103.75 1091.46 2105.13 1091.21 2110.08 1090.52 2114.75 1089.93 2119.43 1089.33 2123.93 1088.57 2124.76 1088.22 2125.58 1087.88 2131.88 1086.81 2138.76 1085.84 2145.63 1084.87 2155.31 1083.34 2160.26 1082.44 2165.21 1081.53 2170.61 1080.59 2172.27 1080.35 2173.92 1080.12 2179.09 1079.27 2183.77 1078.47 2188.44 1077.67 2196.99 1076.3 2202.77 1075.43 2208.55 1074.55 2214.17 1073.44 2215.27 1072.96 2216.37 1072.48 2219.07 1071.84 2221.27 1071.55 2225.91 1070.93 2227.04 1070.75 2243.78 1067.98 2250.66 1066.85 2261.01 1065.23 2266.78 1064.39 2280.42 1062.41 2281.37 1062.25 2287.29 1060.95 2290.04 1060.34 2293.64 1059.66 2295.29 1059.43 2300.29 1058.73 2316.19 1056.07 2317.79 1055.66 2318.62 1055.45 2321.09 1054.92 2323.3 1054.49 2327.39 1053.69 2338.94 1049.43 2344.04 1046.83 2350.46 1043.57 2350.62 1044.79 2345.69 1058.79 2341.34 1071.15 2341.28 1071.35 2337.35 1088.47 2335.96 1094.52 2334.34 1101.27 2333.74 1103.47 2329.2 1120.13 2322.79 1164.66 2322.64 1180.51 2322.59 1186.56 2322.16 1192 2321.69 1192.59L2320.83 1193.67 2321.73 1205.6 2322.64 1217.52 2321.72 1218.47C2321.21 1218.99 2320.81 1222.59 2320.83 1226.47L2320.86 1233.53 2322.33 1235.47 2323.8 1237.41 2323.8 1243.71C2323.8 1249.87 2324.49 1253.92 2327.48 1265.04 2328.29 1268.07 2329.3 1271.89 2329.72 1273.54 2335.17 1294.98 2362.42 1321.58 2379.45 1322.08 2402.41 1322.77 2409.28 1322.3 2424.82 1318.96 2432.66 1317.28 2456.39 1307.7 2470.31 1300.59 2475.2 1298.1 2479.57 1296.05 2480.03 1296.05 2480.49 1296.05 2483.83 1294.25 2487.45 1292.05 2491.07 1289.85 2494.34 1288.05 2494.71 1288.05 2495.08 1288.05 2499.65 1285.51 2504.86 1282.4 2510.07 1279.3 2515.91 1276.03 2517.83 1275.13 2522.06 1273.17 2531.14 1267.89 2531.84 1266.99 2532.11 1266.64 2539.31 1262.16 2547.84 1257.05 2564.66 1246.97 2573.42 1241.41 2587.35 1232.02 2602.81 1221.6 2609.85 1217.02 2610.43 1217.02 2610.74 1217.02 2615.28 1213.98 2620.51 1210.27 2632.34 1201.88 2633.62 1201 2648.23 1191.35 2654.76 1187.04 2661.35 1182.61 2662.88 1181.51 2667.24 1178.35 2679.02 1170.06 2682.87 1167.44 2684.79 1166.12 2689.21 1163.12 2692.67 1160.77 2696.14 1158.42 2704.69 1152.34 2711.68 1147.27 2718.66 1142.2 2725.73 1137.12 2727.38 1135.98 2729.03 1134.83 2736.32 1129.53 2743.58 1124.19 2750.84 1118.85 2757.75 1113.8 2758.94 1112.98 2764.08 1109.39 2770.41 1104.41 2770.72 1103.72 2770.9 1103.31 2771.69 1102.97 2772.47 1102.97 2773.25 1102.97 2773.89 1102.54 2773.89 1102 2773.89 1101.46 2775.35 1100.27 2777.14 1099.36 2778.92 1098.44 2780.61 1097.42 2780.89 1097.08 2781.16 1096.74 2784.07 1094.44 2787.34 1091.96 2801.08 1081.58 2803.66 1079.54 2808.89 1074.93 2811.92 1072.26 2818.22 1067.08 2822.9 1063.4 2838.48 1051.16 2854.11 1036.35 2856.64 1031.44 2857.49 1029.79 2858.46 1028.22 2858.8 1027.94 2859.96 1027.01 2864.9 1018.99 2864.9 1018.04 2864.9 1017.53 2865.24 1016.95 2865.66 1016.77 2867.01 1016.17 2873.89 1000.57 2875.95 993.428 2877.06 989.576 2878.62 984.174 2879.42 981.423 2881.72 973.521 2883.75 958.5 2884.35 944.908L2884.91 932.403 2883.83 924.399C2883.23 919.998 2882.37 908.518 2881.92 898.889 2880.42 866.87 2872.86 849.011 2851.16 826.273L2844.4 819.184 2832.4 811.88C2825.8 807.862 2819.33 803.918 2818.03 803.116 2812.92 799.954 2801.71 794.368 2787.39 787.849 2765.68 777.962 2754.88 772.863 2754.88 772.491 2754.88 772.313 2756.51 768.829 2758.5 764.748 2760.49 760.668 2762.69 755.529 2763.4 753.328 2764.1 751.127 2765.83 746.175 2767.24 742.324 2770.76 732.682 2775.6 711.86 2776.43 702.807 2776.8 698.681 2777.53 694.787 2778.04 694.154L2778.97 693.005 2778.59 672.145 2778.21 651.286 2776.64 644.353C2775.22 638.103 2770.84 623.395 2768.87 618.272 2768.45 617.172 2766.24 611.319 2763.96 605.267 2761.69 599.215 2758.67 592.011 2757.26 589.26 2727.02 530.381 2712.58 499.683 2714.31 497.954 2714.6 497.668 2718.1 498.899 2722.1 500.69 2726.1 502.48 2732.43 505.046 2736.15 506.39L2742.92 508.835 2747.64 508.531 2752.36 508.227 2752.64 506.726C2753.29 503.272 2741.54 486.548 2724.64 466.864 2721.75 463.489 2717.12 458.018 2714.37 454.705 2711.62 451.392 2707.57 446.686 2705.37 444.245 2703.17 441.804 2697.1 434.982 2691.87 429.085 2673.26 408.084 2668.1 403.449 2666.1 405.935M1797.73 429.246C1792.43 438.9 1792.87 438.835 1780.98 431.728 1768.43 424.22 1769.79 423.951 1763.77 435.131 1757.42 446.913 1756.79 445.052 1769.78 452.952 1782.56 460.726 1781.36 460.851 1786.7 451.179 1791.66 442.2 1790.56 442.293 1802.78 449.806L1812.71 455.911 1814.16 455.354C1814.96 455.047 1817.04 451.962 1818.78 448.498 1820.52 445.034 1822.82 440.965 1823.88 439.455 1826.07 436.361 1808.26 421.691 1802.32 421.691 1802.07 421.691 1800.01 425.091 1797.73 429.246M1858.25 436.623C1857.89 437.209 1858.11 442.079 1858.75 447.446 1860.14 459.173 1861.42 470.799 1862.33 479.997 1862.7 483.73 1863.41 487.036 1863.91 487.346 1866.92 489.206 1911.06 463.662 1913.85 458.445L1914.89 456.503 1912.08 453.568C1906.71 447.956 1897.25 444.582 1870.7 438.812 1866.03 437.796 1861.46 436.648 1860.55 436.262 1859.65 435.876 1858.61 436.039 1858.25 436.623M1991.93 454.905C1991.27 455.565 1990.73 456.408 1990.73 456.78 1990.73 457.151 1988.49 461.449 1985.75 466.334 1983 471.218 1980.75 475.721 1980.74 476.342 1980.72 477.581 2003.98 491.889 2006.34 492.093L2007.81 492.22 2011.34 485.718C2013.29 482.141 2016.01 477.271 2017.39 474.896 2020.73 469.138 2020.74 469.148 2006.77 460.894 1993.57 453.096 1993.69 453.143 1991.93 454.905M2025.23 477.464C2024.16 479.528 2021.33 484.554 2018.96 488.634L2014.63 496.053 2015.93 497.347C2024.73 506.106 2042.03 513.213 2044.26 508.983 2045.35 506.923 2048.21 501.729 2050.62 497.44 2053.03 493.152 2054.76 489.399 2054.46 489.102 2045.81 480.448 2027.48 473.151 2025.23 477.464M1969.72 497.396 1963.53 509.074 1965.88 510.879C1967.17 511.873 1968.55 512.695 1968.95 512.707 1969.36 512.719 1972.11 514.279 1975.07 516.175 1983.99 521.883 1989.72 524.856 1990.67 524.268 1992.31 523.257 2001.89 505.27 2002.06 502.889L2002.23 500.551 1990.23 493.174C1975.26 483.979 1977.01 483.62 1969.72 497.396M2948.11 616.522C2939.06 629.273 2903.91 695.858 2903.91 700.252 2903.91 701.504 2905.05 704.198 2906.43 706.239L2908.95 709.95 2909.86 724.637C2910.36 732.714 2910.81 747.201 2910.86 756.83 2910.91 766.459 2911.65 785.367 2912.51 798.847 2913.37 812.328 2914.28 827.409 2914.54 832.361 2917.02 879.921 2919.3 924.814 2920.29 945.908 2920.95 959.939 2921.81 971.944 2922.21 972.586 2922.61 973.228 2923.36 984.257 2923.88 997.096 2924.41 1009.93 2925.3 1027.42 2925.88 1035.95 2928.84 1079.76 2931.71 1127.23 2932.85 1151.28 2933.4 1162.71 2934.15 1172.56 2934.52 1173.17 2935.24 1174.33 2937.15 1205.58 2938.91 1245.03 2939.49 1257.96 2940.39 1270.79 2940.91 1273.54 2941.44 1276.3 2942.59 1294.53 2943.47 1314.06 2944.36 1333.59 2945.48 1355.88 2945.98 1363.58 2946.47 1371.28 2947.33 1388.39 2947.88 1401.6 2948.43 1414.8 2949.33 1435.74 2949.87 1448.12 2953.02 1519.67 2953.77 1539.08 2953.87 1552.06 2953.94 1559.98 2954.18 1566.77 2954.41 1567.14 2954.64 1567.52 2955.04 1582.53 2955.3 1600.51L2955.76 1633.19 2948.09 1633.39C2943.87 1633.49 2939.29 1633.52 2937.92 1633.46 2936.54 1633.39 2927.54 1633.07 2917.92 1632.73 2886.67 1631.65 2873.67 1631.17 2858.9 1630.56 2850.93 1630.23 2839.9 1629.86 2834.4 1629.73 2809.22 1629.14 2784.62 1628.14 2783.88 1627.69 2782.89 1627.07 2760.27 1624.91 2757.13 1625.13 2749.63 1625.65 2744.11 1625.48 2733.88 1624.41 2727.55 1623.74 2713.6 1622.31 2702.87 1621.23 2692.15 1620.14 2678.87 1618.8 2673.37 1618.23 2667.86 1617.67 2658.64 1616.74 2652.86 1616.17 2647.09 1615.59 2638.08 1614.68 2632.86 1614.14 2627.63 1613.59 2617.16 1612.53 2609.58 1611.77 2602.01 1611.01 2595.26 1609.96 2594.58 1609.42 2593.9 1608.89 2588.17 1607.92 2581.85 1607.28 2575.52 1606.64 2566.29 1605.69 2561.34 1605.18 2556.39 1604.67 2547.17 1603.77 2540.84 1603.18 2534.51 1602.59 2525.96 1601.67 2521.84 1601.14 2517.71 1600.6 2512.85 1600.17 2511.03 1600.17 2509.22 1600.18 2506.52 1599.56 2505.03 1598.81 2503.55 1598.05 2497.42 1596.93 2491.41 1596.3 2477.84 1594.9 2477.48 1593.54 2488.86 1586.67 2489.78 1586.12 2493.94 1583.42 2498.13 1580.67 2509.24 1573.36 2516.56 1568.86 2523.34 1565.17 2526.64 1563.37 2529.79 1561.57 2530.34 1561.18 2531.51 1560.33 2541.86 1554.69 2553.72 1548.43 2558.35 1545.99 2562.86 1543.6 2563.74 1543.13 2564.62 1542.65 2569.85 1540.18 2575.35 1537.63 2590.34 1530.7 2592.61 1529.65 2601.85 1525.31 2606.53 1523.12 2614.18 1519.76 2618.86 1517.85 2623.53 1515.94 2633.5 1511.85 2641 1508.76 2648.51 1505.67 2654.91 1503.14 2655.23 1503.14 2655.54 1503.14 2658.26 1502.01 2661.27 1500.64 2664.28 1499.26 2667.38 1498.14 2668.16 1498.14 2668.95 1498.14 2672.69 1496.87 2676.48 1495.33 2680.27 1493.79 2687.42 1491.26 2692.37 1489.71 2697.32 1488.17 2704.47 1485.6 2708.25 1484.02 2712.04 1482.43 2715.98 1481.13 2717.02 1481.13 2718.05 1481.13 2719.68 1480.72 2720.64 1480.21 2721.59 1479.71 2724.58 1478.32 2727.27 1477.14L2732.16 1474.98 2734.39 1475.54C2735.62 1475.85 2738.48 1478.57 2740.76 1481.59 2743.04 1484.6 2745.8 1487.56 2746.91 1488.15L2748.92 1489.22 2751.6 1487.93 2754.28 1486.63 2755.83 1477.22 2757.38 1467.81 2762.38 1466.45C2773.48 1463.44 2775.47 1462.86 2777.39 1462.1 2780.33 1460.93 2788.9 1458.42 2792.63 1457.64 2794.41 1457.27 2796.12 1456.55 2796.44 1456.04 2796.75 1455.53 2798.05 1455.12 2799.32 1455.12 2800.6 1455.12 2803.61 1454.26 2806.02 1453.2 2808.42 1452.14 2812.19 1450.97 2814.39 1450.61 2816.6 1450.24 2820.2 1449.16 2822.4 1448.21 2824.6 1447.25 2827.91 1446.38 2829.76 1446.27 2831.61 1446.16 2834.07 1445.56 2835.24 1444.93 2836.4 1444.31 2838.71 1443.45 2840.38 1443.02 2869.49 1435.51 2871.33 1434.56 2877.79 1423.71 2880.44 1419.25 2884.48 1412.57 2886.76 1408.87 2889.04 1405.16 2890.91 1401.68 2890.91 1401.13 2890.91 1400.58 2892.46 1397.7 2894.36 1394.73 2897.47 1389.88 2902.56 1379.63 2906.61 1370.08 2907.42 1368.16 2908.73 1365.39 2909.5 1363.93 2910.28 1362.47 2910.91 1360.42 2910.91 1359.38 2910.91 1358.33 2911.45 1356.94 2912.11 1356.28L2913.31 1355.08 2912.11 1353.88C2911.45 1353.22 2910.91 1351.79 2910.91 1350.7 2910.91 1344.16 2855.76 1286.6 2838.51 1275.14 2837.35 1274.37 2835.38 1272.8 2834.14 1271.64 2829.21 1267.07 2828.23 1266.3 2823.65 1263.47 2821.04 1261.86 2818.9 1260.19 2818.9 1259.76 2818.89 1258.65 2796.29 1244.03 2794.59 1244.03 2793.82 1244.03 2791.07 1242.91 2788.49 1241.53 2785.9 1240.16 2782.25 1239.03 2780.38 1239.03 2778.5 1239.03 2773.54 1238.52 2769.36 1237.9L2761.74 1236.76 2759.38 1238.03C2758.08 1238.73 2756.37 1239.05 2755.57 1238.74 2754.78 1238.44 2752.38 1238.63 2750.25 1239.17 2748.12 1239.71 2744.36 1240.63 2741.88 1241.2 2739.4 1241.78 2736.7 1242.83 2735.88 1243.52 2735.05 1244.22 2733.25 1245.13 2731.88 1245.53 2725.07 1247.53 2711.46 1258.15 2706.44 1265.38 2705.37 1266.91 2703.46 1269.37 2702.18 1270.85 2699.47 1273.99 2691.87 1289.14 2691.87 1291.39 2691.87 1292.24 2691.42 1293.21 2690.87 1293.55 2690.32 1293.89 2689.87 1294.86 2689.87 1295.71 2689.87 1296.56 2689.26 1298.67 2688.52 1300.4 2686.47 1305.21 2685.1 1310.09 2684.39 1315.06 2684.04 1317.54 2683.37 1320.46 2682.89 1321.56 2682.41 1322.66 2681.56 1327.48 2680.99 1332.26 2680.42 1337.05 2679.41 1341.83 2678.75 1342.88L2677.55 1344.81 2678.34 1346.69C2678.77 1347.73 2679.2 1352.85 2679.28 1358.08 2679.37 1363.31 2679.95 1369.16 2680.57 1371.08 2681.19 1373.01 2682.69 1377.74 2683.89 1381.59 2686.94 1391.34 2690.57 1398.75 2695.09 1404.49 2700.31 1411.11 2699.86 1411.76 2686.37 1417.13 2683.07 1418.44 2679.79 1419.94 2679.09 1420.45 2678.39 1420.97 2677.55 1421.13 2677.23 1420.8 2676.91 1420.48 2675.02 1421.09 2673.02 1422.16 2671.03 1423.23 2668.9 1424.11 2668.3 1424.11 2666.83 1424.11 2647.91 1431.83 2646.48 1433.01 2645.86 1433.52 2640.63 1435.79 2634.86 1438.07 2619.96 1443.93 2609.68 1448.18 2607.35 1449.42 2606.25 1450.01 2603.1 1451.57 2600.35 1452.89 2581.7 1461.84 2557.36 1474.17 2552.07 1477.35 2548.63 1479.43 2545.63 1481.13 2545.42 1481.13 2545.21 1481.13 2542.18 1482.93 2538.69 1485.13 2535.2 1487.34 2531.44 1489.58 2530.34 1490.12 2526.38 1492.07 2517.06 1497.71 2511.75 1501.36 2508.77 1503.42 2505.43 1505.71 2504.33 1506.46 2503.23 1507.22 2499.7 1509.53 2496.47 1511.61 2493.25 1513.69 2488.4 1517.36 2485.69 1519.77 2482.98 1522.18 2480.39 1524.15 2479.93 1524.15 2476.06 1524.15 2442.25 1556.5 2429.75 1572.17 2425.14 1577.95 2419.93 1584.16 2418.18 1585.99 2416.42 1587.81 2412.72 1592.76 2409.95 1596.99 2407.18 1601.22 2403.79 1606.06 2402.42 1607.75 2401.05 1609.44 2397.37 1615.25 2394.25 1620.66 2391.13 1626.07 2386.68 1633.46 2384.37 1637.09 2382.05 1640.73 2379.45 1645.27 2378.57 1647.2 2377.7 1649.12 2375.66 1653.63 2374.04 1657.2 2372.42 1660.78 2370.85 1665.63 2370.54 1667.98L2369.99 1672.25 2371.28 1673.54 2372.57 1674.83 2383.94 1676.05C2390.19 1676.73 2399.36 1677.69 2404.31 1678.2 2409.26 1678.71 2418.08 1679.65 2423.89 1680.3L2434.48 1681.47 2436.58 1680.34C2437.73 1679.73 2439.27 1679.43 2440 1679.68 2440.72 1679.94 2450.77 1681.06 2462.32 1682.18 2489.43 1684.8 2501.18 1686.01 2512.54 1687.36 2517.6 1687.96 2523.68 1688.17 2526.04 1687.82L2530.34 1687.19 2565.34 1690.73C2606.89 1694.93 2616.9 1695.94 2630.86 1697.28 2636.63 1697.84 2651.94 1699.38 2664.86 1700.71 2677.79 1702.03 2691.52 1703.43 2695.37 1703.8 2699.22 1704.18 2702.86 1704.87 2703.45 1705.34 2704.78 1706.38 2716.76 1708.17 2722.88 1708.24L2727.38 1708.29 2725.1 1710.19C2723.84 1711.24 2720.24 1712.62 2717.09 1713.26 2713.95 1713.9 2709.8 1715.01 2707.87 1715.73 2702.75 1717.65 2693.73 1720.23 2685.02 1722.27 2666 1726.73 2651.19 1730.51 2634.86 1735.05 2630.73 1736.19 2624.66 1737.87 2621.36 1738.77 2618.05 1739.67 2614 1740.79 2612.35 1741.24 2610.7 1741.7 2606.43 1742.83 2602.85 1743.75 2599.28 1744.66 2594.44 1746.27 2592.11 1747.33 2589.78 1748.38 2587.3 1749.24 2586.61 1749.24 2583.09 1749.24 2553.69 1762.07 2552.39 1764.17 2552.02 1764.76 2550.85 1765.25 2549.78 1765.25 2548.71 1765.25 2547.84 1765.64 2547.84 1766.12 2547.84 1766.59 2545.7 1767.94 2543.09 1769.12 2533.8 1773.29 2503.81 1795.71 2501.23 1800.4 2500.74 1801.31 2497.12 1805.96 2493.2 1810.74 2489.28 1815.53 2485.46 1820.63 2484.7 1822.09 2483.94 1823.54 2480.51 1829.36 2477.08 1835.01 2473.64 1840.66 2470.83 1845.65 2470.83 1846.1 2470.83 1846.54 2469.92 1848.77 2468.82 1851.05 2467.72 1853.33 2466.81 1856 2466.79 1856.99 2466.78 1857.98 2466.1 1859.66 2465.29 1860.73 2464.48 1861.8 2463.82 1863.68 2463.82 1864.92 2463.82 1866.16 2463.37 1867.45 2462.82 1867.79 2462.27 1868.13 2461.81 1870.07 2461.79 1872.1 2461.77 1874.13 2461.1 1876.67 2460.29 1877.74 2459.48 1878.8 2458.82 1880.49 2458.82 1881.49 2458.82 1884.76 2447.74 1877.54 2438.74 1868.41 2437.32 1866.97 2433.03 1862.86 2429.21 1859.29 2420.48 1851.12 2404.94 1831.54 2401.43 1824.27 2399.96 1821.25 2397.41 1816.52 2395.75 1813.77 2394.09 1811.02 2392.07 1807.19 2391.25 1805.26 2390.43 1803.34 2389.32 1801.09 2388.78 1800.26 2388.24 1799.44 2387.53 1798.09 2387.2 1797.26 2384.24 1789.78 2380.24 1780.54 2379.56 1779.61 2379.11 1778.97 2378.56 1777.62 2378.35 1776.6 2377.46 1772.19 2373.62 1758.57 2372.75 1756.74 2372.23 1755.64 2370.89 1750.47 2369.78 1745.24 2367.31 1733.58 2367.14 1732.84 2365.82 1727.23 2363.27 1716.38 2361.58 1707.13 2360.7 1699.22 2360.18 1694.54 2359.09 1688.09 2358.28 1684.87 2357.46 1681.66 2357 1678.71 2357.24 1678.31 2357.48 1677.92 2357.23 1672.89 2356.68 1667.15 2355.05 1650.12 2354.52 1633.48 2353.67 1572.67 2353.57 1565.51 2353.12 1559.18 2352.67 1558.59 2352.22 1558 2352.28 1554.89 2352.8 1551.69 2353.32 1548.49 2353.47 1545.42 2353.13 1544.88 2352.56 1543.95 2352.18 1538.74 2351.45 1521.58 2351.29 1517.7 2350.86 1514.05 2350.51 1513.48 2350.16 1512.91 2349.84 1510.46 2349.81 1508.04 2349.72 1500.7 2349.68 1500 2348.66 1489.13 2348.12 1483.36 2347.46 1475.7 2347.18 1472.13 2346.91 1468.55 2346.52 1464.05 2346.32 1462.12 2346.12 1460.2 2345.65 1455.47 2345.28 1451.62 2344.91 1447.77 2344.15 1444.06 2343.59 1443.38 2343.03 1442.7 2342.83 1441.12 2343.14 1439.88 2343.45 1438.63 2343.27 1434.91 2342.73 1431.61 2342.2 1428.31 2341.74 1424.93 2341.71 1424.11 2341.68 1423.28 2341.21 1420.35 2340.67 1417.6 2340.12 1414.85 2339.48 1410.4 2339.25 1407.71 2339.01 1405.03 2338.43 1402.33 2337.96 1401.71 2337.49 1401.1 2336.33 1395.87 2335.38 1390.09 2332.5 1372.62 2329.66 1357.69 2328.81 1355.58 2328.37 1354.48 2327.45 1350.88 2326.77 1347.57 2326.08 1344.27 2324.66 1338.2 2323.6 1334.07 2322.55 1329.94 2321.06 1323.64 2320.31 1320.06 2319.55 1316.49 2318.26 1311.53 2317.43 1309.06 2316.61 1306.58 2314.49 1299.83 2312.73 1294.05 2310.97 1288.28 2308.69 1281.04 2307.66 1277.98 2306.63 1274.92 2305.79 1271.45 2305.79 1270.28 2305.79 1269.12 2305.4 1267.92 2304.93 1267.62 2304.45 1267.33 2303.54 1264.46 2302.91 1261.25 2302.28 1258.03 2300.85 1253.63 2299.73 1251.47 2297.62 1247.39 2294.64 1239.68 2292.3 1232.23 2291.56 1229.86 2290.26 1226.87 2289.42 1225.59 2288.58 1224.3 2286.9 1220.15 2285.69 1216.38 2284.48 1212.61 2282.21 1206.69 2280.64 1203.24 2279.07 1199.79 2277.79 1196.68 2277.79 1196.34 2277.79 1190.74 2254.04 1150.99 2250.7 1150.99L2249.08 1150.99 2247.49 1154.74C2246.62 1156.81 2245.36 1160.3 2244.7 1162.5 2244.04 1164.7 2243.09 1167.42 2242.58 1168.54 2242.08 1169.67 2241.55 1171.24 2241.42 1172.05 2241.29 1172.85 2240.64 1174.49 2239.98 1175.69 2239.32 1176.89 2238.76 1179.14 2238.75 1180.69 2238.73 1182.24 2238.05 1184.38 2237.25 1185.45 2236.44 1186.52 2235.78 1188.63 2235.78 1190.14 2235.78 1191.66 2235.33 1193.17 2234.78 1193.51 2234.23 1193.85 2233.76 1195.34 2233.74 1196.82 2233.72 1198.3 2233.06 1200.64 2232.28 1202.01 2231.49 1203.39 2230.82 1206.09 2230.78 1208.02 2230.74 1209.94 2230.05 1212.39 2229.24 1213.46 2228.44 1214.53 2227.78 1217.03 2227.78 1219.01 2227.78 1221 2227.23 1223.17 2226.55 1223.85L2225.33 1225.07 2225.44 1232.41C2225.5 1236.44 2226.06 1240.69 2226.68 1241.85 2227.3 1243.01 2228.49 1247.46 2229.32 1251.75 2230.15 1256.03 2231.73 1262.46 2232.82 1266.04 2239.09 1286.6 2242.03 1296.61 2242.33 1298.47 2242.52 1299.61 2243.62 1303.71 2244.78 1307.56 2245.95 1311.41 2247.32 1316.36 2247.84 1318.56 2250.34 1329.23 2251.94 1335.46 2254.78 1345.57 2256.48 1351.63 2258.29 1358.38 2258.79 1360.58 2259.29 1362.78 2260.41 1367.06 2261.28 1370.08 2262.15 1373.11 2263.5 1378.51 2264.27 1382.09 2265.04 1385.67 2266.55 1391.97 2267.64 1396.09 2268.72 1400.22 2270.35 1407.2 2271.27 1411.6 2272.18 1416 2273.31 1420.51 2273.79 1421.61 2274.26 1422.71 2275.37 1427.88 2276.25 1433.11 2277.13 1438.34 2278.46 1444.42 2279.22 1446.62 2279.97 1448.82 2281.79 1457.15 2283.27 1465.12 2284.75 1473.1 2286.34 1480.53 2286.8 1481.63 2287.27 1482.73 2288.12 1486.56 2288.7 1490.13 2289.29 1493.71 2290.43 1500.46 2291.24 1505.14 2292.05 1509.82 2293.23 1517.25 2293.87 1521.65 2294.5 1526.05 2295.47 1530.62 2296.02 1531.81 2296.57 1532.99 2296.78 1534.36 2296.48 1534.84 2296.18 1535.33 2296.82 1541.11 2297.91 1547.69 2299 1554.28 2300.09 1562.36 2300.35 1565.67 2300.61 1568.97 2301.31 1572.88 2301.9 1574.36 2302.5 1575.84 2302.74 1577.45 2302.44 1577.94 2302.13 1578.43 2302.45 1584.87 2303.14 1592.25 2305 1612.23 2304.62 1626.96 2301.65 1649.96 2301.06 1654.5 2300.18 1658.46 2299.69 1658.77 2299.19 1659.07 2298.79 1660.41 2298.79 1661.73 2298.79 1665.26 2284.13 1687.13 2275.34 1696.72 2272.31 1700.02 2268.36 1704.74 2266.56 1707.21 2264.76 1709.68 2261.71 1713.05 2259.78 1714.7 2257.86 1716.35 2253.58 1720.41 2250.27 1723.72 2235.77 1738.24 2219.97 1752.65 2213.91 1756.88 2210.31 1759.41 2204.83 1763.67 2201.74 1766.36 2198.65 1769.05 2195.76 1771.25 2195.33 1771.25 2194.9 1771.25 2192.4 1773.05 2189.77 1775.25 2187.14 1777.45 2184.49 1779.25 2183.88 1779.25 2183.27 1779.25 2181.08 1780.73 2179.02 1782.54 2175.73 1785.42 2169.94 1789.6 2164.87 1792.76 2163.98 1793.31 2161.91 1794.67 2160.26 1795.78 2158.61 1796.89 2156.02 1798.43 2154.51 1799.2 2153 1799.97 2151.76 1800.97 2151.76 1801.43 2151.76 1801.89 2151.16 1802.26 2150.42 1802.26 2149.69 1802.26 2147.55 1803.4 2145.67 1804.8 2137.16 1811.12 2122.24 1820.14 2110.66 1825.96 2109.24 1826.67 2107.26 1828.16 2106.26 1829.27 2105.26 1830.37 2103.65 1831.28 2102.68 1831.28 2101.71 1831.28 2100.77 1831.68 2100.58 1832.18 2100.13 1833.42 2072.15 1847.99 2053.74 1856.58 2040.04 1862.98 2019.18 1871.29 2016.85 1871.29 2015.75 1871.29 2014.59 1871.71 2014.28 1872.22 2013.97 1872.72 2012.25 1873.43 2010.47 1873.79 2008.69 1874.15 2005.43 1875.04 2003.23 1875.76 1994.45 1878.65 1984.87 1881.31 1978.06 1882.76 1974.12 1883.6 1969.62 1884.77 1968.06 1885.37 1966.5 1885.97 1962.75 1886.68 1959.72 1886.95 1956.7 1887.21 1951.07 1887.75 1947.22 1888.15 1943.37 1888.55 1933.84 1888.79 1926.03 1888.69L1911.85 1888.51 1909.56 1886.9 1907.27 1885.3 1902.18 1885.3 1897.09 1885.3 1895.15 1883.83C1894.08 1883.02 1891.98 1882.35 1890.47 1882.33 1888.97 1882.31 1883.12 1880.08 1877.47 1877.37L1867.2 1872.44 1861.09 1866.61C1849.61 1855.66 1840.69 1841.56 1839.21 1832.01 1838.85 1829.68 1837.87 1826.27 1837.03 1824.43L1835.51 1821.08 1836.13 1817.75C1836.48 1815.92 1836.39 1814.19 1835.93 1813.91 1833.87 1812.64 1835.96 1772.62 1838.32 1768.25 1839.06 1766.87 1840.1 1762.82 1840.62 1759.25 1841.14 1755.67 1842.29 1749.82 1843.19 1746.24 1844.08 1742.66 1845.15 1738.16 1845.58 1736.24 1846 1734.31 1846.88 1731.75 1847.52 1730.55 1848.17 1729.35 1848.71 1727.32 1848.73 1726.05 1848.75 1724.77 1849.42 1722.86 1850.23 1721.79 1851.04 1720.72 1851.7 1718.87 1851.7 1717.67 1851.7 1715.69 1853.77 1709.63 1857.14 1701.72 1860.34 1694.21 1861.02 1692.59 1861.71 1690.72 1862.11 1689.62 1863.68 1686.02 1865.18 1682.71 1867.96 1676.63 1869.36 1673.32 1870.72 1669.71 1871.14 1668.61 1873.04 1664.33 1874.94 1660.2 1876.85 1656.08 1878.98 1650.9 1879.68 1648.7 1880.38 1646.5 1881.35 1643.92 1881.83 1642.96 1884.09 1638.48 1881.19 1632.19 1876.87 1632.19 1874.9 1632.19 1867.8 1637.13 1867.74 1638.54 1867.72 1639.01 1866.85 1640.58 1865.82 1642.04 1864.78 1643.5 1860.68 1651 1856.7 1658.7 1852.72 1666.41 1848.7 1673.83 1847.77 1675.21 1846.83 1676.59 1844.92 1680.19 1843.52 1683.21 1842.12 1686.24 1838.85 1693.22 1836.26 1698.72 1833.67 1704.22 1831.17 1709.62 1830.72 1710.73 1830.27 1711.83 1829.18 1714.37 1828.3 1716.38 1827.42 1718.39 1826.7 1720.44 1826.7 1720.94 1826.7 1721.44 1825.79 1723.72 1824.69 1726 1823.59 1728.27 1822.69 1730.72 1822.69 1731.44 1822.68 1732.15 1821.57 1734.99 1820.22 1737.74 1818.86 1740.49 1817.74 1743.57 1817.72 1744.59 1817.71 1745.61 1817.08 1747.86 1816.32 1749.59 1815.57 1751.32 1814.4 1754.77 1813.72 1757.24 1813.04 1759.72 1812.02 1762.87 1811.45 1764.25 1810.46 1766.63 1809.63 1769.87 1807.72 1778.75 1807.25 1780.95 1806.17 1784.56 1805.32 1786.76 1804.47 1788.96 1803.76 1792.13 1803.73 1793.81 1803.71 1795.49 1803.28 1797.29 1802.77 1797.81 1802.26 1798.33 1801.29 1804.16 1800.6 1810.77 1799.91 1817.37 1798.88 1823.38 1798.32 1824.12 1796.99 1825.85 1796.31 1849.96 1797.24 1862.29 1797.51 1865.86 1797.74 1870.07 1797.74 1871.63 1797.75 1873.2 1798.47 1877.7 1799.34 1881.64 1800.21 1885.58 1801.09 1890.83 1801.29 1893.3 1801.49 1895.78 1802.82 1900.95 1804.26 1904.81 1805.69 1908.66 1807.5 1913.89 1808.28 1916.44 1809.06 1918.99 1810.37 1921.63 1811.2 1922.32 1812.02 1923 1812.69 1923.92 1812.69 1924.37 1812.69 1930.61 1837.72 1960.34 1847.7 1965.96 1850.17 1967.36 1854.45 1969.78 1857.2 1971.34 1859.95 1972.9 1863 1974.21 1863.97 1974.25 1864.94 1974.3 1866.51 1974.72 1867.47 1975.19 1873.82 1978.31 1876.99 1979.23 1883.07 1979.73 1886.85 1980.03 1890.45 1980.66 1891.07 1981.12 1892.29 1982.02 1917.59 1981.83 1929.22 1980.84 1933.07 1980.51 1937.08 1980.24 1938.13 1980.24 1939.18 1980.24 1940.76 1979.85 1941.63 1979.38 1942.51 1978.91 1947.38 1977.81 1952.44 1976.94 1957.51 1976.06 1963.35 1974.72 1965.44 1973.96 1967.52 1973.2 1971.92 1971.78 1975.22 1970.81 1982.09 1968.79 1987.9 1966.75 1992.23 1964.85 1993.88 1964.12 2003.11 1960.36 2012.73 1956.48 2022.36 1952.61 2034.29 1947.36 2039.24 1944.82 2053.18 1937.67 2062.81 1932.5 2064.08 1931.48 2064.72 1930.98 2066.29 1930.24 2067.56 1929.85 2068.84 1929.46 2073.24 1927.15 2077.34 1924.72 2081.45 1922.3 2085.19 1920.31 2085.65 1920.31 2086.12 1920.31 2087.12 1919.57 2087.88 1918.66 2088.63 1917.75 2090.6 1916.38 2092.25 1915.63 2095.88 1913.96 2102.06 1910.32 2102.75 1909.44 2103.27 1908.79 2105.78 1907.35 2114.15 1902.9 2116.84 1901.48 2119.7 1899.76 2120.51 1899.09 2122.36 1897.56 2125.4 1895.76 2129.34 1893.89 2131.03 1893.08 2133.02 1891.68 2133.77 1890.79 2134.51 1889.89 2136.73 1888.33 2138.69 1887.33 2140.65 1886.33 2143.12 1884.56 2144.16 1883.4 2145.21 1882.24 2146.58 1881.3 2147.2 1881.3 2147.83 1881.3 2149.89 1879.96 2151.8 1878.34 2153.7 1876.71 2155.67 1875.36 2156.16 1875.33 2156.65 1875.31 2158.98 1873.72 2161.33 1871.79 2163.68 1869.87 2166.01 1868.29 2166.51 1868.29 2167 1868.29 2170.27 1865.81 2173.77 1862.79 2177.26 1859.76 2180.53 1857.29 2181.03 1857.29 2181.53 1857.29 2185.36 1854.36 2189.53 1850.78 2193.7 1847.21 2197.56 1844.28 2198.09 1844.28 2199.37 1844.28 2208.88 1836.15 2215.75 1829.17 2218.79 1826.09 2225.78 1819.6 2231.28 1814.76 2236.78 1809.91 2241.42 1805.46 2241.59 1804.86 2241.77 1804.26 2244.36 1801.8 2247.35 1799.4 2250.34 1797 2252.78 1794.44 2252.78 1793.7 2252.78 1792.97 2253.7 1791.73 2254.83 1790.94 2257.36 1789.17 2271.79 1772.41 2271.79 1771.24 2271.79 1770.78 2272.53 1769.65 2273.44 1768.74 2275.49 1766.69 2282.79 1755.47 2282.79 1754.37 2282.79 1753.93 2284.1 1750.9 2285.69 1747.65 2289.76 1739.37 2292.13 1733.98 2295.73 1724.73 2299.06 1716.19 2300.49 1712.77 2301.91 1709.99 2302.39 1709.03 2302.79 1707.57 2302.79 1706.73 2302.79 1705.9 2303.92 1702.88 2305.29 1700.03 2306.67 1697.18 2307.79 1694.05 2307.79 1693.09 2307.79 1692.12 2308.24 1691.06 2308.79 1690.72 2309.34 1690.38 2309.79 1688.8 2309.79 1687.22 2309.79 1685.63 2310.24 1684.05 2310.79 1683.71 2311.34 1683.37 2311.79 1682.4 2311.79 1681.56 2311.79 1679.64 2314.89 1672.98 2315.5 1673.58 2315.75 1673.83 2316.14 1681.61 2316.37 1690.88 2316.61 1700.14 2317.04 1710.65 2317.34 1714.23 2317.64 1717.8 2318.05 1724.11 2318.25 1728.23 2318.45 1732.36 2320.01 1745.86 2321.73 1758.24 2324.54 1778.5 2325.73 1785.19 2330.19 1805.76 2330.9 1809.07 2333.14 1816.14 2335.15 1821.48 2337.15 1826.82 2338.8 1832 2338.8 1832.98 2338.81 1834.92 2343.67 1847.91 2346.22 1852.78 2347.08 1854.43 2347.79 1856.39 2347.79 1857.13 2347.8 1858.87 2357.54 1879.64 2362.41 1888.3 2363.49 1890.22 2365.25 1893.83 2366.31 1896.3 2367.37 1898.78 2369.88 1903.05 2371.88 1905.81 2373.88 1908.56 2375.75 1911.5 2376.05 1912.36 2376.35 1913.21 2379.24 1917.26 2382.49 1921.36 2385.73 1925.46 2392.18 1933.77 2396.82 1939.82 2404.71 1950.11 2425.78 1972.33 2427.65 1972.33 2428.11 1972.33 2430.47 1974.18 2432.9 1976.44 2440.9 1983.88 2463.2 1999.86 2473.33 2005.4 2476.63 2007.21 2481.35 2009.8 2483.83 2011.16 2486.3 2012.52 2491.7 2015.41 2495.83 2017.57 2499.96 2019.74 2504.04 2022.15 2504.91 2022.93 2505.78 2023.71 2507.22 2024.36 2508.1 2024.36 2508.99 2024.36 2509.99 2024.81 2510.33 2025.36 2510.67 2025.91 2511.76 2026.36 2512.74 2026.36 2513.73 2026.36 2516.65 2027.48 2519.24 2028.86 2521.83 2030.23 2524.41 2031.36 2524.99 2031.36 2525.56 2031.36 2529.35 2032.93 2533.41 2034.86 2537.46 2036.79 2541.58 2038.36 2542.56 2038.37 2543.54 2038.38 2546.59 2039.49 2549.34 2040.84 2552.09 2042.19 2555.47 2043.33 2556.84 2043.36 2558.22 2043.4 2560.22 2044.09 2561.28 2044.9 2562.35 2045.7 2564.24 2046.36 2565.48 2046.36 2566.71 2046.36 2568 2046.81 2568.34 2047.36 2568.69 2047.92 2569.98 2048.37 2571.21 2048.37 2572.45 2048.37 2574.34 2049.03 2575.41 2049.83 2576.47 2050.64 2578.78 2051.32 2580.54 2051.33 2582.29 2051.35 2583.98 2051.78 2584.29 2052.28 2584.6 2052.78 2586.77 2053.5 2589.1 2053.88 2591.44 2054.25 2594.3 2055.16 2595.46 2055.89 2596.62 2056.63 2601.12 2057.42 2605.46 2057.66 2609.8 2057.89 2616.05 2058.64 2619.34 2059.32L2625.33 2060.56 2628.1 2057.25C2629.62 2055.43 2630.86 2052.8 2630.86 2051.4 2630.87 2050.01 2631.54 2047.58 2632.36 2046 2633.19 2044.42 2633.86 2042.12 2633.86 2040.87 2633.86 2039.63 2634.47 2036.87 2635.22 2034.74 2635.97 2032.6 2636.9 2028.28 2637.29 2025.12 2637.68 2021.97 2638.36 2019.16 2638.8 2018.89 2639.24 2018.62 2639.91 2015.57 2640.29 2012.12 2640.67 2008.67 2641.58 2004.05 2642.32 2001.85 2643.05 1999.65 2643.98 1993.91 2644.37 1989.09 2644.77 1984.28 2645.49 1980.34 2645.98 1980.34 2647.45 1980.34 2646.92 1976.97 2645.09 1974.65 2643.09 1972.12 2630.45 1965.33 2627.75 1965.33 2626.74 1965.33 2624.22 1964.35 2622.14 1963.16 2617.46 1960.48 2612.66 1957.86 2602.39 1952.36 2598.01 1950.02 2593.01 1947.02 2591.29 1945.71 2589.57 1944.4 2587.86 1943.32 2587.49 1943.32 2587.13 1943.32 2584.59 1941.75 2581.85 1939.82 2579.11 1937.89 2576.38 1936.32 2575.79 1936.32 2575.2 1936.32 2573.28 1935.23 2571.53 1933.9 2569.78 1932.57 2565.62 1929.76 2562.28 1927.65 2548.36 1918.85 2539.81 1912.81 2529.92 1904.81 2527.88 1903.15 2524.49 1900.45 2522.39 1898.8 2506.29 1886.17 2494.83 1871.5 2494.83 1863.5L2494.83 1860.13 2499.58 1855.67C2503.77 1851.74 2509.67 1848.38 2521.84 1842.99 2527.57 1840.46 2536.26 1837.28 2537.47 1837.28 2538.09 1837.28 2540.34 1836.5 2542.47 1835.56 2544.6 1834.61 2546.79 1833.79 2547.34 1833.73 2548.73 1833.59 2556.55 1831.3 2561.34 1829.64 2563.54 1828.87 2569.4 1827.35 2574.35 1826.26 2579.3 1825.16 2584.25 1824 2585.35 1823.68 2586.45 1823.36 2588.92 1822.72 2590.85 1822.26 2592.77 1821.79 2598.85 1820.31 2604.35 1818.96 2609.85 1817.61 2617.73 1815.74 2621.86 1814.8 2625.98 1813.87 2630.03 1812.84 2630.86 1812.51 2631.68 1812.18 2633.13 1811.83 2634.07 1811.73 2635.01 1811.63 2637.03 1811.06 2638.57 1810.48 2640.1 1809.89 2646.54 1808.19 2652.86 1806.69 2659.19 1805.2 2668.64 1802.88 2673.87 1801.52 2686.88 1798.16 2704.05 1794.16 2705.87 1794.06 2706.7 1794.02 2707.82 1793.65 2708.37 1793.24 2708.92 1792.82 2711.4 1792.16 2713.87 1791.76 2716.35 1791.36 2718.83 1790.69 2719.38 1790.28 2719.93 1789.87 2721.05 1789.54 2721.88 1789.54 2723.38 1789.55 2735.32 1786.88 2741.88 1785.07 2745.97 1783.94 2763.33 1779.86 2773.39 1777.67 2777.24 1776.83 2781.29 1775.75 2782.39 1775.25 2784.13 1774.47 2795.54 1771.82 2801.39 1770.84 2802.49 1770.66 2803.39 1770.42 2803.39 1770.32 2803.39 1770.22 2806.54 1769.25 2810.39 1768.17 2817.2 1766.27 2821.36 1765.23 2844.4 1759.68 2850.45 1758.22 2859 1756.14 2863.4 1755.05 2867.81 1753.97 2874.8 1752.28 2878.94 1751.31 2883.09 1750.34 2887.37 1749.09 2888.45 1748.53 2889.53 1747.97 2891.99 1747.25 2893.91 1746.91 2896.8 1746.41 2903.04 1744.8 2917.92 1740.7 2918.74 1740.48 2923.47 1739.34 2928.42 1738.17 2933.37 1737.01 2937.87 1735.94 2938.42 1735.8 2938.97 1735.66 2940.77 1735.21 2942.42 1734.8 2944.07 1734.39 2946.84 1733.41 2948.57 1732.64 2950.31 1731.87 2952.88 1731.23 2954.28 1731.23L2956.84 1731.23 2956.4 1757.37C2955.99 1781.83 2955.76 1787.99 2954.36 1813.77 2953.72 1825.38 2952.26 1843.9 2950.97 1856.79 2950.47 1861.74 2950.04 1869.62 2950.01 1874.29L2949.95 1882.8 2951.21 1885.3 2952.47 1887.8 2955.57 1888.1 2958.67 1888.41 2963.88 1882.6 2969.1 1876.79 2974.96 1864.79C2981.26 1851.89 2983.21 1846.74 2990.3 1824.27 2995.85 1806.67 2999.41 1793.37 3001.42 1782.73 3005.9 1759.07 3009.79 1734.2 3010.5 1724.73 3010.62 1723.08 3011.05 1717.9 3011.46 1713.23L3012.19 1704.72 3016.99 1696.12C3019.63 1691.38 3023.62 1684.67 3025.87 1681.2 3028.1 1677.74 3029.94 1674.25 3029.94 1673.46 3029.94 1672.67 3030.89 1670.68 3032.05 1669.04 3033.22 1667.41 3036.56 1661.39 3039.48 1655.68L3044.78 1645.28 3045.11 1641.49 3045.44 1637.69 3037.44 1636.56 3029.44 1635.43 3027.57 1636.41C3025.62 1637.44 3017.32 1636.62 3016.52 1635.32 3015.97 1634.43 3015.93 1631.59 3015.79 1576.67 3015.61 1504.92 3014.8 1464.7 3012.97 1437.14 3012.52 1430.29 3012.47 1423.76 3012.86 1422.64 3013.8 1419.96 3009.45 1319.22 3007.48 1298.05 3006.63 1288.98 3005.47 1269.9 3004.88 1255.66 3004.3 1241.43 3003.39 1221.85 3002.85 1212.15 3002.32 1202.45 3001.47 1185.96 3000.97 1175.5 3000.47 1165.05 2999.61 1153.34 2999.07 1149.49 2998.53 1145.64 2997.82 1136.64 2997.49 1129.48 2996.56 1109.32 2995.03 1084.3 2993.44 1063.46 2992.64 1053 2991.53 1036.57 2990.98 1026.94 2990.43 1017.31 2989.51 1001.56 2988.94 991.927 2988.38 982.298 2987.92 971.633 2987.92 968.227 2987.93 964.82 2987.48 961.755 2986.93 961.415L2985.93 960.797 2985.93 951.102C2985.93 945.769 2985.49 935.554 2984.96 928.401 2984.42 921.248 2983.31 900.765 2982.49 882.882 2981.66 865 2980.72 845.078 2980.4 838.614L2979.81 826.859 2980.83 826.859C2981.39 826.859 2983.75 829.673 2986.06 833.111 2996.86 849.148 3007.31 861.03 3013.84 864.701L3017.76 866.906 3019.43 865.236 3021.1 863.566 3020.54 860.469C3020.23 858.765 3019.53 851.519 3018.99 844.366 3017.68 827.145 3012.38 801.726 3005.01 777.338 3003.84 773.487 3002.49 768.76 3001.99 766.834 3000.44 760.761 2998.73 754.419 2997.95 751.828 2997.53 750.452 2995.94 745.05 2994.4 739.823 2992.87 734.596 2990.4 726.492 2988.92 721.816 2987.43 717.139 2985.72 711.511 2985.12 709.31 2979.3 688.104 2963.21 638.347 2957.93 625.275 2952.98 613 2951.52 611.706 2948.11 616.522M1488.85 619.523C1481.42 623.53 1472.29 634.902 1466.3 647.607L1463.15 654.288 1462.79 661.94 1462.42 669.591 1466.3 673.478C1470.54 677.713 1474.33 679.767 1484.45 683.307 1493 686.296 1493 686.291 1484.81 696.026 1470.94 712.536 1451.34 730.351 1420.11 754.839 1402.74 768.465 1373.31 792.403 1366.08 798.792 1363.86 800.748 1359.6 804.375 1356.6 806.85 1330.28 828.585 1339.92 825.232 1379.45 798.9 1387.34 793.644 1395.25 788.443 1397.03 787.343 1434.28 764.315 1482.73 718.755 1496.5 693.804L1499.54 688.302 1503.71 688.584C1506.01 688.74 1508.69 689.301 1509.69 689.832L1511.49 690.797 1513.56 688.163C1516.24 684.759 1517.89 679.182 1517.47 674.938L1517.13 671.579 1512.63 670.095C1510.16 669.278 1507.59 668.089 1506.94 667.452L1505.75 666.292 1507.26 659.289C1509.17 650.448 1509.15 637.879 1507.22 630.889L1505.74 625.498 1502.99 622.629C1501.48 621.052 1498.64 619.316 1496.69 618.772 1492.17 617.518 1492.65 617.471 1488.85 619.523M1482.55 641.496C1478.11 645.235 1473.62 651.645 1473.62 654.253L1473.62 656.418 1477.37 658.251C1493.33 666.047 1499.63 666.335 1499.63 659.268L1499.63 653.862 1497.57 648.345C1494.07 638.992 1488.53 636.466 1482.55 641.496M1581.68 667.741C1574.5 677.824 1569.99 691.061 1572.5 694.65L1574.36 697.305 1574.98 710.811C1575.32 718.239 1576.04 730.844 1576.6 738.823 1577.15 746.801 1577.85 757.155 1578.16 761.832 1578.46 766.509 1579.17 775.287 1579.74 781.34 1583.34 820.061 1586.51 861.787 1588.16 892.386 1588.43 897.338 1589.06 907.692 1589.58 915.396 1590.09 923.099 1590.52 930.302 1590.53 931.402 1590.55 932.503 1590.59 945.427 1590.63 960.122L1590.7 986.841 1591.77 987.501C1595.39 989.737 1604.23 963.732 1606.26 944.908 1607.55 932.935 1606.84 889.552 1605.1 873.612 1604.81 870.989 1604.13 862.886 1603.59 855.605 1601.08 821.972 1599.55 802.499 1598.64 792.595 1598.09 786.679 1597.2 777.001 1596.65 771.086 1596.1 765.17 1595.21 755.154 1594.67 748.827 1594.13 742.499 1593.48 735.296 1593.23 732.82 1592.98 730.344 1592.65 726.292 1592.48 723.816L1592.19 719.314 1593.29 719.314C1593.9 719.314 1596.25 721.66 1598.51 724.528 1600.78 727.394 1603.54 730.227 1604.66 730.823L1606.68 731.906 1607.3 730.288C1607.98 728.518 1607.31 725.995 1601.61 708.81 1589 670.843 1585.14 662.882 1581.68 667.741M1514.77 826.609C1510.38 834.871 1508.02 848.008 1510.53 850.278 1511.58 851.226 1512.73 853.659 1513.1 855.686 1514.74 864.7 1520.57 878.87 1533.56 905.391 1539.49 917.496 1545.37 930.013 1546.63 933.206L1548.91 939.01 1549.03 944.711 1549.14 950.41 1544.48 952.724 1539.82 955.037 1533.3 955.037C1510.45 955.037 1496.43 938.74 1490.18 904.891 1489.31 900.214 1488.18 894.137 1487.66 891.385 1487.14 888.635 1486.19 883.457 1485.54 879.881 1483.6 869.215 1478.66 852.26 1476.65 849.368 1476.26 848.818 1474.89 845.667 1473.6 842.365 1466.82 825.038 1465.25 825.242 1460.65 844.05L1458.52 852.739 1460.01 858.056C1466.4 880.919 1469.58 893.391 1470.55 899.389 1471.18 903.241 1472.18 908.684 1472.78 911.486 1473.38 914.287 1473.69 919.719 1473.47 923.557L1473.08 930.535 1469.82 937.156 1466.56 943.778 1461.61 948.231C1455.73 953.519 1446.3 958.249 1438.44 959.863L1432.75 961.028 1426.48 959.889C1404.42 955.889 1397.74 936.965 1404.62 897.945 1411 861.702 1408.58 846.407 1398.27 857.827 1391.06 865.802 1384.21 885.58 1377.63 917.396 1376.95 920.698 1376.01 924.524 1375.55 925.9 1375.09 927.275 1373.76 932.678 1372.59 937.905 1369.75 950.544 1368.24 954.492 1364.01 960.243L1360.47 965.074 1356.28 966.974C1348.48 970.515 1340.76 968.429 1334.48 961.087L1330.97 956.988 1328.34 949.197C1324.25 937.087 1323.59 932.097 1323.59 913.346L1323.59 895.887 1322.22 895.887C1319.07 895.887 1316.39 904.399 1315.12 918.397L1314.49 925.4 1316.08 937.405C1320.28 969.014 1333.8 987.845 1352.36 987.911L1356.62 987.925 1361.22 985.765 1365.81 983.604 1369.2 979.012C1372.41 974.668 1374.93 967.718 1377.42 956.413 1378.67 950.706 1383.25 928.636 1384.58 921.898 1385.07 919.422 1386.46 913.12 1387.66 907.892L1389.84 898.389 1393.37 891.6C1395.31 887.866 1397.39 884.987 1398 885.203L1399.11 885.594 1398.82 889.49C1398.54 893.339 1395.65 908.966 1393.54 918.1 1392.94 920.687 1392.44 928.79 1392.43 936.107L1392.41 949.41 1393.9 955.603C1397.18 969.132 1404.46 979.25 1414.32 983.948L1419.11 986.233 1429.61 986.222 1440.12 986.21 1445.79 983.655C1452.16 980.787 1462.34 974.077 1464.62 971.243 1472.6 961.321 1478.24 948.315 1480.19 935.329 1480.97 930.116 1482.13 930.402 1483.73 936.196 1488.24 952.589 1492.66 961.482 1500.66 970.205L1506.56 976.653 1512.35 979.519 1518.13 982.385 1527.13 982.404 1536.14 982.424 1540.64 979.761C1550.73 973.792 1556.87 962.692 1559.99 944.757L1561.45 936.404 1560.11 928.401C1558.04 916.041 1556.42 911.872 1542.63 883.382 1534.4 866.368 1530.64 857.824 1530.64 856.126L1530.64 854.656 1532.39 855.393C1533.35 855.797 1535.14 856.347 1536.37 856.614L1538.61 857.1 1539.23 855.477 1539.86 853.853 1534.2 846.608C1531.09 842.625 1526.23 836.1 1523.4 832.111 1518.13 824.664 1516.39 823.559 1514.77 826.609M2692.86 845.444C2688.74 848.514 2684.24 851.889 2682.87 852.945 2674.48 859.385 2666.63 864.875 2665.81 864.875 2665.29 864.875 2664.86 865.253 2664.86 865.714 2664.86 866.176 2663.85 867.023 2662.61 867.595 2661.38 868.167 2652.71 873.87 2643.36 880.27 2623.75 893.69 2624.81 892.975 2618.57 896.89 2615.94 898.54 2613.52 899.889 2613.19 899.889 2612.86 899.889 2610.4 901.465 2607.72 903.39 2605.04 905.316 2602.56 906.892 2602.22 906.892 2601.87 906.892 2599.51 908.378 2596.97 910.193 2594.43 912.009 2589.72 915.047 2586.51 916.946 2578.54 921.663 2577.99 921.985 2572.33 925.387 2569.59 927.03 2566.58 928.831 2565.65 929.388 2564.72 929.946 2560.67 932.469 2556.65 934.996 2552.63 937.523 2544.5 942.475 2538.59 946 2532.68 949.526 2525.7 953.711 2523.09 955.3 2513.95 960.855 2499.71 968.988 2490.41 973.958 2487.15 975.7 2483.92 977.683 2483.24 978.367 2482.56 979.05 2480.5 980.208 2478.66 980.941 2476.83 981.673 2474.2 983.041 2472.83 983.98 2471.45 984.919 2464.02 988.941 2456.32 992.918 2448.62 996.894 2441.85 1000.53 2441.27 1000.99 2440.7 1001.46 2436.2 1003.93 2431.27 1006.48 2421.81 1011.37 2417.43 1013.57 2390.56 1026.83L2373.82 1035.1 2372.24 1040.78C2368.89 1052.86 2366.63 1060.61 2365.34 1064.46 2356.11 1091.93 2351.73 1120.78 2351.78 1153.7 2351.8 1163.16 2352.26 1172.08 2352.81 1173.52 2353.35 1174.96 2353.8 1177.31 2353.8 1178.75 2353.8 1181.52 2354.35 1183.64 2357.76 1194 2364.55 1214.64 2378.79 1225.17 2403.81 1228.04L2412.31 1229.02 2417.31 1227.93C2433.68 1224.37 2446.15 1220.52 2460.82 1214.5 2472.42 1209.74 2502.44 1194.6 2513.83 1187.77 2515.76 1186.62 2521.16 1183.67 2525.84 1181.22 2530.51 1178.78 2536.14 1175.51 2538.34 1173.96 2540.54 1172.42 2548.64 1167.43 2556.34 1162.88 2564.04 1158.32 2574.79 1151.65 2580.21 1148.04 2596.05 1137.52 2600.95 1134.35 2607.85 1130.15 2611.43 1127.97 2617.05 1124.32 2620.36 1122.05 2623.66 1119.77 2632.43 1113.9 2639.86 1108.99 2647.29 1104.08 2653.82 1099.67 2654.39 1099.19 2654.95 1098.71 2656.75 1097.46 2658.39 1096.42 2660.03 1095.39 2664.74 1092.04 2668.87 1089 2677.08 1082.95 2688.65 1075.18 2693.37 1072.55 2695.02 1071.64 2698.17 1069.55 2700.37 1067.91 2708.18 1062.12 2727.23 1048.94 2739.37 1040.95 2740.62 1040.12 2748.56 1034.47 2757.01 1028.38 2765.47 1022.29 2776.21 1014.65 2780.89 1011.4 2785.56 1008.15 2793.32 1002.55 2798.13 998.96 2802.93 995.368 2808.73 991.077 2811.01 989.426 2814.46 986.935 2824.54 979.229 2828.4 976.135 2828.95 975.695 2833.71 971.908 2838.97 967.721 2844.24 963.533 2851.36 957.037 2854.8 953.283L2861.05 946.458 2860.54 944.433C2860.25 943.318 2859.53 940.354 2858.92 937.845L2857.82 933.282 2852.4 926.17C2846.87 918.9 2838.86 910.853 2834.08 907.743 2832.6 906.787 2828.92 904.213 2825.9 902.023 2820.08 897.815 2801.17 885.651 2799.42 884.998 2798.85 884.787 2789.84 880.455 2779.39 875.373 2768.94 870.291 2757.01 864.668 2752.88 862.877 2748.76 861.085 2741.1 857.594 2735.88 855.118 2698.99 837.638 2702.34 838.391 2692.86 845.444M1914.56 964.166C1907.71 971.457 1895.16 984.797 1886.66 993.812 1864.65 1017.15 1862.77 1019.27 1862.74 1020.84 1862.71 1022.11 1879.72 1038.94 1893.71 1051.48 1896.73 1054.19 1903.94 1060.96 1909.71 1066.52 1924.17 1080.45 1931.3 1086.97 1932.04 1086.97 1932.83 1086.97 1953.51 1065.67 1957.29 1060.96 1958.83 1059.03 1965.6 1051.83 1972.31 1044.95 1984.83 1032.13 1997.73 1017.71 1997.73 1016.54 1997.73 1015.8 1976.62 995.283 1966.72 986.417 1963.15 983.212 1956.17 976.695 1951.22 971.935 1925.01 946.739 1929.95 947.784 1914.56 964.166M1064 1237.53C1064 1261.74 1064.13 1271.5 1064.29 1259.22 1064.45 1246.94 1064.45 1227.13 1064.29 1215.2 1064.13 1203.27 1064 1213.32 1064 1237.53M3113.46 1201.03C3078.41 1209.09 3064.5 1254.24 3090.08 1276.94L3094.3 1280.68 3093.58 1281.84C3093.19 1282.48 3090.45 1284.6 3087.5 1286.56 3081.63 1290.45 3077.66 1295.1 3074.23 1302.05L3072.01 1306.56 3071.98 1312.81 3071.95 1319.06 3074.05 1319.06C3075.21 1319.06 3077.8 1317.76 3079.8 1316.18 3094.41 1304.61 3118.3 1292.39 3144.46 1283.12 3147.21 1282.15 3151.04 1280.78 3152.96 1280.09 3154.89 1279.4 3159.34 1278.02 3162.86 1277.03 3170.48 1274.87 3173.88 1272.57 3176.18 1267.96 3186.24 1247.84 3185.49 1240.76 3173.95 1246.88 3170.98 1248.46 3165.01 1251.1 3145.18 1259.63L3141.89 1261.04 3132.65 1261.04 3123.42 1261.04 3116.15 1259.03C3107.31 1256.58 3102.9 1253.81 3099.52 1248.59L3096.95 1244.63 3096.95 1238.95 3096.95 1233.26 3100.86 1229.73 3104.76 1226.2 3111.35 1225.5C3126.04 1223.92 3134.73 1227.82 3138.88 1237.82 3141.32 1243.74 3148.02 1241.96 3153.46 1233.94L3156.46 1229.53 3156.46 1220.87 3156.46 1212.22 3153.33 1207.87 3150.21 1203.52 3144.83 1201.3 3139.46 1199.07 3130.46 1199.13 3121.46 1199.19 3113.46 1201.03M1635.21 1266.94C1628.23 1279.39 1627.68 1277.7 1641.32 1285.62L1652.98 1292.39 1655.07 1289.76C1657.83 1286.28 1664.66 1273.52 1664.66 1271.83 1664.66 1271.1 1661.89 1268.94 1658.51 1267.02 1648.34 1261.27 1646.95 1260.46 1644.28 1258.71 1642.88 1257.79 1641.51 1257.04 1641.25 1257.04 1640.99 1257.04 1638.27 1261.49 1635.21 1266.94M1721.17 1262.91C1702.14 1267.94 1676.27 1293.48 1659.6 1323.68L1655.52 1331.07 1653.73 1331.07C1650.98 1331.07 1642.32 1321.95 1638.36 1314.88 1636.41 1311.4 1633.46 1307.26 1631.8 1305.68L1628.79 1302.81 1624.97 1303.51C1603.32 1307.5 1577.98 1343.34 1577.32 1370.91L1577.16 1377.59 1579.67 1382.09 1582.18 1386.59 1587.67 1389.87C1595.97 1394.84 1598.93 1395.57 1625.65 1399.17 1636.14 1400.59 1643.13 1402.74 1646.41 1405.56L1648.91 1407.72 1648.23 1409.87C1645.04 1419.91 1585.14 1448.27 1552.65 1455.12L1542.25 1457.31 1527.19 1457.29 1512.13 1457.26 1505.63 1455.09C1486.82 1448.78 1475.28 1437.25 1469.12 1418.6L1466.49 1410.6 1466.44 1398.09 1466.39 1385.58 1470.09 1374.08C1472.13 1367.76 1474.16 1361.64 1474.61 1360.49L1475.44 1358.4 1474.56 1356.99 1473.68 1355.58 1471.99 1356.63C1469.49 1358.19 1465.2 1367.16 1461.74 1378.03 1452.64 1406.64 1453.46 1428.78 1464.45 1451.02L1468.1 1458.42 1474.82 1465.11C1483.73 1473.99 1491.28 1478.05 1505.63 1481.67L1511.13 1483.06 1523.57 1483.09C1558.72 1483.2 1596.9 1468.23 1636.69 1438.76L1649.22 1429.47 1652.96 1423.84 1656.71 1418.2 1658.56 1410.4C1660.85 1400.76 1661.1 1395.3 1659.52 1390.02L1658.3 1385.94 1653.92 1382.09 1649.54 1378.23 1643.37 1376.15C1639.97 1375 1633.13 1373.59 1628.17 1373.02 1604.68 1370.3 1593.49 1367.38 1588.85 1362.73L1586.43 1360.32 1587.16 1357 1587.89 1353.67 1598.03 1343.44 1608.16 1333.2 1613.66 1330.64C1622.66 1326.45 1624.94 1327.33 1629.77 1336.86 1631.08 1339.44 1635 1344.41 1638.48 1347.9L1644.79 1354.25 1643.24 1360.38 1641.68 1366.51 1642.63 1367.45 1643.57 1368.4 1645.19 1367.06C1646.08 1366.32 1647.68 1364 1648.75 1361.9 1651.02 1357.45 1650.86 1357.47 1659.52 1360.1 1682.12 1366.97 1715.63 1362.69 1743.59 1349.35L1755 1343.91 1760.6 1338.24C1768.8 1329.94 1774.25 1317.57 1775.68 1304.06 1777.31 1288.67 1767.61 1276.35 1745.98 1266.36L1738.44 1262.87 1731.3 1262.49C1727.38 1262.29 1722.82 1262.47 1721.17 1262.91M1804.23 1277.31C1802.86 1281.7 1801.75 1286.45 1800.67 1292.64L1799.43 1299.73 1801 1302.14C1801.86 1303.47 1803.7 1307.96 1805.09 1312.12 1807.65 1319.8 1809.09 1322.92 1822.29 1349.49 1826.36 1357.69 1829.7 1364.96 1829.7 1365.64 1829.7 1373.11 1763.14 1413.65 1717.67 1433.86 1694.51 1444.16 1665.48 1455.86 1642.33 1464.21 1636.19 1466.42 1630.14 1468.66 1628.91 1469.18 1627.67 1469.7 1625.64 1470.51 1624.4 1470.97 1617.78 1473.48 1610.65 1477.25 1610.65 1478.26L1610.65 1479.41 1615.4 1478.79C1620.84 1478.08 1626.99 1477.12 1644.66 1474.22 1651.53 1473.09 1660.09 1471.7 1663.66 1471.12 1698.92 1465.41 1705.65 1463.99 1713.38 1460.59 1720.91 1457.28 1743.35 1446.15 1751.18 1441.85 1755.58 1439.42 1761.88 1435.96 1765.18 1434.14 1768.48 1432.32 1771.86 1430.29 1772.68 1429.62 1773.51 1428.96 1776.89 1426.92 1780.19 1425.1 1783.49 1423.27 1793.22 1417.13 1801.82 1411.46L1817.46 1401.14 1822.56 1395.55 1827.66 1389.97 1831.69 1381.78C1836.82 1371.34 1838.7 1363.97 1838.7 1354.19L1838.7 1346.4 1836.6 1339.99C1835.45 1336.46 1831.14 1327.05 1827.02 1319.09L1819.54 1304.61 1820.64 1304.24C1821.24 1304.04 1823.14 1304.37 1824.86 1304.97 1829.12 1306.45 1829.7 1306.36 1829.7 1304.16 1829.7 1302.08 1808.9 1277.72 1806.26 1276.71L1804.61 1276.08 1804.23 1277.31M1706.05 1290.51C1693.83 1296.66 1679.18 1311.48 1667.15 1329.86L1664.34 1334.15 1665.38 1335.19C1666.91 1336.72 1673.03 1337.9 1683.17 1338.62L1692.17 1339.25 1704.67 1337.68C1728.14 1334.73 1760.63 1322.85 1763.14 1316.31 1765.34 1310.57 1746.19 1293.48 1732.25 1288.73L1727.32 1287.05 1720.13 1287.05 1712.94 1287.05 1706.05 1290.51M2724.2 1322.74C2723.75 1322.86 2721.44 1323.46 2719.07 1324.07L2714.76 1325.17 2710.88 1328.68 2707.01 1332.18 2706.33 1335.27 2705.65 1338.37 2708.51 1344.47C2710.09 1347.83 2711.71 1350.73 2712.12 1350.91 2712.54 1351.09 2712.87 1351.86 2712.87 1352.61 2712.87 1353.36 2714.45 1356.66 2716.37 1359.94 2718.3 1363.23 2719.88 1366.31 2719.88 1366.79 2719.88 1367.27 2721.21 1369.22 2722.83 1371.12 2724.46 1373.03 2725.81 1375.08 2725.84 1375.69 2725.86 1376.29 2727.23 1378.65 2728.88 1380.93 2730.53 1383.21 2731.88 1385.47 2731.88 1385.96 2731.88 1386.44 2733.75 1389.37 2736.05 1392.47L2740.22 1398.1 2742.13 1398.1C2743.18 1398.1 2747.27 1397.03 2751.21 1395.73 2755.16 1394.43 2761.08 1392.58 2764.38 1391.61 2767.69 1390.65 2773.09 1388.96 2776.39 1387.86 2779.69 1386.76 2785.76 1385.01 2789.89 1383.95 2800.12 1381.35 2816.06 1376.28 2817.9 1375.06L2819.4 1374.06 2812.89 1367.96C2809.32 1364.6 2804.82 1360.76 2802.89 1359.44 2796.06 1354.72 2792.61 1352.08 2791.51 1350.71 2789.8 1348.59 2759.77 1329.07 2758.22 1329.07 2757.47 1329.07 2756.07 1328.65 2755.12 1328.15 2749.42 1325.14 2745.23 1324.11 2735.69 1323.36 2729.82 1322.9 2724.65 1322.62 2724.2 1322.74M2113.59 1552.04C2113.2 1553.05 2084.96 1583.54 2072.24 1596.67 2070.04 1598.94 2063.98 1605.44 2058.78 1611.11L2049.31 1621.41 2056.83 1628.55C2075.97 1646.75 2094.23 1663.89 2097.1 1666.37 2098.83 1667.86 2104.53 1673.16 2109.75 1678.14 2121.41 1689.26 2118.26 1690.89 2148.34 1658.2 2152.14 1654.08 2159.32 1646.42 2164.3 1641.2 2182.33 1622.28 2186.27 1618.05 2186.54 1617.29 2186.7 1616.87 2182.2 1612.29 2176.56 1607.1 2170.91 1601.92 2162.46 1594.04 2157.78 1589.6 2146.43 1578.82 2135.48 1568.64 2128.76 1562.6 2125.73 1559.88 2121.96 1556.2 2120.38 1554.41 2117.64 1551.31 2114.3 1550.15 2113.59 1552.04M1529.62 1713.48C1529.08 1714.71 1527.78 1719.53 1526.72 1724.17L1524.8 1732.62 1526.8 1740.67 1528.8 1748.72 1526.47 1750.51C1525.19 1751.5 1520.49 1754.97 1516.03 1758.24 1500.11 1769.9 1491.38 1780.62 1485.47 1795.76L1482.35 1803.76 1481.92 1810.77 1481.49 1817.77 1483.39 1821.27 1485.28 1824.77 1488.97 1826.61 1492.66 1828.46 1500.05 1826.95C1514.72 1823.96 1525.94 1816.86 1531.4 1807.14 1532.91 1804.46 1534.63 1802.27 1535.24 1802.26L1536.35 1802.26 1536.99 1808.39C1538.07 1818.73 1542.11 1832.06 1547.34 1842.59L1550.73 1849.41 1556.94 1855.62C1560.36 1859.04 1565.4 1862.89 1568.14 1864.18L1573.12 1866.52 1582.79 1867.6 1592.47 1868.67 1596.81 1867.29C1605.6 1864.51 1618.98 1853.32 1624.31 1844.29 1626.77 1840.12 1628.35 1840.53 1629.19 1845.53 1631.07 1856.82 1639.18 1864.29 1649.56 1864.29 1660.07 1864.29 1693.03 1854.11 1716.67 1843.55 1719.15 1842.44 1732.71 1836.49 1746.8 1830.32 1760.9 1824.15 1773.81 1818.27 1775.48 1817.25L1778.52 1815.4 1782.62 1808.38C1784.87 1804.52 1786.99 1799.99 1787.33 1798.31L1787.94 1795.26 1785.93 1795.26C1784.83 1795.26 1782.19 1795.96 1780.06 1796.82 1776.17 1798.39 1774.42 1799.19 1758.68 1806.53 1745.33 1812.76 1731.29 1817.99 1721.68 1820.32L1712.85 1822.46 1707.51 1820.91C1690.6 1815.98 1671.9 1792.23 1669.12 1772.16L1668.48 1767.57 1670.17 1765.89C1677.23 1758.82 1720.73 1748.5 1731.17 1751.41 1732.82 1751.87 1735.52 1752.25 1737.17 1752.27 1738.82 1752.28 1742.88 1753.44 1746.18 1754.85 1749.48 1756.25 1753.01 1757.65 1754.02 1757.96L1755.86 1758.52 1755.52 1756.17 1755.18 1753.83 1748.68 1748.56C1742.02 1743.16 1734.4 1738.63 1724.67 1734.28L1719.17 1731.82 1708.67 1731.78 1698.17 1731.73 1692.31 1734.01C1678.07 1739.55 1664.69 1753.44 1658.5 1769.1L1656.26 1774.75 1656.28 1784.76 1656.3 1794.76 1657.92 1799.98C1658.81 1802.85 1661.38 1808.99 1663.65 1813.62L1667.76 1822.03 1673.28 1828.14C1680.32 1835.91 1679.5 1837.25 1666.41 1839.38L1660.66 1840.32 1654.42 1839.32C1647.05 1838.13 1644.31 1836.33 1639.83 1829.72L1636.5 1824.81 1636.97 1819.79C1637.22 1817.03 1637.6 1813.87 1637.79 1812.77L1638.16 1810.77 1636.21 1810.77 1634.26 1810.77 1626.37 1822.58 1618.48 1834.39 1614.41 1837.34C1600.04 1847.75 1576.96 1845.37 1563.82 1832.13 1552.8 1821.02 1548.9 1805.49 1545.24 1758.07L1544.73 1751.39 1550.79 1743.56C1565.94 1723.99 1566.82 1713.73 1552.06 1728.72 1543.3 1737.63 1541.77 1738.36 1540.56 1734.17 1534.06 1711.64 1532.06 1707.84 1529.62 1713.48M1520.04 1769.64C1508.41 1778 1494.7 1790.83 1492.96 1795L1491.58 1798.31 1492.58 1800.17C1496.23 1806.99 1520.77 1801.18 1530.14 1791.27L1533.14 1788.1 1532.95 1777.73C1532.66 1761.17 1532.22 1760.9 1520.04 1769.64M1582.65 1779.81 1577.14 1790.35 1578.64 1791.23C1579.47 1791.72 1584.19 1795.08 1589.13 1798.69 1600.14 1806.75 1599.65 1806.75 1604.22 1798.51 1606.27 1794.8 1608.79 1790.56 1609.8 1789.1 1610.82 1787.64 1611.65 1785.97 1611.65 1785.38 1611.65 1783.84 1591.92 1769.25 1589.86 1769.26L1588.15 1769.27 1582.65 1779.81M2252.27 1894.55C2248.42 1898.8 2229.61 1918.93 2220.27 1928.78 2219.17 1929.94 2213.55 1936.04 2207.77 1942.32 2202 1948.61 2195.79 1955.07 2193.98 1956.68L2190.7 1959.6 2196.48 1965.04C2199.67 1968.04 2205.63 1973.49 2209.73 1977.16 2213.83 1980.84 2222.38 1988.82 2228.73 1994.91 2235.08 2000.99 2242.95 2008.42 2246.2 2011.41 2249.46 2014.41 2254.4 2018.99 2257.18 2021.6 2263.26 2027.33 2262.13 2027.49 2268.7 2020.01 2271.69 2016.62 2281.13 2006.48 2289.7 1997.48 2298.26 1988.47 2305.84 1980.28 2306.54 1979.28 2307.24 1978.28 2312.54 1972.62 2318.32 1966.69 2324.1 1960.76 2328.71 1955.62 2328.56 1955.27 2328.42 1954.92 2324.02 1950.66 2318.79 1945.81 2304.72 1932.73 2280.75 1910.15 2269.17 1899.05 2257.23 1887.61 2258.29 1887.9 2252.27 1894.55M1721.58 1908.2C1714.82 1910.84 1708.08 1915.75 1699.98 1923.9 1684.17 1939.84 1684.93 1949.42 1702.89 1960.53 1707.57 1963.42 1707.52 1964.13 1702.36 1967.85 1693.5 1974.24 1677.65 1998.89 1674.64 2010.94 1673.19 2016.75 1673.65 2019.53 1676.89 2024.41L1679.17 2027.86 1684.67 2030.54C1704.3 2040.13 1747.93 2035.24 1773.68 2020.57 1784.31 2014.52 1796.69 2004.33 1796.69 2001.64L1796.69 2000.35 1793.9 2000.35C1792.36 2000.35 1787.07 2001.65 1782.14 2003.24 1758.93 2010.74 1742.03 2013.69 1722.17 2013.7L1707.17 2013.7 1701.49 2012.02C1698.36 2011.09 1694.42 2009.17 1692.73 2007.75L1689.67 2005.17 1689.67 2002.19 1689.67 1999.2 1692.58 1995.02C1701.01 1982.89 1742.25 1954.92 1752.68 1954.26 1755.29 1954.1 1761.93 1949.93 1763.95 1947.2L1765.89 1944.57 1766.04 1939.19 1766.18 1933.82 1762.51 1934.03 1758.84 1934.24 1753.47 1937.68C1750.52 1939.57 1745.87 1942.17 1743.14 1943.47L1738.18 1945.82 1730.62 1945.78C1726.46 1945.75 1720.48 1945.12 1717.33 1944.36L1711.61 1942.99 1709.14 1940.52C1707.78 1939.16 1706.67 1937.02 1706.67 1935.75L1706.67 1933.46 1709.34 1931.36C1718.68 1924.01 1727.7 1923.59 1731.19 1930.35L1732.73 1933.32 1734.55 1933.32C1742.63 1933.32 1746.32 1913.76 1739.31 1908.08L1737.18 1906.35 1731.68 1906.38C1728.65 1906.39 1724.11 1907.21 1721.58 1908.2M2106.15 2001.29C2097.99 2005.97 2084.35 2020.65 2078.69 2030.86 2076.86 2034.16 2072.58 2039.58 2069.18 2042.89L2063.01 2048.93 2051.62 2054.57C2039.4 2060.62 2020.54 2067.84 2001.23 2073.86 1979.45 2080.65 1977.26 2081.31 1973.22 2082.26 1971.02 2082.78 1964.95 2084.34 1959.72 2085.72 1937.82 2091.5 1909.97 2098.68 1906.71 2099.38 1901.49 2100.51 1861.67 2110.4 1858.2 2111.43 1856.55 2111.93 1850.25 2113.49 1844.2 2114.9 1827.42 2118.83 1824.69 2119.59 1824.69 2120.38 1824.69 2123 1866.56 2122.22 1899.84 2118.98L1914.21 2117.59 1928.22 2113.92C1989.52 2097.84 2037.44 2081.88 2054.79 2071.75 2063.03 2066.94 2076.75 2050.93 2076.75 2046.11 2076.75 2045.37 2077.24 2044.27 2077.84 2043.66L2078.94 2042.56 2087.08 2049.14C2098.47 2058.33 2112.19 2064.34 2121.85 2064.36L2126.45 2064.37 2128.15 2062.48C2130.75 2059.61 2133.76 2050.86 2133.76 2046.16 2133.76 2043.86 2134.29 2039.4 2134.94 2036.24L2136.13 2030.49 2134.95 2025.37C2133.07 2017.21 2128.69 2009.26 2122.97 2003.6L2117.67 1998.34 2114.46 1998.35C2112.69 1998.36 2108.96 1999.68 2106.15 2001.29M2099.5 2021.93 2096.75 2023.42 2096.75 2026.42 2096.75 2029.43 2104.5 2034.4C2108.76 2037.13 2113.77 2039.87 2115.62 2040.48L2118.99 2041.6 2119.86 2040.23C2126.23 2030.17 2110.45 2015.98 2099.5 2021.93M2274.75 2051.12C2272.39 2053.73 2266.59 2059.93 2261.87 2064.88 2257.15 2069.84 2248.1 2079.5 2241.78 2086.34 2235.45 2093.19 2226.57 2102.64 2222.03 2107.34 2211.76 2117.99 2209.64 2113.79 2238.75 2140.4 2244.47 2145.63 2251.01 2151.71 2253.28 2153.91 2255.55 2156.11 2260.76 2161.03 2264.85 2164.84 2268.94 2168.66 2275.14 2174.47 2278.63 2177.76L2284.98 2183.74 2285.63 2182.72C2286.6 2181.21 2305.75 2160.5 2317.35 2148.41 2322.9 2142.63 2329.46 2135.65 2331.94 2132.9 2334.41 2130.15 2339.76 2124.34 2343.81 2120L2351.17 2112.1 2344.73 2106.06C2341.19 2102.73 2331.78 2093.91 2323.81 2086.44 2315.84 2078.98 2305.27 2069 2300.31 2064.27 2278.33 2043.31 2280.7 2044.53 2274.75 2051.12" fill="url(#fill1)" fill-rule="evenodd"/></g></svg>