<svg width="2274" height="2273" xmlns="http://www.w3.org/2000/svg" xmlns:xlink="http://www.w3.org/1999/xlink" xml:space="preserve" overflow="hidden"><defs><clipPath id="clip0"><rect x="1064" y="101" width="2274" height="2273"/></clipPath><linearGradient x1="1064.5" y1="100.5" x2="3337.5" y2="2374.5" gradientUnits="userSpaceOnUse" spreadMethod="reflect" id="fill1"><stop offset="0" stop-color="#F7DC85"/><stop offset="0.97" stop-color="#CFB668"/><stop offset="1" stop-color="#CFB668"/></linearGradient></defs><g clip-path="url(#clip0)" transform="translate(-1064 -101)"><path d="M1111 1238C1111 636.562 1598.56 149 2200 149 2801.44 149 3289 636.562 3289 1238 3289 1839.44 2801.44 2327 2200 2327 1598.56 2327 1111 1839.44 1111 1238Z" fill="#195729" fill-rule="evenodd"/><path d="M2151.26 101.33C2096.72 104.481 2067.28 107.402 2025.74 113.781 1820.05 145.366 1625.02 234.382 1466.12 369.194 1420.2 408.159 1370.93 457.434 1331.97 503.366 1283.55 560.455 1238.91 625.433 1202.09 692.43 1191.5 711.695 1167.28 760.979 1158.57 780.96 1109.56 893.485 1079.26 1010.94 1068.12 1131.58 1064.54 1170.4 1064.04 1183.37 1064.04 1237.61 1064.04 1291.86 1064.54 1304.83 1068.12 1343.65 1089.47 1574.81 1181.94 1794.99 1331.97 1971.86 1370.93 2017.8 1420.2 2067.07 1466.12 2106.04 1523.2 2154.47 1588.17 2199.11 1655.16 2235.93 1674.42 2246.52 1723.7 2270.75 1743.68 2279.45 1856.19 2328.47 1973.63 2358.78 2094.25 2369.92 2133.06 2373.5 2146.03 2374 2200.27 2374 2254.51 2374 2267.48 2373.5 2306.29 2369.92 2537.42 2348.57 2757.57 2256.08 2934.42 2106.04 2980.34 2067.07 3029.61 2017.8 3068.57 1971.86 3117 1914.77 3161.63 1849.8 3198.45 1782.8 3209.04 1763.53 3233.26 1714.25 3241.97 1694.27 3290.16 1583.62 3320.11 1468.77 3331.96 1349.15 3333.75 1331.07 3335.98 1297.99 3335.99 1289.44 3336 1284.93 3336.45 1280.97 3337 1280.63 3337.64 1280.23 3338 1264.43 3338 1236.5 3338 1207.74 3337.66 1193.19 3337 1193.6 3336.36 1193.99 3336 1191.19 3335.99 1185.91 3335.98 1170.6 3332.72 1130.58 3328.93 1099.07 3302.64 880.597 3211.32 671.654 3068.57 503.366 3029.61 457.434 2980.34 408.159 2934.42 369.194 2877.34 320.764 2812.37 276.12 2745.38 239.296 2726.12 228.707 2676.84 204.479 2656.86 195.776 2536.32 143.258 2416.96 113.824 2281.29 103.157 2262.67 101.693 2167.99 100.362 2151.26 101.33M2160.76 196.392C2006.43 203.119 1864.31 239.904 1730.18 307.839 1658.84 343.968 1593.12 387.313 1531.64 438.77 1488.53 474.847 1437.61 525.778 1401.53 568.888 1267.72 728.815 1185.32 923.563 1164.1 1130.08 1160.13 1168.78 1159.19 1189.27 1159.19 1237.61 1159.19 1285.96 1160.13 1306.45 1164.1 1345.15 1182.84 1527.56 1249.52 1701.6 1357.4 1849.74 1391.81 1896.99 1420.29 1930.14 1464.06 1973.92 1492.07 2001.93 1508 2016.68 1531.64 2036.46 1691.54 2170.3 1886.26 2252.7 2092.75 2273.93 2131.45 2277.9 2151.94 2278.84 2200.27 2278.84 2248.61 2278.84 2269.1 2277.9 2307.79 2273.93 2490.17 2255.18 2664.19 2188.5 2812.31 2080.6 2859.55 2046.19 2892.7 2017.71 2936.48 1973.92 2964.48 1945.92 2979.22 1929.98 2999.01 1906.34 3132.81 1746.43 3215.22 1551.65 3236.44 1345.15 3240.42 1306.45 3241.35 1285.96 3241.35 1237.61 3241.35 1189.27 3240.42 1168.78 3236.44 1130.08 3217.7 947.671 3151.03 773.63 3043.14 625.494 3008.73 578.243 2980.26 545.089 2936.48 501.306 2908.47 473.297 2892.54 458.555 2868.91 438.77 2717.7 312.218 2535.91 231.788 2341.3 205.344 2295.86 199.169 2261.15 196.791 2210.27 196.365 2187.72 196.176 2165.44 196.188 2160.76 196.392M2126.29 317.537C2123.62 321.809 2119.04 329.015 2116.1 333.549 2113.16 338.083 2110.75 342.039 2110.75 342.34 2110.75 342.641 2108.05 346.905 2104.75 351.814 2101.45 356.724 2098.75 360.987 2098.75 361.288 2098.75 361.59 2096.21 365.771 2093.1 370.58 2090 375.389 2086.4 380.998 2085.11 383.044L2082.76 386.764 2084.7 400.05C2085.76 407.357 2087.58 422.789 2088.74 434.342 2089.89 445.896 2091.7 463.902 2092.77 474.356 2093.83 484.81 2095.63 502.591 2096.77 513.87 2097.92 525.148 2099.74 542.479 2100.82 552.382 2102.66 569.194 2102.79 577.601 2102.77 679.075L2102.75 787.763 2097.5 788.951C2094.61 789.605 2089.32 790.797 2085.75 791.602 2082.17 792.407 2078.12 793.355 2076.75 793.711 2075.37 794.067 2073.79 794.414 2073.24 794.484 2072.69 794.553 2069.77 795.109 2066.74 795.721 2063.72 796.332 2059.89 797.062 2058.24 797.344 2056.59 797.625 2051.64 798.591 2047.24 799.49 2042.84 800.39 2038.34 801.28 2037.24 801.469 2032.42 802.296 2013.92 805.153 2010.73 805.562 2008.81 805.809 2004.53 806.512 2001.23 807.123 1997.93 807.735 1994.1 808.358 1992.73 808.508 1983.46 809.521 1978.23 810.147 1967.72 811.503 1963.52 812.046 1956.98 812.646 1946.22 813.474 1941.82 813.812 1935.97 814.269 1933.22 814.488 1901.31 817.03 1873.81 817.019 1829.7 814.446 1821.09 813.944 1802.68 811.968 1800.32 811.293 1798.6 810.802 1798.51 810.029 1799.15 801.723 1799.69 794.916 1799.55 792.496 1798.6 791.911 1797.6 791.29 1797.58 787.663 1798.49 773.979 1799.33 761.222 1799.34 756.361 1798.5 755.014 1797.67 753.698 1797.63 749.422 1798.34 739.323 1799.1 728.471 1799.03 725.108 1798.05 723.917 1797.08 722.739 1796.99 719.666 1797.69 710.436 1798.39 701.099 1798.31 698.147 1797.31 696.956 1796.3 695.759 1796.22 692.745 1796.95 682.948 1797.64 673.709 1797.58 669.974 1796.71 668.583 1795.88 667.253 1795.74 663.541 1796.23 655.941 1796.74 648.069 1796.61 644.984 1795.74 644.447 1794.87 643.909 1794.74 640.681 1795.26 632.309 1795.78 623.9 1795.65 620.906 1794.8 620.906 1793.94 620.906 1793.81 617.753 1794.31 608.902 1794.83 599.726 1794.7 596.898 1793.76 596.898 1792.84 596.898 1792.71 594.716 1793.24 587.895 1793.77 581.102 1793.65 578.891 1792.73 578.891 1791.85 578.891 1791.6 576.793 1791.82 571.413 1792.02 566.751 1791.71 563.505 1791 562.796 1790.24 562.042 1790.05 559.161 1790.42 554.269 1790.83 548.832 1790.66 546.881 1789.76 546.881 1788.92 546.881 1788.62 545.067 1788.79 540.938 1788.94 537.268 1788.55 534.409 1787.76 533.465 1786.87 532.394 1786.7 530.389 1787.2 526.781 1787.71 523.04 1787.56 521.41 1786.63 520.837 1785.78 520.311 1785.42 518.04 1785.57 514.046 1785.69 510.696 1785.32 507.759 1784.74 507.397 1784.16 507.041 1783.69 504.551 1783.69 501.865 1783.69 499.179 1783.18 496.671 1782.57 496.292 1781.89 495.871 1781.65 493.871 1781.96 491.156 1782.33 487.83 1782.09 486.568 1780.99 486.146 1779.82 485.698 1779.66 484.405 1780.19 479.831 1780.62 476.084 1780.48 473.846 1779.77 473.409 1779.17 473.039 1778.69 471.279 1778.69 469.495 1778.69 467.712 1778.15 465.719 1777.5 465.065 1776.84 464.412 1776.41 461.885 1776.54 459.448 1776.66 457.012 1776.3 454.729 1775.73 454.375 1775.15 454.021 1774.68 452.208 1774.68 450.348 1774.68 448.487 1774.23 446.687 1773.68 446.347 1773.13 446.006 1772.68 444.206 1772.68 442.345 1772.68 440.484 1772.23 438.684 1771.68 438.344 1771.13 438.004 1770.68 436.203 1770.68 434.342 1770.68 432.482 1770.23 430.681 1769.68 430.341 1769.13 430.001 1768.68 428.2 1768.68 426.34 1768.68 424.479 1768.23 422.679 1767.68 422.338 1767.13 421.998 1766.68 420.828 1766.68 419.736 1766.68 418.646 1765.82 416.83 1764.77 415.703L1762.86 413.653 1760.77 415.745C1759.62 416.895 1758.68 418.526 1758.68 419.368 1758.68 420.211 1758.01 421.16 1757.18 421.476 1756.36 421.793 1755.68 422.85 1755.68 423.824 1755.68 424.797 1755.01 426.155 1754.18 426.84 1753.36 427.525 1752.68 428.65 1752.68 429.341 1752.68 430.031 1752 431.156 1751.18 431.842 1750.35 432.527 1749.68 433.932 1749.68 434.964 1749.68 435.998 1749.28 436.843 1748.79 436.843 1748.3 436.843 1747.61 437.969 1747.27 439.344 1746.92 440.719 1746.2 441.845 1745.66 441.845 1745.12 441.845 1744.68 442.759 1744.68 443.877 1744.68 444.995 1744 446.168 1743.18 446.484 1742.34 446.805 1741.68 448.291 1741.68 449.833 1741.68 451.356 1741 453.164 1740.18 453.849 1739.35 454.534 1738.68 455.892 1738.68 456.865 1738.68 457.839 1738 458.896 1737.18 459.213 1736.35 459.529 1735.68 460.716 1735.68 461.852 1735.68 462.987 1735 464.175 1734.18 464.491 1733.35 464.808 1732.68 465.933 1732.68 466.991 1732.68 468.051 1732 469.176 1731.18 469.492 1730.26 469.843 1729.68 471.357 1729.68 473.356 1729.68 475.354 1729.09 476.869 1728.18 477.219 1727.29 477.557 1726.67 479.057 1726.67 480.858 1726.67 482.659 1726.06 484.159 1725.17 484.497 1724.25 484.855 1723.67 486.377 1723.67 488.499 1723.67 490.622 1723.1 492.144 1722.17 492.5 1721.35 492.817 1720.67 493.943 1720.67 495.001 1720.67 496.06 1720 497.186 1719.17 497.502 1718.34 497.822 1717.67 499.309 1717.67 500.85 1717.67 502.373 1717 504.181 1716.17 504.866 1714.5 506.257 1714.11 510.868 1715.67 510.868 1716.22 510.868 1716.67 513.092 1716.67 515.811 1716.67 518.53 1717.12 521.032 1717.67 521.372 1718.22 521.712 1718.67 523.513 1718.67 525.373 1718.67 527.234 1719.12 529.034 1719.67 529.375 1720.22 529.715 1720.67 531.515 1720.67 533.376 1720.67 535.237 1721.18 537.069 1721.79 537.448 1722.46 537.866 1722.71 539.854 1722.41 542.491 1722.07 545.512 1722.36 547.202 1723.34 548.016 1724.35 548.856 1724.57 550.372 1724.13 553.344 1723.68 556.364 1723.9 557.83 1724.96 558.711 1726.01 559.576 1726.28 561.205 1725.92 564.405 1725.59 567.368 1725.8 568.888 1726.54 568.888 1727.23 568.888 1727.68 570.824 1727.68 573.831 1727.68 576.549 1728.12 579.052 1728.68 579.392 1729.23 579.732 1729.68 582.883 1729.68 586.394 1729.68 589.905 1730.16 593.08 1730.76 593.45 1731.47 593.887 1731.61 596.124 1731.18 599.871 1730.65 604.409 1730.82 605.74 1731.95 606.177 1733.05 606.598 1733.28 607.978 1732.9 611.884 1732.6 615.07 1732.9 617.948 1733.69 619.423 1734.52 620.981 1734.78 623.879 1734.42 627.763 1734.08 631.592 1734.29 634.127 1735.03 634.864 1735.78 635.614 1736.05 639.126 1735.83 644.965 1735.58 651.355 1735.81 653.917 1736.65 653.917 1737.52 653.917 1737.64 656.29 1737.12 662.92 1736.58 669.857 1736.71 671.923 1737.68 671.923 1738.66 671.923 1738.78 674.573 1738.22 683.927 1737.67 693.079 1737.79 695.931 1738.72 695.931 1739.64 695.931 1739.77 698.55 1739.23 706.825 1738.72 714.647 1738.86 718.26 1739.72 719.639 1740.64 721.11 1740.67 724.83 1739.85 735.486 1739.01 746.496 1739.05 749.729 1740.05 750.931 1741.04 752.119 1741.1 755.483 1740.35 766.365 1739.64 776.806 1739.69 780.755 1740.58 782.182 1741.41 783.508 1741.56 786.671 1741.08 792.618L1740.39 801.151 1737.28 800.523C1735.57 800.177 1732.83 799.653 1731.18 799.361 1729.53 799.069 1727.27 798.449 1726.17 797.984 1725.07 797.52 1720.8 796.338 1716.67 795.361 1712.55 794.383 1708.72 793.27 1708.17 792.889 1707.62 792.507 1705.68 791.876 1703.85 791.485 1702.03 791.094 1699.33 790.145 1697.85 789.375 1696.38 788.605 1694.5 787.972 1693.69 787.968 1692.36 787.963 1686.57 785.893 1678.17 782.422 1676.51 781.74 1674.04 780.857 1672.66 780.46 1669.21 779.46 1665.2 777.656 1650.16 770.331 1633.28 762.112 1617.39 752.65 1608.36 745.448 1605.6 743.247 1601.44 740.017 1599.11 738.269 1592.66 733.429 1574.24 714.673 1570.6 709.248 1568.82 706.601 1566.83 703.984 1566.18 703.434 1562.63 700.419 1550.89 678 1546.28 665.4 1539.67 647.356 1537.62 635.096 1537.78 614.404 1537.92 594.621 1538.04 592.171 1538.89 591.319 1539.3 590.903 1539.64 589.342 1539.64 587.85 1539.64 584.777 1542.36 571.422 1543.61 568.388 1544.06 567.288 1545.42 563.461 1546.64 559.885 1547.85 556.309 1554.24 542.516 1560.84 529.236 1572.77 505.213 1572.83 505.075 1571.12 502.465 1567.35 496.716 1561.3 498.175 1553.5 506.712 1547.95 512.786 1546.84 514.413 1538.07 529.375 1524.36 552.752 1513.77 575.259 1508.19 592.896 1507.24 595.922 1505.87 599.748 1505.16 601.399 1504.45 603.05 1503.33 606.876 1502.68 609.902 1502.02 612.928 1501.11 616.304 1500.65 617.404 1500.19 618.505 1499.12 622.556 1498.28 626.408 1491.97 655.228 1490.69 666.978 1491.23 690.929 1491.66 709.761 1491.84 712.229 1493.55 721.94 1495.53 733.225 1499.67 747.227 1504.15 757.863 1508.34 767.792 1517.98 785.504 1521.07 788.963 1522.3 790.338 1524.37 793.039 1525.66 794.965 1534.84 808.641 1552.59 826.589 1570.18 839.98 1582.79 849.576 1607.94 864.768 1615.83 867.552 1617.99 868.313 1620.97 869.589 1622.45 870.386 1623.94 871.184 1627.29 872.771 1629.91 873.915 1632.52 875.057 1636.57 876.851 1638.91 877.9 1641.24 878.95 1644.28 880.126 1645.66 880.513 1647.03 880.9 1649.51 881.799 1651.16 882.511 1655.27 884.286 1678.18 890.997 1680.12 890.997 1680.98 890.997 1682.47 891.416 1683.43 891.925 1685.07 892.8 1699.45 896.435 1711.67 899.065 1714.7 899.716 1718.3 900.621 1719.67 901.078 1721.05 901.534 1724.87 902.183 1728.18 902.52 1731.48 902.858 1735.21 903.642 1736.47 904.263 1738.57 905.29 1738.72 905.847 1738.13 910.501 1737.67 914.233 1737.87 915.917 1738.86 916.746 1740.02 917.705 1739.95 921.893 1738.43 943.703 1737.03 963.668 1736.89 970.022 1737.79 971.722 1738.71 973.443 1738.17 985.447 1735.33 1027.02 1732.52 1068.06 1731.96 1080.54 1732.86 1081.98 1733.76 1083.42 1731.75 1117.2 1723.84 1233.51 1716.04 1348.38 1713.94 1383.62 1714.81 1385.02 1715.67 1386.4 1715.54 1392.92 1714.26 1411.67 1713 1430.26 1712.86 1436.68 1713.72 1437.21 1714.56 1437.73 1714.67 1441.8 1714.14 1452.06 1713.62 1462.25 1713.73 1466.19 1714.53 1466.19 1715.33 1466.19 1715.47 1469.23 1715.01 1476.7 1714.51 1484.86 1714.65 1487.2 1715.64 1487.2 1716.62 1487.2 1716.75 1489.13 1716.2 1495.74 1715.68 1501.94 1715.82 1504.68 1716.72 1505.76 1717.58 1506.8 1717.79 1509.65 1717.42 1515.13 1717.06 1520.31 1717.26 1523.4 1718 1524.14 1718.69 1524.83 1719 1528.13 1718.81 1532.74 1718.59 1538 1718.85 1540.22 1719.68 1540.22 1720.49 1540.22 1720.75 1542.05 1720.52 1546.07 1720.3 1549.87 1720.64 1552.48 1721.49 1553.5 1722.35 1554.54 1722.56 1556.29 1722.12 1558.66 1721.67 1561.08 1721.89 1562.78 1722.81 1563.88 1723.71 1564.97 1724.05 1567.48 1723.83 1571.38 1723.61 1575.15 1723.88 1577.23 1724.58 1577.23 1725.22 1577.23 1725.67 1579.27 1725.67 1582.17 1725.67 1584.89 1726.12 1587.39 1726.67 1587.73 1727.22 1588.07 1727.68 1589.87 1727.68 1591.74 1727.68 1593.6 1728.12 1595.4 1728.68 1595.74 1729.23 1596.08 1729.68 1597.88 1729.68 1599.74 1729.68 1601.6 1730.13 1603.4 1730.68 1603.74 1731.23 1604.08 1731.68 1605.88 1731.68 1607.74 1731.68 1609.6 1732.13 1611.4 1732.68 1611.74 1733.23 1612.08 1733.68 1613.46 1733.68 1614.8 1733.68 1616.15 1734.13 1617.24 1734.68 1617.24 1735.23 1617.24 1735.68 1618.34 1735.68 1619.69 1735.68 1621.03 1736.13 1622.41 1736.68 1622.75 1737.23 1623.09 1737.68 1624.18 1737.68 1625.18 1737.68 1626.18 1738.37 1627.58 1739.22 1628.29 1740.07 1628.99 1740.55 1630.14 1740.28 1630.84 1740.02 1631.53 1740.44 1632.64 1741.24 1633.3 1742.03 1633.96 1742.68 1635.31 1742.68 1636.31 1742.68 1637.31 1743.13 1638.41 1743.68 1638.75 1744.23 1639.09 1744.68 1640.43 1744.68 1641.73 1744.68 1643.02 1745.02 1644.24 1745.43 1644.42 1747.04 1645.13 1753.68 1653.69 1753.68 1655.05 1753.68 1656.26 1758.64 1662.6 1765.93 1670.7 1766.9 1671.77 1767.68 1672.97 1767.68 1673.38 1767.68 1673.79 1768.69 1674.45 1769.93 1674.84 1772.11 1675.53 1777.64 1681.01 1777.67 1682.52 1777.68 1682.93 1778.6 1683.27 1779.72 1683.27 1780.83 1683.27 1782.01 1683.94 1782.32 1684.77 1782.67 1685.68 1784.19 1686.27 1786.19 1686.27 1788.19 1686.27 1789.7 1686.86 1790.05 1687.77 1790.37 1688.59 1791.26 1689.27 1792.03 1689.27 1792.81 1689.27 1794 1689.94 1794.69 1690.77 1795.41 1691.63 1797.59 1692.27 1799.84 1692.27 1802.4 1692.27 1803.95 1692.79 1804.33 1693.77 1804.65 1694.59 1805.64 1695.27 1806.55 1695.28 1807.45 1695.28 1809.54 1696.01 1811.19 1696.89 1815.35 1699.12 1841.59 1701.07 1842.72 1699.24 1843.3 1698.3 1845.35 1698.14 1850.5 1698.62 1856.34 1699.16 1857.59 1699.01 1858.09 1697.69 1858.54 1696.54 1859.47 1696.28 1861.54 1696.74 1863.49 1697.16 1864.79 1696.87 1865.67 1695.81 1866.37 1694.97 1867.77 1694.27 1868.77 1694.27 1869.77 1694.27 1870.86 1693.82 1871.2 1693.27 1871.54 1692.72 1873.34 1692.27 1875.2 1692.27 1877.07 1692.27 1878.87 1691.82 1879.21 1691.27 1879.55 1690.72 1880.62 1690.27 1881.59 1690.27 1882.56 1690.27 1884.41 1689.14 1885.71 1687.77 1887 1686.39 1888.85 1685.27 1889.82 1685.27 1890.79 1685.27 1891.87 1684.82 1892.21 1684.27 1892.55 1683.72 1893.59 1683.27 1894.52 1683.26 1895.45 1683.26 1897.98 1681.69 1900.14 1679.76 1902.3 1677.84 1904.78 1676.25 1905.64 1676.23 1906.51 1676.22 1909.75 1673.85 1912.85 1670.98 1923.7 1660.93 1934.03 1651.75 1934.87 1651.42 1935.33 1651.24 1935.72 1650.26 1935.72 1649.24 1935.72 1648.23 1936.84 1646.51 1938.22 1645.43 1939.59 1644.35 1940.72 1642.81 1940.72 1642.01 1940.72 1641.21 1942.07 1639.52 1943.72 1638.25 1945.37 1636.99 1946.72 1635.1 1946.72 1634.07 1946.72 1633.03 1947.39 1631.93 1948.22 1631.61 1949.04 1631.29 1949.72 1630.17 1949.72 1629.11 1949.72 1628.05 1950.39 1626.93 1951.22 1626.61 1952.05 1626.29 1952.72 1625.24 1952.72 1624.26 1952.72 1623.29 1953.4 1621.93 1954.22 1621.25 1955.05 1620.56 1955.72 1619.43 1955.72 1618.74 1955.72 1618.05 1956.4 1616.93 1957.22 1616.24 1958.05 1615.56 1958.72 1613.75 1958.72 1612.23 1958.72 1610.69 1959.39 1609.2 1960.22 1608.88 1961.05 1608.56 1961.72 1607.44 1961.72 1606.39 1961.72 1605.34 1962.4 1603.92 1963.22 1603.24 1964.09 1602.52 1964.72 1600.34 1964.72 1598.08 1964.72 1595.53 1965.24 1593.97 1966.22 1593.6 1967.32 1593.18 1967.72 1591.46 1967.72 1587.23 1967.72 1583.25 1968.15 1581.28 1969.1 1580.92 1969.92 1580.6 1970.77 1578.02 1971.2 1574.56 1971.6 1571.35 1972.4 1568.43 1972.99 1568.07 1974.61 1567.06 1978.08 1514.04 1976.58 1513.12 1975.76 1512.61 1975.59 1509.87 1976.02 1503.88 1976.47 1497.45 1976.29 1495.09 1975.3 1494.26 1974.41 1493.53 1974.14 1491.72 1974.46 1488.81 1974.76 1486.18 1974.52 1484.19 1973.84 1483.77 1973.23 1483.39 1972.72 1480.86 1972.72 1478.14 1972.72 1475.42 1972.27 1473.19 1971.72 1473.19 1971.17 1473.19 1970.72 1470.97 1970.72 1468.25 1970.72 1465.53 1970.27 1463.03 1969.72 1462.69 1969.17 1462.35 1968.72 1460.55 1968.72 1458.69 1968.72 1456.83 1968.27 1455.03 1967.72 1454.69 1967.17 1454.35 1966.72 1452.55 1966.72 1450.69 1966.72 1448.83 1966.27 1447.03 1965.72 1446.69 1965.17 1446.35 1964.72 1444.97 1964.72 1443.63 1964.72 1442.28 1964.27 1441.18 1963.72 1441.18 1963.17 1441.18 1962.72 1439.38 1962.72 1437.18 1962.72 1434.98 1962.27 1433.18 1961.72 1433.18 1961.17 1433.18 1960.72 1431.38 1960.72 1429.18 1960.72 1426.98 1960.27 1425.18 1959.72 1425.18 1959.17 1425.18 1958.72 1424.08 1958.72 1422.74 1958.72 1421.39 1958.27 1420.02 1957.72 1419.68 1957.17 1419.34 1956.72 1417.54 1956.72 1415.68 1956.72 1413.81 1956.27 1412.01 1955.72 1411.67 1955.17 1411.33 1954.72 1410.24 1954.72 1409.24 1954.72 1408.24 1954.03 1406.84 1953.17 1406.13 1952.32 1405.43 1951.85 1404.28 1952.12 1403.58 1952.38 1402.89 1951.95 1401.78 1951.16 1401.12 1950.37 1400.46 1949.72 1398.85 1949.72 1397.55 1949.72 1396.24 1949.27 1395.17 1948.72 1395.17 1948.17 1395.17 1947.72 1394.04 1947.72 1392.67 1947.72 1391.29 1947.38 1390.17 1946.97 1390.16 1946.56 1390.16 1945.32 1388.81 1944.22 1387.17 1943.12 1385.52 1941.5 1384.17 1940.62 1384.17 1938.46 1384.16 1936.03 1387.03 1935.13 1390.66 1934.72 1392.3 1933.78 1394.25 1933.05 1394.98 1932.32 1395.71 1931.72 1397.58 1931.72 1399.13 1931.72 1400.72 1931.06 1402.21 1930.22 1402.53 1929.39 1402.85 1928.72 1403.83 1928.72 1404.71 1928.72 1405.59 1928.04 1406.99 1927.22 1407.82 1926.39 1408.64 1925.71 1410.35 1925.71 1411.62 1925.71 1412.89 1925.04 1414.49 1924.21 1415.18 1923.39 1415.86 1922.71 1417.52 1922.71 1418.87 1922.71 1420.22 1922.04 1422 1921.21 1422.82 1920.39 1423.65 1919.71 1425.59 1919.71 1427.14 1919.71 1428.73 1919.06 1430.22 1918.21 1430.54 1917.36 1430.87 1916.71 1432.36 1916.71 1434.03 1916.71 1435.63 1916.04 1437.5 1915.21 1438.18 1914.35 1438.9 1913.71 1441.08 1913.71 1443.34 1913.71 1445.89 1913.19 1447.45 1912.21 1447.82 1911.28 1448.18 1910.71 1449.7 1910.71 1451.83 1910.71 1453.95 1910.14 1455.47 1909.21 1455.83 1908.38 1456.15 1907.71 1457.63 1907.71 1459.17 1907.71 1460.7 1907.04 1462.51 1906.21 1463.19 1905.36 1463.89 1904.71 1466.07 1904.71 1468.19 1904.71 1470.26 1904.07 1472.48 1903.29 1473.13 1901.07 1474.98 1900.22 1481.99 1901.98 1484.01 1902.79 1484.94 1903.27 1486.19 1903.05 1486.8 1902.83 1487.4 1903.33 1488.47 1904.18 1489.17 1905.02 1489.87 1905.71 1491.52 1905.71 1492.82 1905.71 1494.13 1906.16 1495.2 1906.71 1495.2 1907.26 1495.2 1907.71 1496.11 1907.71 1497.22 1907.71 1498.32 1908.11 1500.01 1908.59 1500.97 1909.08 1501.92 1910.03 1504.06 1910.71 1505.71 1911.39 1507.36 1912.34 1509.49 1912.83 1510.44 1913.32 1511.4 1913.71 1513.51 1913.71 1515.14 1913.71 1516.76 1914.16 1518.37 1914.71 1518.71 1915.26 1519.05 1915.71 1520.38 1915.71 1521.66 1915.71 1522.95 1916.42 1524.27 1917.28 1524.6 1918.33 1525 1918.64 1525.87 1918.21 1527.21 1917.79 1528.55 1918.1 1529.42 1919.14 1529.83 1920.01 1530.16 1920.71 1531.29 1920.71 1532.34 1920.71 1533.38 1921.16 1535.14 1921.71 1536.23 1922.26 1537.32 1923.16 1539.11 1923.71 1540.2 1924.26 1541.3 1924.71 1543.52 1924.71 1545.15 1924.71 1546.77 1925.17 1548.38 1925.71 1548.72 1926.27 1549.06 1926.72 1550.44 1926.72 1551.78 1926.72 1553.12 1927.17 1554.22 1927.72 1554.22 1928.27 1554.22 1928.72 1556.45 1928.72 1559.17 1928.72 1561.88 1929.23 1564.42 1929.85 1564.81 1931.64 1565.91 1930.22 1582.37 1928.25 1583.47 1927.41 1583.95 1926.72 1584.99 1926.72 1585.8 1926.72 1587.68 1920.71 1593.17 1918.6 1593.21 1917.71 1593.22 1915.79 1594.43 1914.33 1595.89 1912.88 1597.35 1911.39 1598.25 1911.03 1597.89 1910.67 1597.53 1909.57 1597.96 1908.58 1598.86 1907.5 1599.84 1905.77 1600.29 1904.25 1600 1902.8 1599.72 1901.24 1600.1 1900.59 1600.88 1899.97 1601.63 1897.94 1602.24 1896.09 1602.24 1894.23 1602.24 1892.71 1602.72 1892.71 1603.32 1892.71 1603.96 1890.94 1604.28 1888.3 1604.12 1885.87 1603.97 1883.23 1604.39 1882.43 1605.05 1880.33 1606.8 1850.54 1604.62 1849.4 1602.63 1848.89 1601.74 1846.84 1601.24 1843.72 1601.24 1840.92 1601.24 1838.26 1600.65 1837.47 1599.87 1836.72 1599.12 1835.11 1598.19 1833.9 1597.8 1832.69 1597.42 1831.7 1596.73 1831.7 1596.28 1831.7 1595.82 1830.57 1595.17 1829.2 1594.83 1827.82 1594.48 1826.7 1593.76 1826.7 1593.22 1826.7 1592.68 1826.07 1592.24 1825.31 1592.24 1824.55 1592.24 1821.58 1589.53 1818.69 1586.23 1815.81 1582.93 1812.85 1580.23 1812.12 1580.23 1810.5 1580.23 1805.69 1574.12 1805.69 1572.06 1805.69 1571.24 1804.57 1569.52 1803.19 1568.23 1801.81 1566.93 1800.69 1565.04 1800.69 1564.01 1800.69 1562.98 1799.79 1561.17 1798.69 1559.99 1797.59 1558.81 1796.69 1557.09 1796.69 1556.16 1796.69 1555.23 1795.99 1553.89 1795.14 1553.18 1794.29 1552.48 1793.82 1551.33 1794.08 1550.63 1794.35 1549.94 1793.92 1548.83 1793.13 1548.17 1792.34 1547.51 1791.69 1545.9 1791.69 1544.6 1791.69 1543.29 1791.24 1542.22 1790.69 1542.22 1790.14 1542.22 1789.69 1541.31 1789.69 1540.2 1789.69 1539.1 1789.24 1537.3 1788.69 1536.2 1788.14 1535.11 1787.24 1533.32 1786.69 1532.23 1786.14 1531.14 1785.69 1528.24 1785.69 1525.79 1785.69 1523.33 1785.24 1521.05 1784.69 1520.71 1784.14 1520.37 1783.69 1518.57 1783.69 1516.71 1783.69 1514.85 1783.24 1513.05 1782.69 1512.71 1782.14 1512.37 1781.69 1510.57 1781.69 1508.71 1781.69 1506.85 1781.24 1505.05 1780.69 1504.71 1780.14 1504.37 1779.69 1501.86 1779.69 1499.14 1779.69 1496.11 1779.24 1494.2 1778.55 1494.2 1777.76 1494.2 1777.57 1492.36 1777.94 1488.3 1778.29 1484.51 1778.07 1481.98 1777.33 1481.24 1776.58 1480.49 1776.31 1476.98 1776.53 1471.14 1776.79 1464.75 1776.55 1462.19 1775.71 1462.19 1774.84 1462.19 1774.72 1459.82 1775.24 1453.19 1775.78 1446.28 1775.65 1444.19 1774.69 1444.19 1773.72 1444.19 1773.6 1441.39 1774.17 1431.66 1774.69 1422.51 1774.57 1418.74 1773.7 1417.69 1772.79 1416.6 1772.76 1413.08 1773.55 1403.04 1774.39 1392.29 1774.33 1389.61 1773.25 1388.74 1772.15 1387.85 1772.34 1381.77 1774.35 1353.24 1776.25 1326.17 1776.5 1318.65 1775.53 1318.05 1774.57 1317.45 1775.51 1299.6 1779.85 1235.94 1784.28 1171.01 1785.15 1154.28 1784.17 1153.09 1783.19 1151.89 1784.02 1135.83 1788.31 1073.56 1792.5 1012.6 1793.43 995.045 1792.52 993.301 1791.64 991.58 1791.88 983.436 1793.58 957.789 1794.79 939.485 1796.05 921.697 1796.37 918.261L1796.96 912.012 1814.08 912.733C1844.33 914.004 1903.7 913.36 1920.71 911.575 1923.19 911.316 1927.92 910.843 1931.22 910.524 1938.13 909.857 1945.89 909.031 1950.22 908.501 1951.87 908.3 1955.47 907.872 1958.22 907.552 1977.23 905.335 1988.68 903.78 1991.48 903.031 1994.6 902.196 1994.73 902.276 1994.73 905.083 1994.73 906.689 1994.28 908.003 1993.73 908.003 1993.18 908.003 1992.73 909.579 1992.73 911.504 1992.73 913.43 1992.28 915.005 1991.73 915.005 1991.18 915.005 1990.73 916.301 1990.73 917.884 1990.73 919.467 1990.05 921.323 1989.23 922.008 1988.4 922.693 1987.73 924.549 1987.73 926.131 1987.73 927.715 1987.28 929.01 1986.73 929.01 1986.18 929.01 1985.73 930.784 1985.73 932.952 1985.73 935.121 1985.28 937.173 1984.73 937.513 1984.18 937.853 1983.73 939.625 1983.73 941.451 1983.73 943.277 1983.05 945.331 1982.23 946.016 1981.37 946.731 1980.73 948.913 1980.73 951.14 1980.73 953.273 1980.28 955.019 1979.73 955.019 1979.18 955.019 1978.73 956.793 1978.73 958.961 1978.73 961.13 1978.31 963.163 1977.8 963.479 1977.28 963.795 1976.58 966.635 1976.23 969.79 1975.88 972.945 1975.21 976.426 1974.73 977.526 1974.26 978.627 1973.59 981.992 1973.24 985.004 1972.88 988.016 1972.23 990.942 1971.79 991.506 1971.34 992.07 1970.42 999.959 1969.74 1009.04 1969.07 1018.12 1968.08 1026.08 1967.55 1026.73 1967.02 1027.38 1966.87 1029.86 1967.21 1032.23 1967.56 1034.61 1967.4 1041.94 1966.87 1048.53 1966.33 1055.13 1966.18 1060.98 1966.53 1061.54 1966.87 1062.1 1967.22 1066.83 1967.29 1072.06 1967.45 1083.83 1969.7 1103.07 1970.92 1103.07 1971.41 1103.07 1971.52 1104.64 1971.16 1106.57 1970.77 1108.62 1970.9 1110.07 1971.47 1110.07 1972.01 1110.07 1972.73 1112.43 1973.07 1115.32 1973.41 1118.2 1974.15 1120.72 1974.7 1120.9 1975.26 1121.09 1975.45 1122.33 1975.11 1123.66 1974.78 1124.99 1974.95 1126.08 1975.49 1126.08 1976.03 1126.08 1976.78 1128.43 1977.16 1131.3 1977.54 1134.18 1978.24 1136.99 1978.7 1137.56 1979.17 1138.12 1979.56 1138.81 1979.57 1139.08 1979.58 1139.36 1980.14 1140.93 1980.82 1142.58 1981.49 1144.23 1981.97 1146.08 1981.87 1146.7 1981.78 1147.31 1982.38 1149.11 1983.21 1150.7 1984.04 1152.29 1984.72 1154.37 1984.72 1155.34 1984.72 1156.3 1985.18 1157.09 1985.73 1157.09 1986.28 1157.09 1986.73 1157.87 1986.74 1158.84 1986.75 1159.8 1987.4 1161.71 1988.18 1163.09 1988.96 1164.47 1990.8 1167.84 1992.26 1170.59 1993.73 1173.34 1996.21 1178.02 1997.79 1180.98 1999.37 1183.95 2002.03 1187.88 2003.7 1189.71 2005.37 1191.55 2006.73 1193.57 2006.73 1194.22 2006.73 1195.17 2012.37 1202.42 2017.22 1207.71 2017.78 1208.31 2019.88 1210.79 2021.88 1213.21 2023.89 1215.63 2026.92 1219.18 2028.62 1221.11 2030.32 1223.03 2031.71 1224.95 2031.72 1225.36 2031.73 1225.77 2032.41 1226.11 2033.23 1226.11 2034.05 1226.11 2035.28 1227.01 2035.97 1228.11 2036.66 1229.21 2037.73 1230.11 2038.37 1230.11 2039 1230.11 2040.58 1231.46 2041.88 1233.1 2043.18 1234.75 2044.8 1236.1 2045.48 1236.11 2046.16 1236.11 2047.28 1237.01 2047.97 1238.12 2048.66 1239.22 2049.63 1240.12 2050.14 1240.12 2050.64 1240.12 2053.35 1241.87 2056.15 1244.02 2058.95 1246.16 2063.04 1248.92 2065.24 1250.14 2067.44 1251.36 2070.44 1253.2 2071.9 1254.24 2073.36 1255.27 2075.05 1256.12 2075.65 1256.12 2076.25 1256.12 2076.75 1256.57 2076.75 1257.12 2076.75 1257.67 2077.83 1258.12 2079.16 1258.12 2080.49 1258.12 2081.73 1258.46 2081.91 1258.87 2082.33 1259.81 2087.66 1263.06 2090 1263.8 2090.96 1264.11 2091.75 1264.75 2091.75 1265.24 2091.75 1265.73 2092.99 1266.14 2094.5 1266.16 2096.01 1266.17 2098.1 1266.83 2099.14 1267.62 2100.98 1269.01 2101 1270.8 2099.9 1335.36 2099.27 1371.83 2097.85 1447.14 2096.74 1502.7L2094.73 1603.74 2096.76 1700.64C2098.38 1777.55 2098.54 1797.85 2097.56 1799.03 2096.37 1800.46 2087.92 1804.63 2082.75 1806.33 2081.37 1806.79 2074.85 1809.47 2068.24 1812.29 2057.87 1816.73 2046.62 1820.38 2039.1 1821.75 2037.93 1821.96 2034.55 1822.83 2031.6 1823.68 2028.65 1824.53 2022.41 1826.2 2017.73 1827.39 2013.06 1828.58 2006.34 1830.41 2002.81 1831.44 1999.28 1832.47 1995.62 1833.32 1994.69 1833.32 1993.75 1833.32 1991.01 1834.02 1988.6 1834.88 1986.2 1835.74 1982.43 1836.81 1980.23 1837.25 1978.03 1837.7 1968.12 1840.21 1958.22 1842.83 1938.77 1847.97 1924.28 1850.86 1913.21 1851.82 1906.2 1852.42 1882.7 1855.1 1860.2 1857.87 1849.6 1859.18 1844.01 1859.17 1812.19 1857.84 1792.39 1857.02 1768.31 1855.45 1758.68 1854.36 1719.64 1849.93 1714.21 1849.16 1708.69 1847.25 1705.53 1846.15 1702.05 1845.09 1700.97 1844.88 1699.89 1844.67 1694.32 1842.93 1688.59 1841.01 1682.85 1839.09 1674.11 1836.27 1669.16 1834.74 1660.35 1832.02 1656.98 1830.11 1639.1 1817.71 1635.22 1815.01 1628.38 1810.31 1623.9 1807.26 1612.68 1799.6 1577.41 1766.29 1573.33 1759.49 1568.63 1751.66 1566 1747.47 1561.57 1740.79 1557.97 1735.33 1554.93 1729.42 1546.68 1711.78 1543.15 1704.24 1538.64 1692.77 1538.64 1691.36 1538.64 1690.77 1537.58 1687.02 1536.28 1683.02 1534.98 1679.03 1533.13 1673.06 1532.16 1669.76 1531.19 1666.46 1529.77 1661.77 1529.02 1659.33 1527.98 1656 1527.63 1647.84 1527.63 1626.43 1527.63 1599.07 1528.07 1593.14 1531.22 1578.08 1531.99 1574.42 1533.08 1568.13 1533.65 1564.1 1534.95 1554.95 1537.34 1544.38 1539.72 1537.22 1540.73 1534.19 1541.79 1530.33 1542.08 1528.63 1542.37 1526.94 1543.3 1523.6 1544.14 1521.21 1544.98 1518.82 1545.87 1515.71 1546.13 1514.29 1547.09 1508.83 1554.21 1489.21 1564.66 1463.19 1565.66 1460.72 1567.38 1456.21 1568.48 1453.19 1575.72 1433.36 1578.28 1427.39 1583.16 1419.04L1586.45 1413.41 1540 1386.03C1514.46 1370.97 1493.24 1358.79 1492.84 1358.94 1492.24 1359.18 1443.48 1441.2 1439.1 1449.34L1437.67 1451.99 1477.06 1475.17C1498.73 1487.92 1517.18 1498.89 1518.07 1499.54 1519.54 1500.61 1519.42 1501.42 1516.76 1508.21 1509.85 1525.88 1503.95 1542.74 1502.76 1548.22 1502.22 1550.7 1500.8 1557.67 1499.6 1563.73 1497.49 1574.38 1496.1 1581.03 1491.71 1601.43 1490.56 1606.76 1489.63 1613.51 1489.63 1616.43 1489.63 1619.35 1488.76 1632.32 1487.7 1645.25 1484.44 1684.78 1483.65 1699.53 1484.58 1703.77 1485.05 1705.97 1486.43 1712.5 1487.63 1718.28 1494.53 1751.41 1497.76 1765.56 1498.7 1766.8 1499.12 1767.35 1500.41 1770.19 1501.56 1773.12 1502.71 1776.04 1505.02 1781.44 1506.7 1785.12 1508.37 1788.8 1510.13 1792.7 1510.61 1793.8 1511.52 1795.88 1514.39 1802.3 1521.37 1817.89 1525.15 1826.33 1527.6 1830.48 1535.91 1842.49 1537.68 1845.06 1542.17 1851.62 1545.88 1857.07 1551.6 1865.47 1554.34 1868.35 1563.78 1875.91 1569.92 1880.82 1577.3 1886.41 1580.18 1888.34 1583.07 1890.26 1592.02 1896.34 1600.08 1901.84 1608.14 1907.34 1617.56 1913.64 1621.02 1915.85 1624.48 1918.05 1628.85 1921.03 1630.73 1922.48 1634.97 1925.74 1640.29 1928.47 1643.06 1928.82 1644.21 1928.97 1646.96 1929.75 1649.16 1930.56 1651.36 1931.38 1656.54 1933.06 1660.66 1934.3 1664.79 1935.54 1670.64 1937.33 1673.66 1938.28 1676.69 1939.23 1682.54 1941.05 1686.67 1942.32 1690.79 1943.59 1696.64 1945.46 1699.67 1946.48 1706.23 1948.69 1721.29 1951.36 1727.06 1951.34 1729.32 1951.34 1738.6 1952.22 1747.68 1953.3 1789.44 1958.28 1794.42 1958.56 1835.2 1958.14L1874.2 1957.74 1883.71 1954.97C1888.93 1953.45 1894.33 1952 1895.71 1951.75 1897.08 1951.49 1900.3 1950.61 1902.87 1949.77 1905.43 1948.94 1908.8 1948.04 1910.37 1947.77 1911.93 1947.5 1915.24 1946.67 1917.71 1945.93 1920.19 1945.18 1926.04 1943.58 1930.72 1942.36 1950.67 1937.17 1954.38 1936.19 1957.22 1935.34 1962.34 1933.81 1980.1 1929.17 1982.57 1928.71 1983.85 1928.47 1986.78 1927.62 1989.07 1926.83 1991.36 1926.03 1994.01 1925.37 1994.97 1925.36 1995.94 1925.36 1999.31 1924.49 2002.48 1923.44 2009.39 1921.15 2029.9 1914.62 2045.74 1909.67 2065.44 1903.51 2069.04 1902.18 2076.25 1898.34 2104.23 1883.44 2104.98 1883.09 2105.86 1884.47 2106.33 1885.22 2106.73 1887.42 2106.74 1889.36 2106.74 1891.3 2107.85 1897.15 2109.2 1902.36 2112.1 1913.58 2125.65 1941 2134.89 1954.36 2138.12 1959.03 2142.61 1965.67 2144.85 1969.1 2148.84 1975.21 2154.55 1980.45 2175.15 1996.87 2191.27 2009.73 2194.9 2012.32 2198.09 2013.27 2199.84 2013.79 2203.75 2015.18 2206.77 2016.35 2221.67 2022.13 2228.38 2024.38 2230.72 2024.38 2232.13 2024.38 2236.21 2025.22 2239.78 2026.24 2249.15 2028.92 2257.07 2029.4 2276.29 2028.48 2292.92 2027.68 2293.53 2027.57 2304.29 2023.48 2310.34 2021.19 2316.19 2018.89 2317.29 2018.37 2318.39 2017.86 2322.22 2016.36 2325.8 2015.05 2329.37 2013.73 2334.55 2011.67 2337.3 2010.46 2340.05 2009.24 2343.65 2007.67 2345.3 2006.95 2346.95 2006.23 2349.88 2004.94 2351.8 2004.07 2353.73 2003.21 2362.28 1999.53 2370.8 1995.91 2379.33 1992.28 2387.88 1988.6 2389.81 1987.74 2395 1985.41 2402.09 1982.17 2403.89 1981.32 2404.76 1980.91 2411.51 1977.99 2418.89 1974.84 2430.98 1969.68 2436.32 1967.33 2449.32 1961.44 2451.52 1960.45 2454.9 1958.93 2456.82 1958.06 2458.75 1957.2 2463.41 1955.11 2467.19 1953.4 2472.27 1951.12 2474.4 1950.59 2475.36 1951.39 2476.72 1952.51 2479.97 1957.5 2491.31 1975.87 2501.5 1992.37 2502.31 1993.44 2509.08 1999.15 2522.1 2010.15 2544.88 2028.33 2547.07 2029.48 2549.26 2030.64 2557.43 2035.8 2568.71 2043.15 2577.26 2048.72 2604.59 2062.12 2612 2064.37 2615.72 2065.5 2622.39 2066.92 2626.82 2067.51L2634.87 2068.59 2640.12 2065.29C2643 2063.48 2649.55 2057.92 2654.68 2052.94 2665.06 2042.86 2671.28 2033.18 2676.91 2018.38 2678.69 2013.7 2681.17 2007.18 2682.43 2003.87 2684.64 1998.09 2685.29 1994.87 2689.83 1967.36 2691.85 1955.16 2691.86 1954.27 2690.34 1930.9 2688.77 1906.7 2688.34 1903.48 2685.53 1895.34 2681.35 1883.24 2679.87 1878.51 2679.86 1877.23 2679.86 1876.46 2679.15 1874.48 2678.28 1872.83 2677.41 1871.18 2675.17 1866.03 2673.29 1861.4 2671.41 1856.76 2668.86 1851.86 2667.62 1850.51 2663.44 1845.97 2641.39 1828.07 2638.36 1826.77 2635.86 1825.69 2624.54 1822.07 2622.86 1821.81 2622.58 1821.77 2620.11 1820.97 2617.35 1820.05 2610.04 1817.58 2575.04 1817.22 2565.84 1819.52 2562.27 1820.41 2557.54 1821.41 2555.34 1821.74 2553.14 1822.07 2547.97 1823.02 2543.84 1823.85 2539.71 1824.69 2533.98 1825.84 2531.1 1826.41 2528.23 1826.98 2525.61 1827.87 2525.29 1828.38 2524.98 1828.9 2523.71 1829.32 2522.48 1829.32 2521.24 1829.32 2519.81 1829.71 2519.28 1830.18 2518.76 1830.66 2515.63 1831.98 2512.33 1833.11 2509.03 1834.25 2503.7 1836.15 2500.49 1837.35 2497.25 1838.56 2494.26 1839.15 2493.79 1838.68 2492.96 1837.83 2489.27 1829.21 2484.23 1816.31 2482.83 1812.74 2481.27 1808.91 2480.77 1807.81 2480.27 1806.71 2477.6 1800.21 2474.84 1793.36 2470.25 1781.97 2469.83 1780.23 2469.83 1772.78 2469.83 1760.03 2471.2 1757.27 2483.1 1746.2 2488.73 1740.96 2499.86 1731.33 2507.83 1724.79 2515.81 1718.25 2525.1 1710.39 2528.47 1707.32 2531.85 1704.25 2536.24 1700.85 2538.22 1699.76 2542.27 1697.52 2558.9 1687.2 2569.06 1680.62 2572.76 1678.22 2576.1 1676.26 2576.49 1676.26 2576.87 1676.26 2577.9 1675.64 2578.77 1674.88 2580.36 1673.49 2609.77 1656.26 2615.35 1653.45 2617 1652.62 2619.48 1651.18 2620.86 1650.25 2625.72 1646.97 2656.71 1631.25 2658.31 1631.25 2662.42 1631.25 2669.78 1637.33 2704.09 1669.08 2746.17 1708.02 2748.37 1709.94 2759.88 1717.61 2764.56 1720.73 2770.86 1725.06 2773.89 1727.24 2781.45 1732.69 2783.04 1733.38 2802.49 1739.72 2818.01 1744.77 2820.41 1745.29 2828.49 1745.3 2833.39 1745.3 2843.7 1745.76 2851.4 1746.32 2866.15 1747.4 2870.75 1747.08 2898.41 1743.1 2906.11 1741.99 2913.99 1740.42 2915.92 1739.6 2917.84 1738.79 2920.22 1737.96 2921.19 1737.76 2923.16 1737.35 2939.92 1731.43 2949.6 1727.71 2953 1726.41 2958.19 1723.87 2961.13 1722.06 2967.68 1718.04 2968.44 1717.58 2978.43 1711.69 2989.26 1705.3 2998.09 1700.03 3000.47 1698.53 3001.55 1697.85 3004.03 1696.42 3005.98 1695.36 3007.93 1694.3 3012.98 1689.46 3017.21 1684.6 3027.72 1672.5 3037.41 1661.59 3042.12 1656.54 3044.29 1654.22 3046.45 1651.07 3046.91 1649.54 3047.67 1647.05 3051.35 1636.95 3055.58 1625.75 3056.41 1623.55 3057.71 1619.94 3058.48 1617.74 3059.24 1615.54 3061.05 1610.59 3062.49 1606.74 3067.49 1593.43 3070.95 1582.22 3070.95 1579.31 3070.95 1577.7 3071.8 1572.41 3072.84 1567.55 3077 1548.1 3077.06 1547.24 3075.97 1523.99 3074.91 1501.55 3074.55 1499.27 3068.87 1478.7 3067.81 1474.85 3066.94 1471.16 3066.94 1470.5 3066.95 1469.27 3064.02 1463.1 3032.9 1398.67 3014.81 1361.22 3012.91 1356.93 3014.7 1357.63 3017.87 1358.85 3057.9 1372.16 3058.43 1372.16 3059.6 1372.16 3058.83 1369.31 3057.32 1368.06 3056.43 1367.32 3053.5 1363.55 3050.81 1359.69 3048.12 1355.82 3043.9 1349.95 3041.42 1346.65 3038.95 1343.35 3035.05 1337.95 3032.75 1334.65 3030.45 1331.35 3027.37 1327.07 3025.91 1325.14 3021.31 1319.1 3008.65 1301.9 3004.2 1295.63 2998.29 1287.32 2992.74 1279.69 2987.45 1272.63 2984.98 1269.33 2980.69 1263.47 2977.93 1259.62 2975.16 1255.77 2970.88 1249.92 2968.4 1246.62 2965.92 1243.32 2962.72 1238.93 2961.28 1236.86 2959.84 1234.8 2958.34 1233.11 2957.94 1233.11 2957.55 1233.11 2956.42 1235.03 2955.44 1237.36 2954.45 1239.7 2952.81 1243.52 2951.79 1245.86 2950.76 1248.19 2949.92 1250.37 2949.92 1250.71 2949.92 1251.04 2949.27 1252.74 2948.48 1254.47 2947.68 1256.2 2944.71 1263.47 2941.87 1270.63 2939.03 1277.78 2936.12 1284.98 2935.41 1286.63 2933.93 1290.05 2929.34 1301.5 2924.89 1312.89 2923.22 1317.15 2920.97 1322.4 2919.88 1324.56 2918.2 1327.88 2918.11 1328.71 2919.26 1330.06 2920 1330.93 2924.91 1339.75 2930.16 1349.65 2935.41 1359.56 2941.55 1371.15 2943.81 1375.41 2948.87 1384.96 2954.61 1395.72 2960.08 1405.92 2969.98 1424.4 2972.56 1429.65 2980.06 1446.69 2984.43 1456.59 2988.48 1465.82 2989.07 1467.19 2989.66 1468.57 2990.75 1471.04 2991.49 1472.69 2992.69 1475.37 3004.79 1503.23 3008.65 1512.21 3009.48 1514.13 3011.46 1518.47 3013.04 1521.83 3014.64 1525.2 3015.94 1528.21 3015.94 1528.52 3015.94 1528.82 3020.45 1539.28 3025.97 1551.75L3036.01 1574.43 3029.72 1580.19C3015.16 1593.53 3010.16 1597.08 2994.43 1605.22 2985.63 1609.77 2977.98 1613.82 2977.43 1614.21 2975.4 1615.64 2950.13 1625.99 2946.42 1626.9 2944.1 1627.47 2931.28 1632.34 2929.68 1633.25 2928.73 1633.8 2927.41 1634.25 2926.76 1634.25 2926.11 1634.25 2922.84 1635.34 2919.49 1636.68 2915.1 1638.44 2909.25 1639.53 2898.41 1640.62 2866.99 1643.79 2859.09 1644.26 2854.2 1643.26 2851.56 1642.72 2846.05 1641.57 2841.95 1640.7 2837.84 1639.84 2830.77 1638.48 2826.22 1637.69 2817.7 1636.2 2811.78 1633.88 2801.39 1627.91 2798.09 1626.02 2792.15 1622.76 2788.18 1620.68 2784.22 1618.6 2778.14 1614.43 2774.68 1611.4 2771.22 1608.38 2761.75 1600.57 2753.63 1594.04 2745.52 1587.51 2738.88 1581.98 2738.88 1581.75 2738.88 1581.36 2750.4 1575.21 2782.89 1558.28 2799.64 1549.55 2824.45 1537.2 2834.9 1532.39 2838.47 1530.75 2847.03 1526.73 2853.9 1523.47 2860.78 1520.21 2869.33 1516.24 2872.91 1514.65 2884.5 1509.52 2885.36 1508.79 2887.35 1502.47 2888.35 1499.3 2889.12 1496.6 2889.07 1496.47 2889.01 1496.33 2889.85 1494.17 2890.93 1491.65 2892.01 1489.13 2893.08 1486.09 2893.31 1484.88 2893.54 1483.68 2897.18 1472.57 2901.4 1460.19 2905.61 1447.81 2909.47 1436.11 2909.98 1434.18 2910.49 1432.26 2912.44 1426.27 2914.32 1420.87L2917.75 1411.06 2915.26 1410.12C2913.9 1409.6 2911.89 1409.17 2910.79 1409.17 2909.69 1409.17 2904.43 1408.24 2899.1 1407.1 2878.65 1402.71 2860.56 1399.04 2822.4 1391.53 2818 1390.67 2810.34 1389.14 2805.39 1388.13 2791.47 1385.3 2776.59 1382.5 2762.88 1380.13 2756.01 1378.94 2745.66 1377.14 2739.88 1376.12 2734.1 1375.1 2724.88 1373.54 2719.38 1372.64 2713.87 1371.74 2704.65 1370.15 2698.87 1369.09 2689.7 1367.43 2682.55 1367.15 2642.36 1366.92 2599 1366.67 2595.57 1366.79 2582.85 1368.86 2575.42 1370.07 2563.72 1371.78 2556.84 1372.66 2530.23 1376.07 2530.91 1375.91 2499.83 1386.15 2493.5 1388.23 2480.23 1392.5 2470.33 1395.64 2439.08 1405.55 2436.8 1406.43 2435.32 1409.17 2433.59 1412.38 2426.78 1430.33 2423.36 1440.68 2421.91 1445.09 2420.32 1449.59 2419.81 1450.69 2419.31 1451.79 2415.55 1462.59 2411.45 1474.7 2407.35 1486.8 2403.04 1499.31 2401.87 1502.51 2400.71 1505.7 2399.98 1508.66 2400.24 1509.1 2400.81 1510.02 2407.79 1508.55 2423.82 1504.14 2430.14 1502.4 2436.44 1500.79 2437.82 1500.56 2440.27 1500.15 2451.76 1497.98 2460.94 1496.2 2464.68 1495.47 2467.43 1495.78 2475.44 1497.84 2480.88 1499.23 2486.35 1500.57 2487.6 1500.81 2492.04 1501.67 2500.12 1505.31 2509.17 1510.53 2514.21 1513.44 2519.01 1516.14 2519.83 1516.53 2520.66 1516.92 2523.59 1518.48 2526.34 1520 2529.09 1521.53 2534.01 1524.25 2537.27 1526.06 2543.21 1529.35 2550.38 1534.25 2565.34 1545.26 2569.75 1548.5 2576.05 1553.06 2579.35 1555.39 2592.54 1564.7 2601.35 1571.52 2601.35 1572.42 2601.35 1572.94 2599.02 1574.66 2596.18 1576.23 2593.33 1577.81 2586.35 1582.12 2580.67 1585.81 2574.99 1589.51 2567.42 1594.43 2563.84 1596.76 2555.48 1602.19 2546.25 1607.95 2539.8 1611.74 2527.74 1618.84 2517.92 1625.29 2502.33 1636.33 2493.27 1642.75 2490.36 1645.48 2485.83 1651.83 2482.8 1656.07 2478.98 1661.23 2477.33 1663.3 2472.7 1669.11 2466.86 1677.91 2463.84 1683.61 2462.34 1686.45 2458.94 1692.82 2456.29 1697.77 2448.55 1712.25 2447.82 1713.93 2441.55 1731.78 2435.19 1749.88 2434.84 1751.4 2432.27 1772.19 2430.94 1782.99 2430.75 1789.89 2431.33 1807.71 2432 1828.72 2432.63 1833.59 2436.07 1844.32 2436.86 1846.8 2438.52 1852.2 2439.76 1856.32 2440.99 1860.45 2442.41 1865.12 2442.9 1866.69 2443.69 1869.21 2443.13 1870.57 2438.27 1877.95 2435.23 1882.56 2432.09 1886.39 2431.28 1886.46 2429.51 1886.61 2428.78 1886.81 2426.82 1887.66 2422.48 1889.53 2401.12 1896.3 2386.81 1900.33 2383.23 1901.34 2377.7 1902.91 2374.5 1903.82 2371.31 1904.73 2367.71 1905.66 2366.5 1905.88 2365.29 1906.11 2361.6 1906.94 2358.3 1907.73 2352.31 1909.17 2342.57 1911.26 2322.8 1915.35 2317.02 1916.54 2308.47 1918.35 2303.79 1919.37 2299.12 1920.39 2291.01 1922.11 2285.79 1923.19 2280.56 1924.28 2273.03 1925.88 2269.05 1926.74 2264.26 1927.78 2261.04 1928.01 2259.54 1927.41 2258.3 1926.92 2253.23 1925.3 2248.28 1923.82 2243.33 1922.35 2236.35 1920.24 2232.78 1919.14 2208.9 1911.8 2194.36 1898.15 2179.7 1869.33 2175.36 1860.8 2171.55 1853.05 2171.23 1852.11 2170.79 1850.79 2172.2 1849.6 2177.46 1846.85 2186.14 1842.33 2189.21 1840.53 2194.77 1836.71 2197.24 1835.01 2199.72 1833.43 2200.27 1833.21 2200.82 1833 2203.75 1831.19 2206.77 1829.21 2211.88 1825.86 2215.13 1823.79 2228.28 1815.51 2231.03 1813.78 2236.29 1810.43 2239.98 1808.08 2249.24 1802.16 2282.06 1772.12 2287.14 1764.91 2295.22 1753.43 2297.79 1749.73 2301.32 1744.45 2303.28 1741.51 2305.71 1738.22 2306.71 1737.14 2307.72 1736.06 2309.53 1731.48 2310.72 1726.97 2311.92 1722.47 2313.55 1716.49 2314.35 1713.69 2315.14 1710.89 2316.2 1706.61 2316.69 1704.19 2317.18 1701.76 2319.2 1693.56 2321.19 1685.97 2323.17 1678.39 2324.8 1670.45 2324.8 1668.35 2324.8 1666.24 2325.71 1656.24 2326.82 1646.13 2329.68 1620.13 2329.71 1604.11 2326.92 1586.23 2325.68 1578.26 2323.77 1565.65 2322.67 1558.22 2321.57 1550.8 2319.85 1542.02 2318.84 1538.72 2317.84 1535.42 2316.05 1529.11 2314.87 1524.71 2312.79 1516.98 2310.77 1509.86 2306.78 1496.2 2305.73 1492.63 2303.91 1486.1 2302.72 1481.7 2301.54 1477.3 2299.67 1470.86 2298.58 1467.4 2297.49 1463.93 2296.85 1460.11 2297.16 1458.89 2297.47 1457.68 2300.55 1453.48 2304.01 1449.56 2312.49 1439.93 2316.87 1433.67 2315.88 1432.58 2315.43 1432.09 2314.23 1429.43 2313.21 1426.68 2312.2 1423.93 2310.79 1420.55 2310.09 1419.18 2309.38 1417.8 2308.8 1416.33 2308.8 1415.91 2308.8 1415.5 2307.93 1413.25 2306.88 1410.91 2305.83 1408.58 2303.76 1403.54 2302.27 1399.72 2300.78 1395.89 2298.98 1391.39 2298.26 1389.71 2297.54 1388.04 2295.94 1383.96 2294.71 1380.66 2293.49 1377.36 2291.65 1372.77 2290.63 1370.47 2289.62 1368.16 2288.79 1366.01 2288.79 1365.7 2288.79 1365.39 2287.93 1363.23 2286.88 1360.9 2285.83 1358.56 2283.82 1353.73 2282.41 1350.15 2275.98 1333.81 2271.94 1324.7 2270.97 1324.37 2270.39 1324.18 2269.39 1325.06 2268.73 1326.33 2267.3 1329.13 2259.3 1342.58 2255.61 1348.43 2254.13 1350.75 2252 1354.36 2250.85 1356.44 2249.71 1358.53 2246.83 1363.25 2244.46 1366.95 2240.36 1373.35 2233.41 1384.65 2227.85 1393.99 2226.44 1396.37 2224.82 1399.07 2224.26 1399.99 2217.53 1411.14 2217.62 1410.9 2218.65 1414.86 2219.58 1418.43 2220.97 1424.25 2225.71 1444.44 2228.81 1457.63 2232.57 1474.87 2237.66 1499.2 2238.75 1504.43 2240.57 1512.98 2241.69 1518.21 2242.81 1523.44 2244.67 1532.21 2245.82 1537.72 2246.97 1543.22 2248.74 1551.55 2249.75 1556.22 2251.86 1565.99 2255.16 1581.7 2257.83 1594.74 2258.85 1599.69 2260.59 1611.39 2261.69 1620.74 2266.84 1664.27 2267.91 1673.29 2268.8 1680.59 2269.88 1689.45 2269.91 1689.37 2262.07 1700.66 2256.97 1708 2259.2 1706.31 2216.27 1735.45 2208.57 1740.68 2197.09 1747.67 2190.77 1751 2184.44 1754.32 2173.13 1760.24 2165.64 1764.15L2152.01 1771.27 2151.31 1635.99C2150.69 1516.75 2150.86 1488.66 2152.69 1399.19 2153.83 1343.36 2154.76 1294.85 2154.76 1291.4L2154.76 1285.13 2160.06 1285.13C2162.98 1285.13 2165.81 1285.58 2166.36 1286.13 2167.44 1287.2 2244.65 1293.33 2246.06 1292.46 2246.53 1292.17 2253.13 1291.81 2260.73 1291.66 2268.33 1291.52 2275.09 1291.06 2275.74 1290.66 2276.4 1290.25 2279.38 1290.23 2282.36 1290.6 2286.3 1291.09 2287.79 1290.95 2287.79 1290.07 2287.79 1289.25 2289.04 1289.04 2291.79 1289.41 2294.05 1289.71 2296.07 1289.5 2296.42 1288.91 2296.8 1288.3 2299.04 1288.12 2301.93 1288.46 2304.97 1288.82 2306.79 1288.65 2306.79 1288.01 2306.79 1287.44 2308.48 1287.07 2310.54 1287.19 2312.61 1287.3 2314.97 1287.16 2315.79 1286.87 2316.62 1286.58 2321.56 1285.83 2326.77 1285.19 2331.98 1284.56 2336.54 1283.55 2336.91 1282.95 2337.28 1282.35 2338.77 1282.08 2340.22 1282.36 2341.66 1282.64 2343.07 1282.5 2343.34 1282.07 2343.61 1281.63 2346.41 1280.96 2349.57 1280.58 2352.72 1280.19 2355.84 1279.45 2356.5 1278.92 2357.17 1278.39 2358.65 1278.26 2359.8 1278.63 2360.96 1278.99 2362.44 1278.86 2363.1 1278.32 2363.76 1277.79 2366.33 1277.03 2368.8 1276.63 2371.28 1276.23 2373.85 1275.46 2374.51 1274.93 2375.18 1274.39 2376.21 1274.26 2376.81 1274.63 2377.4 1275 2378.44 1274.85 2379.1 1274.31 2379.76 1273.77 2382.9 1273 2386.06 1272.61 2389.22 1272.22 2391.81 1271.45 2391.81 1270.89 2391.81 1270.34 2392.71 1270.13 2393.81 1270.41 2394.91 1270.7 2396.03 1270.57 2396.31 1270.13 2396.59 1269.68 2399.06 1269 2401.81 1268.63 2404.56 1268.25 2407.04 1267.57 2407.31 1267.12 2407.59 1266.68 2410.06 1266 2412.81 1265.62 2415.56 1265.25 2418.07 1264.52 2418.38 1264.01 2418.7 1263.51 2419.34 1263.33 2419.81 1263.62 2420.29 1263.92 2420.96 1263.7 2421.31 1263.14 2421.65 1262.58 2422.92 1262.12 2424.12 1262.12 2425.33 1262.11 2427.61 1261.44 2429.18 1260.62 2430.76 1259.79 2432.78 1259.12 2433.68 1259.12 2434.58 1259.11 2436.61 1258.44 2438.18 1257.62 2439.76 1256.79 2441.78 1256.12 2442.68 1256.12 2443.58 1256.11 2445.62 1255.43 2447.21 1254.6 2448.8 1253.77 2450.6 1253.17 2451.21 1253.27 2451.82 1253.36 2453.45 1252.97 2454.82 1252.4 2456.2 1251.83 2457.59 1251.42 2457.92 1251.49 2458.25 1251.56 2459.15 1251.11 2459.92 1250.48 2460.69 1249.86 2463.24 1249.03 2465.57 1248.64 2467.91 1248.26 2469.83 1247.56 2469.83 1247.09 2469.83 1246.62 2471.85 1245.94 2474.33 1245.57 2476.8 1245.19 2478.83 1244.51 2478.83 1244.05 2478.83 1243.59 2480.4 1242.91 2482.33 1242.55 2484.25 1242.19 2485.83 1241.55 2485.83 1241.12 2485.83 1240.69 2487.85 1240.04 2490.33 1239.67 2492.8 1239.3 2494.83 1238.57 2494.83 1238.05 2494.83 1237.54 2495.53 1237.11 2496.39 1237.11 2497.74 1237.11 2500.51 1236.04 2509.33 1232.11 2510.43 1231.62 2513.58 1230.26 2516.33 1229.09 2519.08 1227.92 2522.75 1226.32 2524.49 1225.54 2526.22 1224.75 2528.36 1224.11 2529.24 1224.11 2530.12 1224.11 2530.84 1223.68 2530.84 1223.16 2530.84 1222.63 2532.41 1221.9 2534.34 1221.54 2536.26 1221.18 2537.84 1220.54 2537.84 1220.11 2537.84 1219.68 2539.86 1219.03 2542.34 1218.66 2544.82 1218.29 2546.84 1217.65 2546.84 1217.24 2546.84 1216.83 2548.75 1215.67 2551.09 1214.66 2556.51 1212.33 2562.64 1209.38 2565.84 1207.56 2567.22 1206.77 2569.13 1206.13 2570.1 1206.12 2571.06 1206.11 2571.85 1205.71 2571.85 1205.23 2571.85 1204.75 2573.29 1204.07 2575.05 1203.71 2576.81 1203.36 2579.32 1202.07 2580.63 1200.84 2581.94 1199.61 2583.31 1198.66 2583.68 1198.73 2584.05 1198.8 2585.47 1198.39 2586.85 1197.82 2588.22 1197.24 2589.67 1196.73 2590.07 1196.68 2590.46 1196.64 2591.72 1195.8 2592.87 1194.81 2594.02 1193.83 2596.28 1192.76 2597.9 1192.44 2599.52 1192.11 2600.85 1191.46 2600.85 1190.97 2600.85 1190.49 2601.7 1190.1 2602.73 1190.1 2603.76 1190.1 2605.14 1189.45 2605.8 1188.66 2606.45 1187.87 2608.26 1186.95 2609.82 1186.61 2611.37 1186.26 2613.43 1185.12 2614.38 1184.06 2615.34 1183.01 2616.44 1182.34 2616.84 1182.59 2617.23 1182.83 2618.5 1182.14 2619.66 1181.06 2620.82 1179.98 2622.41 1179.1 2623.19 1179.1 2623.97 1179.1 2625.17 1178.42 2625.86 1177.59 2626.54 1176.77 2627.67 1176.09 2628.36 1176.09 2629.05 1176.09 2630.14 1175.46 2630.78 1174.69 2631.42 1173.92 2633.13 1172.99 2634.59 1172.62 2636.04 1172.26 2638.5 1171.06 2640.05 1169.96 2641.59 1168.86 2642.86 1168.28 2642.86 1168.68 2642.86 1169.08 2643.76 1168.58 2644.87 1167.59 2646.99 1165.66 2649.96 1163.81 2653.54 1162.18 2654.74 1161.64 2656.67 1160.38 2657.82 1159.39 2658.98 1158.4 2660.09 1157.81 2660.29 1158.09 2660.49 1158.36 2661.6 1157.73 2662.77 1156.68 2664.89 1154.75 2667.26 1153.24 2671.87 1150.88 2673.24 1150.18 2675.49 1148.58 2676.86 1147.34 2678.23 1146.1 2679.8 1145.07 2680.36 1145.06 2680.91 1145.05 2683.16 1143.48 2685.36 1141.56 2687.55 1139.65 2689.8 1138.07 2690.36 1138.05 2690.91 1138.04 2693.62 1136.02 2696.37 1133.56 2699.12 1131.11 2701.82 1129.09 2702.37 1129.07 2702.92 1129.06 2704.95 1127.66 2706.87 1125.97 2710.23 1123.02 2720.89 1113.6 2725.28 1109.71 2726.43 1108.68 2729.29 1106.27 2731.63 1104.34 2733.97 1102.41 2735.88 1100.32 2735.89 1099.7 2735.89 1099.08 2737.24 1097.5 2738.89 1096.2 2740.53 1094.9 2741.88 1093.41 2741.88 1092.89 2741.88 1092.36 2743.23 1090.8 2744.88 1089.41 2746.53 1088.02 2747.88 1086.25 2747.88 1085.47 2747.88 1084.7 2748.33 1084.06 2748.88 1084.06 2749.43 1084.06 2749.88 1083.56 2749.88 1082.96 2749.88 1082.35 2751.07 1080.44 2752.53 1078.71 2753.99 1076.98 2755.79 1074.21 2756.53 1072.56 2757.27 1070.91 2759.24 1067.31 2760.89 1064.56 2763.74 1059.84 2766.96 1053.36 2768.99 1048.3 2769.48 1047.06 2770.34 1044.92 2770.89 1043.55 2773.33 1037.43 2774.18 1035.43 2775 1033.81 2775.49 1032.85 2775.89 1030.97 2775.89 1029.62 2775.89 1028.27 2776.3 1026.91 2776.8 1026.6 2777.3 1026.29 2778.02 1024.24 2778.39 1022.04 2778.76 1019.85 2779.47 1017.8 2779.97 1017.49 2780.48 1017.18 2780.89 1015.62 2780.89 1014.04 2780.89 1012.45 2781.34 1010.88 2781.89 1010.54 2782.44 1010.2 2782.9 1008.03 2782.92 1005.73 2782.94 1003.42 2783.61 1000.66 2784.42 999.593 2785.27 998.474 2785.89 995.486 2785.89 992.541 2785.89 989.73 2786.38 986.941 2786.98 986.343 2787.57 985.745 2788.31 981.491 2788.61 976.889 2788.91 972.288 2789.62 967.934 2790.19 967.215 2791.04 966.143 2796.74 898.857 2796.86 888.49 2796.88 886.13 2797.53 885.199 2799.88 884.162 2801.52 883.436 2804.11 882.971 2805.63 883.131 2807.15 883.291 2808.84 883.157 2809.39 882.833 2809.94 882.508 2812.98 881.93 2816.15 881.547 2819.31 881.164 2821.9 880.384 2821.9 879.814 2821.9 879.206 2822.93 879.037 2824.4 879.404 2825.84 879.766 2826.9 879.6 2826.9 879.012 2826.9 878.452 2827.77 877.993 2828.84 877.993 2829.91 877.993 2831.05 877.563 2831.37 877.036 2831.7 876.51 2832.58 876.317 2833.34 876.607 2834.09 876.896 2835.67 876.314 2836.84 875.313 2838.01 874.311 2839.29 873.453 2839.68 873.407 2842.2 873.114 2851.59 867.565 2854.97 864.382 2856.39 863.05 2857.87 862.283 2858.26 862.68 2858.66 863.077 2859.24 862.436 2859.54 861.256 2859.85 860.077 2861.3 858.656 2862.75 858.1 2865.75 856.956 2870.91 852.56 2870.91 851.152 2870.91 850.642 2872.71 848.646 2874.91 846.717 2877.11 844.788 2878.91 842.891 2878.91 842.501 2878.91 842.112 2880.93 839.129 2883.41 835.874 2885.88 832.617 2887.91 829.509 2887.91 828.965 2887.91 828.421 2888.25 827.976 2888.67 827.976 2889.08 827.976 2890.06 826.514 2890.84 824.725 2891.63 822.936 2893.09 820.886 2894.09 820.166 2895.09 819.448 2895.91 818.209 2895.91 817.415 2895.91 816.621 2896.28 815.972 2896.72 815.972 2897.17 815.972 2898.16 814.396 2898.91 812.471 2899.67 810.545 2900.6 808.969 2900.98 808.969 2901.37 808.969 2901.93 808.181 2902.23 807.219 2902.78 805.501 2905.93 799.951 2906.92 798.966 2907.19 798.691 2908.09 797.115 2908.91 795.465 2909.74 793.814 2910.64 792.239 2910.91 791.964 2911.9 790.978 2915.05 785.429 2915.59 783.711 2915.9 782.749 2916.55 781.96 2917.03 781.96 2917.52 781.96 2917.92 781.289 2917.92 780.468 2917.92 779.648 2918.82 778.414 2919.92 777.727 2921.02 777.04 2921.92 776.085 2921.92 775.606 2921.92 774.095 2930.04 764.955 2931.39 764.955 2932.1 764.955 2933.23 764.279 2933.92 763.454 2935.19 761.919 2939.92 761.338 2939.92 762.717 2939.92 763.136 2940.91 763.924 2942.12 764.467 2943.43 765.053 2944.69 766.878 2945.21 768.956 2945.7 770.882 2946.46 772.907 2946.89 773.457 2947.32 774.008 2947.99 777.039 2948.37 780.194 2948.75 783.349 2949.49 786.194 2950.01 786.515 2950.53 786.837 2950.69 787.525 2950.37 788.044 2950.05 788.563 2950.6 790.818 2951.58 793.056 2953.21 796.743 2953.65 797.07 2956.26 796.548 2959.99 795.801 2965.25 791.277 2966.82 787.462 2967.5 785.812 2968.48 783.68 2968.99 782.724 2969.5 781.769 2969.93 780.081 2969.93 778.973 2969.93 777.865 2970.32 776.959 2970.79 776.959 2971.27 776.959 2971.92 775.055 2972.23 772.729 2972.54 770.402 2973.28 768.339 2973.86 768.143 2974.45 767.949 2974.93 765.441 2974.93 762.571 2974.93 759.701 2975.4 756.882 2975.97 756.307 2976.55 755.731 2977.4 750.501 2977.86 744.684 2978.33 738.865 2979.1 733.506 2979.57 732.773 2980.78 730.906 2983.61 689.852 2982.58 689.215 2982.12 688.928 2981.93 687.079 2982.16 685.107 2982.79 679.714 2978.66 671.233 2974.27 668.922 2970.34 666.849 2959.53 667.065 2957.1 669.265 2956.09 670.177 2954.81 670.923 2954.24 670.923 2952.75 670.923 2939.48 682.821 2939.1 684.501 2938.92 685.285 2938.36 685.928 2937.85 685.928 2937.34 685.928 2936.9 686.491 2936.88 687.178 2936.86 687.866 2935.51 689.987 2933.88 691.892 2932.25 693.796 2930.92 695.935 2930.92 696.643 2930.92 697.353 2930.55 697.932 2930.1 697.932 2929.66 697.932 2928.67 699.507 2927.92 701.433 2927.16 703.359 2926.18 704.934 2925.73 704.934 2925.28 704.934 2924.92 705.506 2924.92 706.207 2924.92 706.907 2923.61 709.061 2922.02 710.996 2920.42 712.931 2918.17 716.184 2917.02 718.227 2915.86 720.269 2913.97 723.629 2912.81 725.691 2911.65 727.755 2910.35 729.893 2909.91 730.443 2909.48 730.993 2908.18 733.132 2907.02 735.194 2905.86 737.258 2903.96 740.634 2902.81 742.697 2901.65 744.761 2899.17 748.325 2897.31 750.618 2895.44 752.912 2893.91 755.274 2893.91 755.87 2893.91 756.465 2893.57 756.964 2893.16 756.979 2892.01 757.02 2883.91 764.676 2883.91 765.722 2883.91 767.008 2880.51 769.956 2879.02 769.956 2878.35 769.956 2876.36 771.344 2874.6 773.039 2872.84 774.735 2870.17 776.579 2868.66 777.139 2867.14 777.698 2865.91 778.511 2865.91 778.946 2865.91 779.381 2864.33 780.033 2862.4 780.394 2860.48 780.755 2858.9 781.441 2858.9 781.917 2858.9 782.394 2857.07 783.096 2854.82 783.475 2852.58 783.854 2849.54 784.791 2848.07 785.557 2846.6 786.323 2844.41 786.952 2843.21 786.956 2842 786.959 2840.79 787.337 2840.5 787.795 2840.22 788.255 2838.62 788.427 2836.94 788.182 2834.94 787.888 2833.9 788.162 2833.9 788.98 2833.9 789.856 2832.81 790.047 2830.21 789.626 2828.18 789.297 2825.99 789.467 2825.35 790.004 2823.93 791.181 2793.89 789.079 2793.89 787.801 2793.89 787.34 2792.73 786.962 2791.32 786.962 2789.91 786.962 2786.79 785.612 2784.39 783.961 2781.99 782.31 2779.64 780.96 2779.16 780.96 2777.76 780.96 2766.6 766.924 2764.07 761.976 2762.79 759.488 2761.11 756.326 2760.33 754.951 2759.55 753.576 2758.91 751.662 2758.9 750.7 2758.89 749.737 2758.52 748.949 2758.07 748.949 2757.1 748.949 2752.88 739.579 2752.88 737.435 2752.88 736.616 2752.48 735.945 2752 735.945 2751.51 735.945 2750.8 733.919 2750.43 731.443 2750.06 728.967 2749.39 726.942 2748.93 726.942 2748.48 726.942 2747.81 725.366 2747.45 723.441 2747.08 721.461 2746.19 719.939 2745.42 719.939 2744.66 719.939 2743.87 719.411 2743.66 718.767 2743.4 718.006 2742.12 718.439 2740.01 720.003 2737.1 722.149 2735.43 724.851 2732.91 731.443 2732.49 732.544 2731.63 734.681 2731.01 736.195 2730.39 737.708 2729.43 740.071 2728.88 741.446 2728.33 742.822 2727.43 745.073 2726.88 746.448 2726.33 747.823 2725.47 749.963 2724.98 751.2 2724.48 752.437 2723.36 755.094 2722.48 757.103 2721.6 759.112 2720.88 761.673 2720.88 762.796 2720.88 763.918 2720.43 765.114 2719.88 765.455 2719.33 765.795 2718.88 767.846 2718.88 770.015 2718.88 772.184 2718.43 773.958 2717.88 773.958 2717.32 773.958 2716.87 775.447 2716.87 777.268 2716.87 779.088 2716.21 781.451 2715.41 782.519 2714.6 783.587 2713.92 785.699 2713.91 787.212 2713.89 788.725 2713.42 789.963 2712.87 789.963 2712.32 789.963 2711.87 791.544 2711.87 793.478 2711.87 795.411 2711.33 797.862 2710.67 798.924 2709.68 800.509 2709.78 801.21 2711.25 802.834 2712.24 803.923 2713.29 806.649 2713.59 808.891 2713.89 811.135 2714.53 812.971 2715.01 812.971 2715.48 812.971 2715.88 813.759 2715.88 814.721 2715.88 815.684 2716.56 817.772 2717.39 819.361 2718.22 820.949 2718.82 822.75 2718.73 823.362 2718.63 823.975 2719.15 825.825 2719.88 827.476 2720.6 829.126 2721.12 830.977 2721.02 831.589 2720.93 832.201 2721.53 834.002 2722.36 835.591 2723.19 837.179 2723.87 839.717 2723.87 841.23 2723.87 842.744 2724.31 843.981 2724.83 843.981 2725.36 843.981 2726.08 845.562 2726.45 847.494 2726.81 849.425 2727.48 851.241 2727.95 851.527 2728.41 851.814 2728.57 852.626 2728.3 853.333 2728.03 854.039 2728.49 855.937 2729.34 857.552 2730.18 859.167 2730.87 861.223 2730.87 862.124 2730.88 863.023 2731.55 865.049 2732.37 866.625 2733.19 868.2 2733.87 870.278 2733.87 871.241 2733.88 872.203 2734.38 872.991 2734.99 872.991 2735.67 872.991 2735.85 873.951 2735.47 875.492 2735.11 876.935 2735.27 877.993 2735.86 877.993 2736.42 877.993 2736.88 879.23 2736.89 880.744 2736.89 882.257 2737.5 884.659 2738.24 886.082 2738.98 887.505 2740.17 891.781 2740.87 895.586 2741.57 899.389 2742.47 902.951 2742.88 903.501 2743.29 904.052 2744.19 907.653 2744.88 911.504 2745.58 915.355 2746.59 919.067 2747.13 919.751 2747.67 920.436 2747.9 922.135 2747.63 923.526 2747.37 924.918 2747.52 926.285 2747.97 926.563 2748.42 926.843 2749.09 929.767 2749.47 933.065 2749.84 936.361 2750.48 939.263 2750.88 939.513 2751.28 939.762 2751.4 941.105 2751.13 942.497 2750.86 943.888 2751.2 945.694 2751.88 946.509 2752.57 947.34 2752.83 949.067 2752.49 950.443 2752.14 951.838 2752.36 953.196 2753 953.592 2753.72 954.038 2753.92 956.033 2753.56 959.127 2753.21 962.077 2753.4 964.222 2754.04 964.622 2754.7 965.031 2754.87 967.09 2754.47 970.061 2754.07 973.059 2754.23 974.975 2754.89 975.194 2755.62 975.437 2755.61 979.178 2754.88 987.536 2753.9 998.793 2752.38 1005.04 2750.64 1005.04 2750.22 1005.04 2749.88 1005.71 2749.88 1006.53 2749.88 1007.35 2748.98 1008.58 2747.88 1009.27 2746.78 1009.96 2745.88 1011.07 2745.88 1011.74 2745.88 1013.45 2727.95 1031.04 2726.21 1031.04 2725.43 1031.04 2723.58 1032.17 2722.09 1033.55 2720.61 1034.92 2718.94 1036.05 2718.38 1036.05 2717.81 1036.05 2716.14 1037.17 2714.66 1038.55 2713.18 1039.92 2711.34 1041.05 2710.59 1041.05 2709.84 1041.05 2708.17 1042.17 2706.87 1043.55 2705.58 1044.92 2704.1 1046.05 2703.59 1046.05 2703.08 1046.05 2700.95 1047.4 2698.87 1049.05 2696.79 1050.7 2694.66 1052.05 2694.15 1052.05 2693.64 1052.05 2692.2 1053.14 2690.95 1054.47 2689.7 1055.8 2687.6 1057.16 2686.27 1057.49 2684.95 1057.82 2683.87 1058.53 2683.87 1059.07 2683.87 1059.61 2683.06 1060.05 2682.07 1060.05 2681.08 1060.05 2679.73 1060.59 2679.07 1061.26 2678.41 1061.92 2677.87 1062.07 2677.87 1061.6 2677.87 1061.13 2676.96 1061.56 2675.86 1062.56 2673.83 1064.4 2671.43 1065.92 2666.86 1068.26 2665.49 1068.97 2663.51 1070.32 2662.46 1071.27 2661.42 1072.21 2660.24 1072.79 2659.85 1072.55 2659.45 1072.3 2658.33 1073 2657.34 1074.08 2656.36 1075.17 2654.98 1076.06 2654.28 1076.06 2653.58 1076.06 2652.38 1076.68 2651.63 1077.44 2650.87 1078.2 2648.81 1079.13 2647.05 1079.52 2645.3 1079.9 2643.86 1080.63 2643.86 1081.12 2643.86 1081.62 2642.77 1082.3 2641.43 1082.63 2640.1 1082.97 2638.23 1084.1 2637.28 1085.15 2636.33 1086.2 2635.17 1087.06 2634.71 1087.06 2633.05 1087.06 2623.86 1091.46 2623.86 1092.25 2623.86 1092.7 2623.07 1093.07 2622.11 1093.08 2621.14 1093.09 2619.23 1093.73 2617.85 1094.52 2616.48 1095.3 2613.33 1096.89 2610.85 1098.06 2602.83 1101.84 2601.85 1102.39 2601.85 1103.21 2601.85 1103.65 2601.18 1103.75 2600.35 1103.43 2599.53 1103.11 2598.85 1103.35 2598.85 1103.96 2598.85 1104.57 2598.03 1105.07 2597.02 1105.07 2596.01 1105.07 2594.85 1105.41 2594.43 1105.82 2594.02 1106.23 2593.38 1106.61 2593.02 1106.65 2592.65 1106.7 2591 1107.34 2589.35 1108.07 2587.7 1108.8 2586.12 1109.48 2585.85 1109.57 2585.57 1109.66 2584 1110.34 2582.35 1111.07 2580.7 1111.8 2579.12 1112.48 2578.85 1112.57 2575.92 1113.55 2572.92 1115.15 2572.38 1116.01 2572.02 1116.6 2570.85 1117.07 2569.79 1117.07 2568.72 1117.07 2567.84 1117.58 2567.84 1118.19 2567.84 1118.82 2566.96 1119.08 2565.85 1118.79 2564.75 1118.5 2563.59 1118.67 2563.29 1119.17 2562.98 1119.67 2561.85 1120.08 2560.78 1120.08 2559.72 1120.08 2558.84 1120.57 2558.84 1121.18 2558.84 1121.79 2558.17 1122.03 2557.34 1121.71 2556.52 1121.4 2555.84 1121.57 2555.84 1122.11 2555.84 1122.64 2555.02 1123.08 2554.01 1123.08 2553 1123.08 2551.84 1123.41 2551.42 1123.83 2551.01 1124.24 2550.37 1124.61 2550.01 1124.66 2549.64 1124.71 2547.99 1125.34 2546.34 1126.08 2544.69 1126.81 2543.11 1127.49 2542.84 1127.58 2542.56 1127.67 2540.99 1128.34 2539.34 1129.08 2537.69 1129.81 2536.11 1130.49 2535.84 1130.58 2535.56 1130.67 2533.99 1131.3 2532.34 1131.98 2530.69 1132.66 2529.23 1133.19 2529.09 1133.16 2528.96 1133.13 2527.24 1134.01 2525.28 1135.11 2523.31 1136.22 2521.31 1136.88 2520.84 1136.58 2520.36 1136.28 2518.47 1136.88 2516.65 1137.9 2514.83 1138.92 2512.77 1139.57 2512.08 1139.34 2511.4 1139.1 2510.83 1139.35 2510.83 1139.88 2510.83 1140.42 2508.81 1141.16 2506.33 1141.53 2503.86 1141.9 2501.83 1142.6 2501.83 1143.08 2501.83 1143.57 2499.81 1144.26 2497.33 1144.64 2494.85 1145.01 2492.83 1145.69 2492.83 1146.15 2492.83 1146.61 2491.25 1147.29 2489.33 1147.65 2487.4 1148.01 2485.83 1148.68 2485.83 1149.13 2485.83 1149.59 2483.8 1150.27 2481.33 1150.64 2478.85 1151.01 2476.83 1151.71 2476.83 1152.2 2476.83 1152.69 2476.04 1153.09 2475.08 1153.09 2474.11 1153.1 2472.04 1153.77 2470.47 1154.59 2468.9 1155.41 2467.27 1155.86 2466.84 1155.6 2466.42 1155.33 2464.55 1155.89 2462.69 1156.82 2460.84 1157.76 2458.57 1158.4 2457.66 1158.26 2456.75 1158.11 2455.71 1158.46 2455.35 1159.04 2455 1159.62 2453.72 1160.09 2452.51 1160.09 2451.31 1160.1 2449.09 1160.75 2447.58 1161.53 2446.07 1162.32 2442.8 1163.27 2440.31 1163.64 2437.83 1164.02 2435.57 1164.68 2435.3 1165.11 2435.04 1165.55 2433.92 1165.67 2432.82 1165.38 2431.72 1165.09 2430.82 1165.33 2430.82 1165.9 2430.82 1166.48 2428.34 1167.26 2425.32 1167.63 2422.29 1168.01 2419.81 1168.77 2419.81 1169.32 2419.81 1169.87 2418.91 1170.09 2417.82 1169.8 2416.72 1169.51 2415.59 1169.64 2415.31 1170.09 2415.04 1170.54 2412.56 1171.21 2409.81 1171.59 2407.06 1171.97 2404.59 1172.65 2404.31 1173.09 2404.04 1173.54 2401.56 1174.22 2398.81 1174.59 2396.06 1174.97 2393.57 1175.67 2393.28 1176.14 2392.99 1176.62 2392.08 1176.75 2391.26 1176.44 2390.45 1176.13 2389.23 1176.32 2388.55 1176.86 2387.87 1177.4 2382.7 1178.43 2377.06 1179.14 2371.42 1179.84 2366.8 1180.84 2366.8 1181.37 2366.8 1181.89 2365.64 1182.02 2364.21 1181.66 2362.78 1181.3 2361.09 1181.41 2360.46 1181.91 2359.33 1182.79 2347.75 1184.49 2334.8 1185.66 2331.22 1185.99 2327.64 1186.47 2326.84 1186.72 2326.04 1186.98 2321.59 1187.39 2316.96 1187.63 2312.33 1187.86 2308.04 1188.41 2307.42 1188.83 2306.8 1189.25 2299.99 1189.6 2292.29 1189.6 2284.59 1189.6 2278.02 1189.95 2277.7 1190.39 2277.38 1190.82 2271.55 1190.73 2264.74 1190.17 2257.52 1189.59 2252.12 1189.54 2251.8 1190.06 2251.05 1191.28 2205.39 1187.85 2203.64 1186.45 2202.89 1185.84 2198.69 1185.13 2194.32 1184.86 2189.67 1184.57 2186.2 1183.9 2185.98 1183.23 2185.75 1182.53 2182.99 1182.1 2178.81 1182.1 2173.99 1182.1 2171.65 1181.66 2170.76 1180.6 2170.08 1179.77 2168.22 1179.1 2166.64 1179.1 2165.06 1179.1 2163.76 1178.64 2163.76 1178.09 2163.76 1177.54 2162.21 1177.09 2160.32 1177.09 2158.43 1177.09 2156.66 1176.74 2156.39 1176.31 2156.13 1175.88 2156.54 1126.47 2157.31 1066.52 2158.08 1006.57 2158.72 935.898 2158.73 909.473L2158.76 861.425 2162.01 860.179C2163.8 859.493 2171.79 856.705 2179.77 853.984 2187.74 851.262 2196.74 848.095 2199.77 846.944 2202.8 845.794 2208.65 843.708 2212.77 842.309 2216.9 840.909 2221.62 839.181 2223.27 838.468 2224.93 837.755 2229.65 835.946 2233.78 834.445 2243.17 831.031 2267.48 821.56 2274.79 818.466 2283.3 814.861 2321.64 799.967 2322.4 799.967 2322.77 799.967 2324.93 799.11 2327.19 798.063 2336.21 793.884 2344.05 790.963 2346.24 790.963 2350.73 790.963 2351.15 792.826 2351.34 813.292 2351.54 836.174 2353.23 846.039 2359.88 863.381 2373.08 897.813 2395.25 917.878 2425.82 923.068 2431.67 924.062 2459.64 924.34 2468.82 923.495 2475.5 922.881 2482.33 921.4 2490.33 918.83 2493.63 917.77 2497.68 916.546 2499.33 916.11 2508.98 913.56 2528.38 900.336 2537.34 890.206 2548.43 877.671 2549.41 876.226 2556.24 862.488 2563.91 847.066 2567.48 838.507 2568.42 833.296 2568.8 831.195 2569.38 829.026 2569.72 828.476 2570.31 827.524 2571.74 821.855 2573.9 811.971 2575.16 806.169 2577.8 788.049 2578.42 780.96 2578.68 777.934 2579.27 772.307 2579.73 768.456 2580.19 764.604 2580.44 753.351 2580.3 743.447 2580.05 726.675 2579.68 720.795 2578.28 711.937 2577.98 710.011 2577.54 706.981 2577.3 705.204 2575.34 690.681 2567.2 663.29 2562.1 654.049 2557.92 646.479 2556.04 644.504 2554.36 645.898 2552.58 647.379 2546.46 662.019 2544.26 670.1 2543.3 673.578 2542.21 676.875 2541.82 677.425 2541.43 677.975 2540.31 681.801 2539.34 685.928 2538.36 690.054 2537.23 693.88 2536.82 694.431 2536.41 694.981 2535.76 697.006 2535.39 698.932 2534.67 702.604 2531.76 713.295 2529.38 720.939 2526.57 729.998 2526.57 734.132 2529.38 742.567 2530.82 746.903 2532.4 751.35 2532.88 752.45 2535.2 757.672 2542.03 782.164 2543.19 789.396 2544.71 798.862 2544.05 801.908 2539.47 806.807 2535.95 810.563 2532.47 812.519 2522.34 816.441 2518.48 817.932 2513.98 819.718 2512.33 820.412 2506.13 823.022 2503.13 823.831 2495.83 824.862 2482.2 826.787 2474.4 827.147 2468.82 826.105 2452.75 823.098 2446.42 821.707 2445.32 820.935 2444.77 820.549 2442.52 819.661 2440.32 818.96 2417.17 811.589 2393.9 784.763 2386.68 757.122 2383.72 745.793 2383.77 746.095 2383.74 737.377 2383.71 728.821 2385.15 723.161 2389.42 715.136 2393.11 708.2 2394.06 702.971 2392.17 700.088 2390.84 698.047 2390.03 697.801 2385.97 698.195 2380.77 698.7 2369.34 701.574 2366.51 703.089 2365.5 703.631 2363.92 704.224 2362.99 704.408 2361.51 704.701 2354.5 707.204 2336.3 713.934 2333.55 714.952 2328.15 717.012 2324.3 718.515 2320.44 720.017 2315.49 721.816 2313.29 722.512 2311.09 723.208 2306.14 724.969 2302.29 726.423 2289.25 731.35 2251.32 744.88 2249.28 745.331 2248.73 745.453 2245.13 746.636 2241.28 747.961 2237.43 749.285 2234.05 750.409 2233.78 750.457 2232.7 750.646 2212.15 757.182 2210.27 757.934 2206.51 759.441 2166.2 771.311 2160.51 772.589L2157.76 773.207 2157.75 700.808C2157.73 649.503 2157.31 621.513 2156.29 604.742 2155.49 591.726 2154.84 576.421 2154.83 570.731 2154.83 565.041 2153.92 544.63 2152.83 525.373 2151.74 506.117 2150.83 486.021 2150.82 480.716 2150.8 472.268 2148.53 429.79 2147.24 413.963 2146.99 410.867 2145.9 402.482 2144.81 395.329 2143.73 388.177 2142.08 377.373 2141.16 371.321 2140.24 365.269 2139.33 358.292 2139.14 355.816 2138.95 353.34 2137.93 345.913 2136.86 339.31 2135.79 332.708 2134.48 323.775 2133.94 319.458 2133.41 315.142 2132.55 311.197 2132.05 310.689 2131.49 310.129 2129.23 312.805 2126.29 317.537M2497.06 319.427C2495.99 321.56 2493.65 327.44 2491.86 332.494L2488.6 341.682 2490.58 344.498C2491.67 346.046 2492.92 350.014 2493.35 353.315 2494.38 361.165 2494.36 361.024 2495.77 370.321 2496.44 374.722 2497.61 382.6 2498.37 387.826 2501.53 409.384 2505.15 432.342 2506.88 441.845 2507.44 444.871 2508.07 448.472 2508.28 449.848 2508.49 451.223 2509.18 455.274 2509.8 458.851 2510.42 462.427 2511.57 469.629 2512.37 474.856 2513.16 480.083 2514.5 488.636 2515.33 493.862 2516.73 502.552 2518.58 514.744 2520.89 530.375 2521.87 537 2523.87 551.75 2526.37 570.889 2527.26 577.766 2528.55 591.838 2529.23 602.16 2529.91 612.483 2530.92 621.392 2531.49 621.959 2533.15 623.624 2534.66 620.922 2536.87 612.295 2543.25 587.46 2542.35 560.494 2533.31 505.367 2532.91 502.917 2531.3 492.54 2529.36 479.858 2527.75 469.336 2525.53 455.789 2523.79 445.846 2523.17 442.27 2522.52 438.444 2522.34 437.344 2522.17 436.243 2521.55 432.417 2520.97 428.841 2518.33 412.684 2516.82 403.686 2515.35 395.329 2514.47 390.377 2513.11 382.221 2512.31 377.203 2511.52 372.185 2510.58 367.234 2510.21 366.199 2509.85 365.165 2512.5 367.358 2516.1 371.071 2523.16 378.372 2526.55 379.83 2525.38 375.072 2524.54 371.672 2518.49 356.387 2514.78 348.313 2513.26 345.012 2509.98 337.747 2507.48 332.168 2504.98 326.59 2502.05 320.569 2500.97 318.788L2499 315.551 2497.06 319.427M2437.97 327.556C2437.47 328.52 2436.01 333.401 2434.74 338.405L2432.43 347.502 2434.62 350.293C2435.83 351.828 2436.82 353.867 2436.82 354.823 2436.82 360.231 2442.57 374.094 2457.77 405.332 2468.62 427.638 2470.93 433.733 2471.17 440.626 2471.32 445.277 2471.26 445.378 2466.82 447.556 2463.52 449.176 2460.46 449.776 2455.32 449.806 2442.03 449.883 2430.69 441.727 2423.9 427.204 2420.78 420.528 2416.59 406.155 2415.33 397.83 2413.09 382.906 2408.01 362.13 2404.19 352.315 2400.48 342.749 2394.42 330.807 2393.29 330.807 2392.11 330.807 2389.74 338.648 2387.77 349.015 2386.99 353.125 2387.38 355.47 2390.75 367.032 2398.52 393.733 2401.11 406.753 2401.11 419.337 2401.12 428.212 2400.82 429.939 2398.44 434.644 2392.54 446.305 2380.08 455.56 2368.92 456.573 2356.56 457.694 2344.54 450.874 2339.44 439.844 2337.6 435.854 2337.29 432.731 2336.74 412.335L2336.13 389.327 2342.8 382.825C2349.61 376.189 2356.25 366.855 2357.39 362.335 2358.49 357.96 2355.97 359.336 2343.23 370.071 2336.06 376.118 2333.8 377.047 2333.8 373.949 2333.8 367.949 2327 347.813 2324.97 347.813 2324.05 347.813 2321.44 354.502 2318.49 364.415 2317.15 368.887 2317.14 370.421 2318.38 376.919 2319.16 380.992 2319.79 384.657 2319.79 385.062 2319.79 385.466 2316.98 387.211 2313.54 388.94 2298.25 396.63 2284.32 407.537 2277.4 417.23 2270.13 427.42 2267.65 433.934 2267.06 444.346 2266.61 452.496 2266.77 453.607 2268.73 456.076 2272.09 460.307 2277.22 461.397 2286.5 459.847 2295.09 458.413 2306.45 454.905 2309.56 452.725 2311.83 451.131 2319.57 442.587 2322.11 438.871L2323.8 436.398 2323.91 440.872C2323.98 443.332 2323.95 445.779 2323.84 446.308 2323.5 448.034 2326.06 456.244 2328.41 460.983 2331.55 467.309 2340.23 474.792 2347.98 477.857 2353.19 479.919 2355.97 480.352 2363.8 480.325 2372.2 480.296 2373.96 479.962 2378.95 477.464 2382.05 475.909 2386.85 472.666 2389.6 470.257 2398.87 462.142 2403.24 453.425 2407.33 434.842 2408.6 429.065 2409.68 425.407 2409.73 426.713 2409.88 431.017 2416.8 450.068 2420.31 455.834 2424.67 463.019 2433.46 471.368 2439.46 474.023 2445.92 476.878 2456.93 476.863 2462.56 473.991 2471.44 469.459 2478.52 456.153 2480.8 439.724 2481.81 432.452 2481.75 429.776 2480.41 422.641 2478.54 412.648 2476.55 407.547 2465.77 385.145 2457.72 368.398 2453.68 359.327 2452.38 355.095 2451.73 352.948 2451.8 352.923 2454.51 354.338 2458 356.156 2460.82 356.235 2460.82 354.513 2460.82 353.798 2458.81 350.534 2456.35 347.261 2453.89 343.989 2449.36 337.822 2446.28 333.558 2443.2 329.295 2440.28 325.806 2439.79 325.806 2439.29 325.806 2438.48 326.593 2437.97 327.556M1878.54 397.214 1852.96 440.665 1896.02 466.013C1919.71 479.955 1939.44 491.362 1939.88 491.362 1940.32 491.362 1952.11 472.005 1966.08 448.347 1984.74 416.75 1991.18 405.043 1990.36 404.245 1989.12 403.055 1907.78 355.165 1905.52 354.297 1904.54 353.919 1896.6 366.552 1878.54 397.214M2314.29 402.694C2290.86 415.271 2277.79 425.55 2277.79 431.395 2277.79 439.079 2300.47 438.325 2314.61 430.171 2321.31 426.302 2322.81 423.008 2322.69 412.335 2322.64 407.383 2322.3 402.342 2321.95 401.133 2321.3 398.959 2321.22 398.977 2314.29 402.694M2676 476.521C2662.17 499.995 2650.97 519.309 2651.11 519.443 2652.17 520.464 2737.05 570.032 2737.25 569.75 2738.76 567.703 2786.89 485.128 2786.96 484.458 2787.07 483.572 2703.56 433.842 2701.96 433.842 2701.52 433.842 2689.83 453.048 2676 476.521M2246.7 484.609C2246.66 485.022 2246.47 486.035 2246.28 486.86 2242.12 504.794 2242.13 506.337 2246.37 518.298 2247.13 520.46 2247.65 522.288 2247.52 522.362 2242.06 525.446 2230.93 534.599 2223.1 542.447 2214.28 551.3 2212.32 553.901 2208.32 562.12 2199.05 581.183 2200.41 598.773 2211.4 601.806 2218.89 603.875 2240.51 595.641 2247.93 587.896 2249.38 586.376 2252.08 582.383 2253.93 579.022 2257.4 572.693 2258.78 571.501 2258.78 574.827 2258.78 577.371 2262.12 591.059 2264.28 597.398 2269.79 613.534 2280.5 627.194 2292.1 632.876 2304.25 638.831 2318.66 639.382 2329.47 634.304 2336.33 631.085 2347.88 620.067 2352.81 612.052L2356.1 606.699 2357.34 609.646C2358.02 611.266 2358.87 613.932 2359.23 615.57 2360.14 619.714 2365.23 625.572 2370.06 628.037 2375.13 630.626 2382.84 630.742 2392.35 628.373 2405.79 625.023 2435.07 613.454 2459.32 601.905 2463.72 599.81 2472.05 595.857 2477.83 593.122 2504.42 580.525 2511.48 576.938 2513.03 575.222 2515.25 572.773 2522.84 557.343 2522.84 555.285 2522.84 552.4 2521.27 553.045 2483.83 571.359 2464.44 580.839 2448.96 585.596 2441.02 584.507 2424.4 582.229 2404.75 562.979 2397.35 541.722 2394.73 534.189 2395.23 531.568 2399.79 529.005 2404.99 526.08 2423.43 519.527 2432.32 517.446 2436.17 516.542 2440.95 515.369 2442.94 514.837 2444.93 514.304 2451.68 513.879 2457.94 513.889 2467.92 513.906 2470.34 514.268 2477.56 516.815 2485.71 519.687 2487.43 519.607 2486.21 516.412 2485.09 513.498 2467.06 502.313 2458.46 499.197 2437.27 491.52 2420.37 494.181 2404.14 507.749 2382.6 525.76 2377.24 553.58 2391 575.891 2392.52 578.366 2394.22 581.401 2394.76 582.635 2395.31 583.867 2399.09 588.271 2403.17 592.419L2410.59 599.961 2407.75 601.43C2399.8 605.542 2384.49 607.046 2378.02 604.349 2373.75 602.566 2368.28 597.629 2366.22 593.696 2364.58 590.559 2364.37 584.163 2365.79 580.421 2367.32 576.411 2364.15 575.704 2361.41 579.446 2357.81 584.359 2348.84 598.295 2347.91 600.399 2345.3 606.346 2329.97 612.927 2318.88 612.867 2294.98 612.738 2281.14 601.49 2273.4 575.891 2270.9 567.606 2270.24 564.113 2267.26 543.38 2266.47 537.878 2265.44 531.071 2264.97 528.254 2264.18 523.471 2264.31 522.908 2266.99 519.752 2277.07 507.87 2284.97 491.862 2280.75 491.862 2280.18 491.862 2275.61 496.157 2270.59 501.407 2265.57 506.657 2261.14 510.595 2260.75 510.16 2260.35 509.724 2259.1 506.615 2257.95 503.25 2255.41 495.753 2252.94 490.242 2250.5 486.61 2248.73 483.986 2246.87 483.004 2246.7 484.609M2307.92 527.91C2305 533.432 2302.83 538.544 2303.11 539.268 2303.39 539.993 2305.79 541.831 2308.45 543.352 2311.12 544.874 2316.13 547.936 2319.6 550.157 2324.98 553.595 2326.11 553.986 2327.23 552.789 2328.82 551.096 2337.81 533.664 2337.78 532.322 2337.77 531.801 2334.73 529.6 2331.03 527.429 2327.33 525.259 2322.41 522.22 2320.11 520.677 2317.82 519.133 2315.33 517.871 2314.59 517.871 2313.84 517.871 2310.84 522.388 2307.92 527.91M1907.96 568.798C1894.07 592.399 1882.72 612.091 1882.73 612.557 1882.76 613.497 1967.28 663.42 1968.84 663.42 1970.18 663.42 2020.75 577.564 2019.9 576.724 2019.06 575.881 1935.93 526.886 1934.37 526.311 1933.71 526.07 1922.33 544.381 1907.96 568.798M2243.78 539.576C2234.76 545.905 2223.26 555.998 2217.02 563.066 2212.93 567.71 2211.77 569.749 2211.77 572.355 2211.77 575.197 2212.24 575.857 2214.9 576.787 2221.16 578.966 2231.25 576.523 2244.44 569.638 2251.92 565.735 2253.78 562.638 2253.78 554.115 2253.78 546.88 2252.29 536.973 2251.02 535.731 2250.61 535.337 2247.35 537.067 2243.78 539.576M1402.47 847.269C1396.6 856.615 1392.49 865.429 1393.05 867.442 1393.37 868.569 1394.52 883.67 1395.6 901.001 1396.69 918.331 1398.27 941.289 1399.11 952.018 1403.93 1013.63 1405.76 1041.4 1406.59 1065.56 1407.1 1080.41 1407.83 1100.57 1408.22 1110.36L1408.92 1128.15 1406.5 1127.22C1397.59 1123.84 1392.27 1119.3 1385.97 1109.75 1381.16 1102.46 1378.75 1099.36 1374.31 1094.73 1371.9 1092.22 1370.96 1091.89 1367.62 1092.34 1365.49 1092.62 1361.67 1093.89 1359.15 1095.15 1350.34 1099.55 1337.31 1116.25 1331.11 1131.08 1314.16 1171.6 1308.77 1180.1 1300 1180.1 1287.92 1180.1 1277.79 1168.22 1274.39 1150.09 1273.78 1146.81 1273.63 1139.13 1274.03 1131.08 1275.15 1107.97 1275.15 1107.78 1273.88 1107.34 1270.74 1106.28 1265.58 1130.41 1265.58 1146.19 1265.58 1172.85 1282.09 1199.1 1298.84 1199.1 1310 1199.1 1314.46 1193.76 1328.9 1163.09 1341.95 1135.36 1341.46 1136.21 1348.38 1129.43 1359.41 1118.64 1364.52 1116.22 1369.26 1119.55 1370.42 1120.36 1374.17 1124.83 1377.59 1129.49 1381.02 1134.14 1386.59 1140.3 1389.96 1143.16 1395.81 1148.13 1404.52 1153.06 1407.49 1153.08 1408.63 1153.08 1408.74 1155.96 1408.14 1170.09 1407.51 1184.77 1407.62 1187.1 1408.89 1187.1 1412.39 1187.1 1418.4 1174.78 1421.1 1162.09 1422.11 1157.35 1423.32 1156.09 1426.84 1156.09 1431.35 1156.09 1447.29 1150.43 1453.63 1146.58L1459.25 1143.17 1465.51 1145.69C1469.13 1147.16 1476.67 1148.89 1483.44 1149.82 1489.87 1150.7 1495.31 1151.57 1495.54 1151.75 1495.76 1151.93 1495.45 1153.76 1494.83 1155.83 1493.45 1160.5 1490.63 1179.28 1490.63 1183.8 1490.63 1186.47 1490.11 1187.34 1488.06 1188.12 1486.65 1188.66 1485.19 1189.09 1484.81 1189.09 1484.43 1189.08 1482.58 1186.27 1480.7 1182.83 1476.96 1176.02 1465.83 1164.34 1460.6 1161.73 1455.95 1159.41 1445.58 1159.55 1440.83 1162 1429.37 1167.91 1419.04 1187.87 1421.02 1200.27 1423.16 1213.63 1430.14 1217.51 1451.62 1217.25 1458.5 1217.16 1467.05 1216.47 1470.62 1215.7 1474.2 1214.93 1477.46 1214.61 1477.87 1214.99 1478.27 1215.38 1479 1217.79 1479.48 1220.35 1481.24 1229.78 1475.43 1237.05 1452.22 1254.5 1436.12 1266.6 1427.03 1272.41 1413.99 1278.95 1398.95 1286.49 1394.82 1287.51 1379.1 1287.57 1366.21 1287.63 1364.71 1287.44 1360.13 1285.18 1350.7 1280.55 1343.17 1270.62 1339.96 1258.62 1337.77 1250.45 1338.26 1235.19 1341.11 1222.63 1342.48 1216.59 1343.6 1211.52 1343.6 1211.37 1343.6 1211.23 1342.94 1211.11 1342.13 1211.11 1340.19 1211.11 1339.02 1213.47 1334.96 1225.52 1326.15 1251.64 1327.04 1276.67 1337.36 1293.13 1344.45 1304.45 1352.41 1310.14 1364.8 1312.78 1391.67 1318.49 1429.37 1300.57 1464.19 1265.54 1481.81 1247.83 1487.03 1238.1 1488.31 1220.61 1489 1211.14 1490.54 1207.13 1490.61 1214.61 1490.74 1228.2 1499.49 1249.54 1510.38 1262.86 1516 1269.72 1534.03 1281.21 1542.39 1283.26 1559.18 1287.36 1568 1287.88 1582.11 1285.61 1616.18 1280.13 1649.33 1261.95 1676.24 1234 1686.12 1223.73 1689.46 1218.89 1695.72 1205.79 1701.35 1193.98 1703.44 1186.15 1704.3 1173.59 1705.2 1160.59 1702.06 1143.33 1698.07 1139.34 1697.3 1138.57 1696.67 1137.54 1696.67 1137.06 1696.67 1136.58 1694.48 1133.57 1691.81 1130.38 1685.37 1122.7 1677.98 1118.43 1665.4 1115.12 1653.71 1112.04 1650.13 1110.39 1645.8 1106.06 1642.26 1102.52 1641.14 1098.01 1642.07 1091.01 1642.6 1086.99 1642.45 1086.06 1641.23 1086.06 1638.98 1086.06 1632.56 1093.01 1627.06 1101.4 1619.48 1112.95 1611.48 1117.43 1596.07 1118.74 1584.63 1119.71 1577.15 1116.21 1572.05 1107.51 1569.65 1103.41 1569.48 1102.42 1570.12 1096.41 1570.81 1090.01 1570.77 1089.86 1568.88 1091.19 1565.97 1093.24 1562.55 1097.61 1556.47 1107.07 1549.92 1117.25 1544.07 1122.21 1537.04 1123.53 1528.8 1125.07 1516.72 1126.33 1515.31 1125.78 1513.97 1125.27 1514.56 1123.75 1518.83 1116.72 1521.65 1112.07 1526.25 1105.58 1529.05 1102.29 1534.81 1095.52 1557.73 1076.06 1559.94 1076.06 1560.74 1076.06 1561.96 1076.74 1562.64 1077.56 1563.33 1078.39 1564.79 1079.06 1565.9 1079.06 1567.66 1079.06 1567.84 1078.57 1567.38 1075.13L1566.85 1071.19 1583.59 1062.67C1592.8 1057.98 1602.54 1053.28 1605.24 1052.21 1607.94 1051.14 1616.23 1047.36 1623.65 1043.81 1631.08 1040.27 1638.73 1036.77 1640.66 1036.04 1642.58 1035.31 1644.61 1034.4 1645.16 1034.02 1645.71 1033.63 1647.29 1033.05 1648.68 1032.72 1653.83 1031.5 1676.56 1020.02 1678.06 1017.89 1681.44 1013.06 1687.88 996.843 1686.83 995.794 1685.06 994.025 1666.39 991.609 1627.65 988.134 1588.61 984.632 1577.7 984.029 1553.42 984.029 1523.22 984.029 1512.71 986.041 1503.82 993.526 1496.74 999.48 1492.09 1013.79 1494.66 1021.68 1497.63 1030.84 1502.63 1035.4 1528.13 1052.27 1535.29 1057 1542.49 1062.02 1544.14 1063.43L1547.14 1065.99 1539.48 1073.28C1528.62 1083.61 1515.82 1101.53 1508.02 1117.32L1504.19 1125.08 1497.03 1125.08C1493.1 1125.08 1488.51 1124.8 1486.83 1124.47L1483.78 1123.86 1487.14 1117.72C1493.08 1106.85 1495.83 1096.88 1495.98 1085.57L1496.12 1075.56 1490.97 1065.01C1486.79 1056.48 1485.15 1054.11 1482.37 1052.61 1478.96 1050.78 1478.9 1050.78 1473.53 1053.29 1463.72 1057.86 1451.78 1071.4 1445.38 1085.19 1439.11 1098.68 1438.5 1109.82 1443.16 1125.69 1443.67 1127.45 1443.1 1128.07 1439.68 1129.44 1437.42 1130.34 1433.33 1131.08 1430.59 1131.08L1425.61 1131.08 1425.61 1110.68C1425.61 1080.16 1420.16 978.464 1417.11 952.018 1416.69 948.343 1413.63 904.341 1413.61 901.754 1413.61 901.344 1415.78 903.256 1418.43 906.005 1423.33 911.096 1425.61 912.203 1425.61 909.492 1425.61 908.662 1424.71 903.823 1423.6 898.739 1421.49 889.088 1406.65 842.954 1405.67 843.018 1405.36 843.038 1403.92 844.951 1402.47 847.269M2100.68 878.971C2099.82 879.475 2098.02 880.095 2096.68 880.349 2094.21 880.817 2080.94 884.093 2072.74 886.257 2070.27 886.91 2067.89 887.338 2067.45 887.207 2067.02 887.076 2065.85 887.404 2064.86 887.935 2063.86 888.466 2061.97 889.11 2060.65 889.365 2059.32 889.619 2052.84 891.041 2046.24 892.526 2035.58 894.924 2032.11 895.624 2029.49 895.916 2029.07 895.961 2028.74 896.813 2028.74 897.809 2028.74 898.804 2028.07 900.492 2027.27 901.56 2026.46 902.627 2025.78 904.938 2025.77 906.694 2025.75 908.449 2025.29 910.164 2024.74 910.504 2024.18 910.844 2023.73 912.896 2023.73 915.064 2023.73 917.233 2023.33 919.007 2022.83 919.007 2022.33 919.007 2021.61 921.256 2021.23 924.007 2020.86 926.757 2020.14 929.26 2019.64 929.568 2019.14 929.876 2018.73 932.368 2018.73 935.106 2018.73 937.844 2018.1 941.081 2017.33 942.3 2016.41 943.744 2015.68 949.217 2015.22 958.02 2014.71 967.95 2014.11 971.983 2012.99 973.256 2011.77 974.632 2011.71 975.29 2012.67 976.45 2013.61 977.586 2013.63 980.871 2012.76 991.128 2012.1 998.901 2012.01 1004.71 2012.53 1005.24 2013.03 1005.73 2013.22 1008.36 2012.95 1011.09 2012.65 1014.22 2012.87 1016.04 2013.54 1016.04 2014.2 1016.04 2014.39 1017.38 2014.04 1019.53 2013.71 1021.57 2013.96 1023.62 2014.65 1024.44 2015.29 1025.22 2015.54 1026.97 2015.19 1028.34 2014.85 1029.71 2015.03 1031.11 2015.58 1031.45 2016.14 1031.8 2016.9 1034.54 2017.28 1037.56 2017.66 1040.58 2018.37 1043.05 2018.87 1043.05 2019.36 1043.05 2019.49 1044.17 2019.14 1045.55 2018.76 1047.09 2018.94 1048.05 2019.63 1048.05 2020.23 1048.05 2020.74 1048.84 2020.74 1049.8 2020.74 1050.76 2021.42 1052.84 2022.24 1054.42 2023.06 1055.99 2023.75 1058.02 2023.77 1058.92 2023.79 1059.82 2024.67 1062.36 2025.74 1064.56 2026.8 1066.76 2027.68 1069.35 2027.7 1070.31 2027.72 1071.27 2028.1 1072.06 2028.55 1072.06 2029 1072.06 2030.36 1074.2 2031.58 1076.81 2032.8 1079.42 2035.34 1084.26 2037.23 1087.56 2039.11 1090.86 2041.22 1094.69 2041.92 1096.07 2043.56 1099.34 2065.92 1126.08 2067.01 1126.08 2067.23 1126.08 2069.22 1127.79 2071.42 1129.88 2076.55 1134.77 2087.48 1143.08 2088.76 1143.08 2089.3 1143.08 2089.75 1143.53 2089.75 1144.08 2089.75 1144.63 2090.31 1145.09 2091 1145.09 2091.69 1145.1 2094.49 1146.88 2097.22 1149.04 2099.95 1151.21 2102.3 1152.87 2102.44 1152.73 2102.57 1152.6 2103.18 1133.6 2103.78 1110.52 2104.88 1068.4 2104.12 877.96 2102.86 878.023 2102.52 878.04 2101.55 878.466 2100.68 878.971M3046.94 919.653C3027.64 925.937 3004.3 951.676 2986.98 985.78 2985.23 989.219 2983.43 992.032 2982.97 992.032 2980.69 992.032 2970.87 980.491 2966.45 972.625 2959.23 959.761 2957.66 959.151 2946.16 964.78 2932.95 971.25 2915.26 996.727 2910.52 1016.11 2907.32 1029.24 2906.81 1035.32 2908.44 1040.84 2910.55 1047.93 2913.93 1051.51 2922.26 1055.47 2929.78 1059.04 2938.89 1061.26 2953.6 1063.07 2965.18 1064.5 2972.71 1066.75 2975.59 1069.63 2976.88 1070.92 2977.93 1072.33 2977.93 1072.78 2977.93 1074.85 2968.36 1083.21 2960.15 1088.31 2923.56 1111.06 2884.19 1125.23 2858.13 1125.02 2836.28 1124.85 2820.34 1116.69 2809.03 1099.87 2801.94 1089.33 2798.89 1077.56 2798.89 1060.76 2798.89 1050.4 2799.26 1048.1 2802.89 1035.67 2807.9 1018.53 2808.11 1013.83 2803.62 1018.79 2797.3 1025.78 2790.09 1053.23 2789.24 1073.56 2787.45 1116.17 2805.64 1143.16 2841.15 1150.57 2850.43 1152.51 2860.07 1152.49 2871.41 1150.51 2893.08 1146.72 2906.83 1141.53 2932.42 1127.46 2937.6 1124.61 2955.23 1112.81 2959.82 1109.12L2964.22 1105.59 2963.61 1109.08C2961.35 1121.91 2960.74 1131.01 2961.25 1144.08 2962.01 1163.38 2964.86 1172.13 2973.28 1180.93 2989.64 1198.03 3019.57 1194.68 3056.9 1171.56 3082.71 1155.58 3108.77 1133.17 3115.73 1120.97 3121.09 1111.59 3123.87 1088.87 3120.85 1079.13 3118.98 1073.09 3113 1060.97 3107.49 1052.05 3104.61 1047.37 3101.9 1042.46 3101.48 1041.14 3100.82 1039.07 3100.97 1038.85 3102.59 1039.52 3108.58 1042.01 3109.95 1042.39 3110.58 1041.75 3110.97 1041.36 3110.72 1039.98 3110.02 1038.68 3108.05 1035 3087.76 1011.54 3086.54 1011.54 3084.93 1011.54 3082.95 1018.42 3081.72 1028.24L3080.64 1036.93 3084.2 1043.74C3087.24 1049.57 3093.91 1062.53 3110.7 1095.22 3113.78 1101.23 3113.99 1102.13 3112.79 1104.36 3110.04 1109.47 3087.06 1127.32 3066.45 1140.33 3033.15 1161.37 3009.46 1168.17 2990.67 1162.09 2985.2 1160.33 2983.15 1159.02 2979.5 1154.96 2972.74 1147.43 2970.65 1141.04 2970.14 1126.22 2969.91 1119.43 2970.01 1111.08 2970.38 1107.66 2970.99 1101.94 2971.44 1101.04 2976.06 1096.22 2984.06 1087.87 2988.93 1074.87 2988.93 1061.81 2988.93 1050.6 2984.9 1044.41 2974.43 1039.56 2968.75 1036.93 2954.64 1034.05 2947.43 1034.05 2942.79 1034.05 2935.97 1032.44 2927.42 1029.33 2921.62 1027.22 2916.92 1023.35 2916.92 1020.69 2916.92 1013.77 2937.29 991.499 2946 988.89 2952.44 986.958 2954.3 988.13 2959.1 997.157 2961.95 1002.5 2965.27 1006.97 2968.81 1010.21L2974.2 1015.14 2972.45 1021.58C2970.77 1027.81 2970.93 1031.78 2972.82 1030.61 2973.33 1030.3 2975.16 1027.52 2976.9 1024.44 2979.24 1020.29 2980.49 1018.98 2981.74 1019.39 2982.67 1019.68 2986.13 1020.92 2989.43 1022.13 2994.5 1023.98 2997.87 1024.36 3011.18 1024.58 3019.84 1024.72 3028.62 1024.42 3030.68 1023.92 3032.75 1023.42 3036.91 1022.52 3039.94 1021.93 3042.97 1021.34 3045.89 1020.53 3046.44 1020.12 3046.99 1019.72 3049.47 1018.82 3051.94 1018.13 3062.74 1015.1 3078.5 1006.62 3085.31 1000.18 3090.34 995.419 3093.56 990.3 3096.65 982.151 3102.91 965.617 3103.68 954.863 3099.18 946.348 3093.93 936.399 3081.39 925.914 3068.82 920.959 3064.1 919.097 3051.04 918.318 3046.94 919.653M2966.64 943.142C2961.23 953.526 2960.97 954.333 2962.64 955.574 2966.6 958.519 2984.99 969.299 2985.38 968.907 2985.61 968.675 2988.31 963.665 2991.37 957.774L2996.93 947.063 2994.68 945.671C2993.44 944.904 2988.11 941.518 2982.84 938.144 2977.56 934.771 2973.06 932.017 2972.84 932.024 2972.61 932.032 2969.82 937.035 2966.64 943.142M3036.66 946.404C3030.51 948.97 3030.22 949.162 3022.31 955.773 3016.37 960.728 3003.11 977.316 2996.45 988.105L2991.86 995.533 2995.15 996.966C2997.33 997.916 3003.47 998.544 3013.39 998.831 3028.56 999.268 3035.89 998.41 3051.44 994.371 3062.97 991.376 3084.63 981.243 3088.4 977.083 3091.34 973.833 3088.87 968.922 3079.82 960.016 3065.14 945.57 3050.06 940.813 3036.66 946.404M2247.92 1016.89C2234.65 1039.42 2223.55 1058.48 2223.25 1059.26 2222.59 1060.98 2306.51 1110.8 2307.76 1109.44 2308.2 1108.96 2318.34 1091.92 2330.3 1071.56 2342.26 1051.2 2353.27 1032.51 2354.77 1030.02L2357.5 1025.5 2316 1001.01C2293.17 987.545 2273.94 976.392 2273.27 976.228 2272.58 976.059 2261.54 993.765 2247.92 1016.89M1451.85 979.777C1450.8 981.291 1448.05 985.989 1445.75 990.217L1441.55 997.905 1448.83 1002.1C1452.84 1004.41 1458.58 1007.78 1461.6 1009.59 1464.61 1011.4 1467.41 1012.67 1467.82 1012.42 1468.23 1012.16 1469.5 1009.85 1470.63 1007.28 1471.77 1004.71 1473.05 1002.36 1473.47 1002.07 1474.85 1001.11 1479.62 991.833 1479.13 991.046 1478.19 989.517 1456.36 977.027 1454.64 977.027 1454.15 977.027 1452.9 978.264 1451.85 979.777M1862.7 981.17C1850.81 983.135 1839.39 990.646 1834.47 999.73 1829.72 1008.51 1828.25 1015.42 1828.24 1029.04 1828.23 1039.15 1828.65 1042.9 1830.42 1048.57 1836.26 1067.25 1849.7 1076.51 1872.7 1077.71 1901.9 1079.24 1920.02 1067.09 1924.3 1043.1 1927.9 1022.9 1924.1 1004.11 1914.2 993.153 1909.48 987.923 1898.28 982.393 1889.71 981.057 1882.01 979.855 1870.36 979.904 1862.7 981.17M1350.92 991.524C1348.27 996.198 1345.8 1000.02 1345.43 1000.03 1345.07 1000.03 1339.53 997.069 1333.13 993.445 1326.73 989.821 1320.94 987.067 1320.27 987.325 1319.04 987.795 1308.08 1007.9 1308.74 1008.47 1309.85 1009.42 1318.25 1014.3 1325.78 1018.38L1334.47 1023.08 1339.12 1014.56C1341.67 1009.87 1344.23 1006.04 1344.8 1006.04 1345.38 1006.04 1349.05 1007.97 1352.97 1010.34 1360.39 1014.81 1369.6 1019.38 1370.13 1018.85 1370.29 1018.68 1372.32 1014.97 1374.64 1010.6 1376.95 1006.23 1379.47 1002.03 1380.22 1001.27 1380.98 1000.51 1381.6 999.294 1381.6 998.564 1381.6 997.356 1358.51 983.028 1356.56 983.028 1356.1 983.028 1353.56 986.852 1350.92 991.524M1519.42 1010.43C1513.34 1011.51 1510.6 1012.54 1511.71 1013.33 1511.94 1013.49 1517.08 1016.78 1523.13 1020.64 1538.68 1030.54 1547.44 1037.89 1554.66 1047.08 1558.11 1051.47 1561.13 1055.05 1561.38 1055.05 1561.63 1055.05 1565.5 1052.65 1569.99 1049.72 1574.48 1046.78 1580.62 1043.09 1583.65 1041.51 1586.67 1039.92 1590.27 1037.88 1591.65 1036.97 1593.02 1036.06 1600.22 1032.52 1607.65 1029.09 1615.08 1025.67 1624.64 1021.26 1628.91 1019.29 1633.18 1017.33 1636.54 1015.59 1636.37 1015.42 1635.93 1014.98 1600.05 1011.27 1584.65 1010.08 1566.87 1008.7 1527.94 1008.91 1519.42 1010.43M2852.15 1025.34C2849.26 1031 2846.9 1036.12 2846.9 1036.71 2846.9 1037.3 2850.72 1040.12 2855.39 1042.98 2860.05 1045.84 2864.12 1048.58 2864.42 1049.07 2864.72 1049.56 2862.7 1054.48 2859.93 1059.99 2857.17 1065.51 2854.9 1070.43 2854.9 1070.92 2854.9 1071.42 2857.94 1073.76 2861.65 1076.12 2865.37 1078.48 2870.41 1081.69 2872.85 1083.26 2875.3 1084.82 2877.72 1085.96 2878.23 1085.79 2878.74 1085.62 2881.58 1080.77 2884.55 1075.02L2889.94 1064.56 2887.26 1062.39C2885.78 1061.19 2883.41 1059.62 2881.99 1058.88 2880.57 1058.15 2877.52 1056.3 2875.21 1054.77L2871.02 1051.99 2873.77 1046.27C2875.29 1043.12 2877.77 1038.14 2879.28 1035.2 2880.8 1032.25 2881.9 1029.74 2881.73 1029.61 2881.16 1029.18 2870.56 1022.4 2864.64 1018.67 2861.46 1016.67 2858.53 1015.04 2858.13 1015.04 2857.73 1015.04 2855.03 1019.67 2852.15 1025.34M1662.71 1053.5C1662.04 1054.3 1659.27 1059.14 1656.55 1064.26L1651.6 1073.56 1654.88 1076.26C1659.22 1079.82 1673.91 1088.06 1675.93 1088.06 1677.82 1088.06 1679.88 1085.24 1685.51 1074.93L1689.67 1067.31 1679.92 1061.55C1674.55 1058.38 1668.76 1054.94 1667.04 1053.91 1664.33 1052.29 1663.75 1052.24 1662.71 1053.5M1597.18 1073.19C1594.07 1079.13 1592.33 1088.24 1593.48 1092.57 1595.97 1101.93 1611.21 1097.27 1613.22 1086.53 1614.04 1082.18 1612.15 1079.08 1606.08 1074.8 1603.63 1073.07 1601.65 1070.87 1601.65 1069.87 1601.65 1066.65 1599.92 1067.94 1597.18 1073.19M1467.05 1079.35C1462.02 1082.3 1455.41 1088.87 1453.49 1092.83 1450.49 1099.03 1451.46 1102.52 1457.88 1108.67 1466.66 1117.07 1465.54 1116.89 1474.22 1111.41 1484.85 1104.7 1485.7 1103.79 1485.02 1099.84 1484.26 1095.47 1479.12 1084.81 1475.98 1081.07 1473.3 1077.88 1470.48 1077.34 1467.05 1079.35M1598.81 1081.3C1597.26 1082.85 1597.32 1087.73 1598.9 1088.31 1601.13 1089.12 1607.65 1087.88 1607.65 1086.64 1607.65 1085.6 1604.59 1082.88 1601.06 1080.79 1600.46 1080.43 1599.45 1080.66 1598.81 1081.3M1865.7 1102.19C1857.64 1103.49 1846.59 1109.25 1841.86 1114.63 1834.22 1123.31 1831.22 1133.16 1831.22 1149.59 1831.22 1172.41 1838.26 1185.82 1854.08 1193.17 1873.71 1202.29 1905.27 1198.18 1917.22 1184.96 1925.49 1175.81 1929.47 1161.33 1928.37 1144.39 1927.09 1124.59 1920.01 1112.82 1905.26 1105.97 1895.45 1101.41 1879.81 1099.92 1865.7 1102.19M1625.64 1122.19C1618.82 1131.36 1607.25 1140.12 1600.03 1141.58 1587 1144.21 1577.33 1143.26 1571.47 1138.76 1565.87 1134.46 1563.63 1131.21 1563.05 1126.53 1562.61 1122.95 1561.16 1120.07 1560.35 1121.14 1560.16 1121.38 1557.93 1124.55 1555.37 1128.2 1543.75 1144.76 1528.26 1152.46 1510 1150.76L1503.68 1150.17 1502.58 1154.27C1501.97 1156.53 1501.69 1159.22 1501.96 1160.23 1502.22 1161.25 1502.03 1162.34 1501.54 1162.65 1501.04 1162.96 1500.63 1167.73 1500.63 1173.26 1500.63 1180.91 1500.93 1183.19 1501.88 1182.79 1502.57 1182.5 1508.92 1179.75 1515.99 1176.68 1523.06 1173.61 1529.91 1171.09 1531.22 1171.09 1537.34 1171.09 1538.99 1183.96 1534.69 1198.18 1532.04 1206.92 1530.6 1209.23 1529.5 1206.45 1529.1 1205.44 1528.74 1203.23 1528.7 1201.55 1528.55 1194.73 1522.77 1194.29 1510.58 1200.19 1505.93 1202.43 1502.01 1204.4 1501.85 1204.55 1501.7 1204.7 1503.12 1208.47 1505 1212.93 1514.96 1236.57 1530.19 1250.87 1551.64 1256.76 1561.37 1259.43 1585.96 1259.15 1598.15 1256.23 1625.83 1249.59 1642.72 1240.86 1666.85 1220.72 1679.86 1209.87 1686.35 1202.21 1690.92 1192.36 1697.02 1179.19 1694.76 1163.98 1684.8 1151.27 1680.13 1145.3 1675.28 1142.41 1667.66 1141.07 1642.62 1136.64 1637.46 1133.54 1633.14 1120.31 1632.2 1117.43 1631.31 1115.07 1631.18 1115.07 1631.04 1115.07 1628.55 1118.28 1625.64 1122.19M1580.02 1158.37C1578.96 1159.59 1575.99 1164.49 1573.41 1169.26L1568.72 1177.93 1578.65 1183.55C1584.11 1186.64 1588.82 1189.57 1589.12 1190.05 1589.42 1190.54 1589.07 1191.54 1588.34 1192.27 1587.61 1193 1584.83 1197.62 1582.15 1202.54 1578.2 1209.8 1577.55 1211.63 1578.71 1212.32 1593.67 1221.16 1602.29 1226.08 1602.85 1226.09 1603.24 1226.1 1605.19 1223.3 1607.18 1219.86 1609.18 1216.42 1611.9 1211.81 1613.22 1209.61 1614.54 1207.4 1615.63 1205.12 1615.64 1204.53 1615.65 1203.94 1611.71 1201.28 1606.9 1198.61 1602.09 1195.95 1597.6 1193.35 1596.93 1192.84 1595.67 1191.88 1596.63 1189.73 1603.69 1177.59 1605.29 1174.84 1606.61 1172.08 1606.63 1171.46 1606.65 1170.37 1599.49 1165.78 1587.54 1159.22L1581.95 1156.15 1580.02 1158.37M1439.7 1185.51C1436.76 1188.64 1437.65 1191.65 1441.92 1192.95 1447.35 1194.6 1453.74 1195.21 1458.36 1194.51L1462.77 1193.85 1459.45 1190.35C1452.8 1183.36 1443.79 1181.15 1439.7 1185.51M1064 1237.61C1064 1261.82 1064.13 1271.58 1064.29 1259.3 1064.45 1247.03 1064.45 1227.22 1064.29 1215.29 1064.13 1203.36 1064 1213.41 1064 1237.61M2765.89 1209.25C2754 1211.21 2742.57 1218.72 2737.65 1227.81 2732.91 1236.58 2731.44 1243.5 2731.42 1257.12 2731.41 1267.22 2731.83 1270.97 2733.6 1276.65 2739.46 1295.4 2752.78 1304.58 2775.89 1305.79 2805.08 1307.32 2823.2 1295.16 2827.48 1271.18 2831.08 1250.98 2827.29 1232.19 2817.39 1221.23 2812.66 1216 2801.47 1210.47 2792.89 1209.13 2785.19 1207.93 2773.55 1207.98 2765.89 1209.25M1872.75 1222.25C1861.73 1224.07 1851.28 1230.5 1845.76 1238.84 1836.46 1252.88 1835.26 1280.5 1843.24 1296.81 1850.8 1312.27 1867.46 1319.99 1890.71 1318.81 1920.58 1317.29 1934.35 1303.96 1936.35 1274.63 1938.35 1245.33 1925.28 1226.17 1900.57 1222.16 1893.06 1220.94 1880.4 1220.98 1872.75 1222.25M3087.95 1226.23C3079.89 1227.53 3068.84 1233.29 3064.1 1238.67 3056.47 1247.35 3053.47 1257.2 3053.47 1273.63 3053.47 1296.45 3060.5 1309.86 3076.32 1317.21 3095.96 1326.33 3127.52 1322.23 3139.46 1309 3155.28 1291.49 3154.61 1252.11 3138.23 1237.01 3127.44 1227.06 3108.3 1222.95 3087.95 1226.23M1479.01 1275.88C1476.97 1279.59 1474.28 1284.4 1473.02 1286.57L1470.74 1290.51 1483.15 1297.82C1489.97 1301.85 1496.01 1305.14 1496.57 1305.14 1497.12 1305.14 1498.86 1302.55 1500.43 1299.39 1502 1296.22 1504.49 1291.73 1505.96 1289.4 1507.43 1287.07 1508.63 1284.8 1508.63 1284.34 1508.63 1282.86 1486.55 1269.13 1484.16 1269.13 1483.37 1269.13 1481.05 1272.16 1479.01 1275.88M2626.36 1462.18C2614.25 1462.6 2604.24 1463 2604.1 1463.06 2602.98 1463.63 2604.82 1465.51 2610.6 1469.73 2617.2 1474.55 2647.54 1499.88 2669.26 1518.71L2680.16 1528.16 2683.27 1525.44C2685.92 1523.11 2710.7 1506.18 2734.83 1490.2 2738.57 1487.72 2743.72 1484.29 2746.27 1482.56L2750.92 1479.42 2748.15 1478.72C2746.63 1478.33 2744.48 1477.84 2743.38 1477.63 2740.24 1477.03 2728.88 1474.22 2723.38 1472.68 2720.63 1471.91 2716.35 1471.02 2713.87 1470.7 2708.39 1469.99 2689.8 1466.68 2676.75 1464.07 2664.53 1461.64 2653.81 1461.23 2626.36 1462.18M2573.35 1916.82C2570.6 1917.54 2566.38 1918.86 2563.97 1919.74 2561.56 1920.62 2558.75 1921.35 2557.72 1921.35 2556.69 1921.35 2555.84 1921.79 2555.84 1922.33 2555.84 1924.46 2569.78 1937.92 2578.32 1944.01 2583.28 1947.56 2589.69 1952.18 2592.55 1954.26 2596.79 1957.35 2599.87 1958.54 2609.06 1960.65 2622.01 1963.63 2640.14 1964.97 2641.65 1963.06 2642.17 1962.4 2642.91 1960.13 2643.29 1958.01 2643.88 1954.76 2643.4 1953 2640.24 1946.68 2635.76 1937.74 2627.34 1929.74 2618.26 1925.83 2615.01 1924.43 2611.23 1922.8 2609.85 1922.21 2608.48 1921.62 2606 1920.5 2604.35 1919.72 2602.7 1918.94 2597.63 1917.89 2593.08 1917.37 2588.53 1916.85 2583.35 1916.22 2581.58 1915.97 2579.8 1915.71 2576.1 1916.1 2573.35 1916.82M2055.88 1963.44C2043.42 1965.89 2027.74 1983.42 2027.74 1994.9 2027.74 1999.05 2029.55 2001.94 2031.7 2001.22 2032.26 2001.03 2034.19 1998.64 2035.98 1995.91 2037.77 1993.17 2040.77 1989.91 2042.64 1988.65 2049.03 1984.36 2059.57 1986.24 2065.66 1992.77 2067 1994.2 2067.9 1995.51 2067.66 1995.69 2067.43 1995.88 2064.14 1996.58 2060.35 1997.25 2039.47 2000.96 2023.29 2010.65 2017.63 2022.84 2016.08 2026.16 2014.47 2030.46 2014.05 2032.38 2013.06 2036.92 2013.04 2047.79 2014 2052.89 2015.27 2059.56 2020.71 2081.36 2023.37 2090.4 2024.74 2095.08 2027.37 2104.08 2029.2 2110.41 2031.02 2116.74 2034.15 2127.02 2036.13 2133.25 2043.3 2155.77 2045.46 2178.14 2042.24 2196.44 2040.24 2207.82 2040.29 2209.44 2042.67 2209.44 2045.29 2209.44 2048.62 2204.5 2050.87 2197.26 2052.37 2192.44 2052.74 2188.08 2052.73 2175.09 2052.72 2156.35 2050.65 2139.06 2045.87 2117.91 2044.94 2113.77 2036.36 2084.81 2034.77 2080.4 2033.44 2076.74 2028.78 2061.22 2028.31 2058.89 2028.08 2057.79 2027.16 2053.37 2026.26 2049.07 2024.73 2041.74 2024.73 2040.96 2026.34 2036.74 2030.48 2025.91 2048.62 2019.38 2080.94 2017.09L2098.05 2015.88 2101.32 2009.98C2103.11 2006.73 2104.88 2002.51 2105.24 2000.59 2105.81 1997.57 2105.46 1996.66 2102.57 1993.63 2099.75 1990.67 2090.07 1982.4 2077.09 1971.89 2072.81 1968.42 2062.61 1962.33 2061.3 1962.47 2060.72 1962.53 2058.28 1962.97 2055.88 1963.44" fill="url(#fill1)" fill-rule="evenodd"/></g></svg>